<svg width="265" height="17" viewBox="0 0 265 17" fill="none" xmlns="http://www.w3.org/2000/svg">
<path d="M256.801 0.160034C261.985 0.160034 264.913 3.11203 264.913 8.08003C264.913 13.6 261.985 16 257.617 16H252.001V0.160034H256.801ZM257.593 14.152C260.545 14.152 262.705 12.328 262.705 8.08003C262.705 4.02403 260.569 2.00803 256.777 2.00803H254.185V14.152H257.593Z" fill="black"/>
<path d="M245.89 0.160034H248.074V9.88003C248.074 13.648 245.53 16.144 241.786 16.144C238.018 16.144 235.474 13.648 235.474 9.88003V0.160034H237.658V9.83204C237.658 12.616 239.338 14.224 241.786 14.224C244.21 14.224 245.89 12.616 245.89 9.88003V0.160034Z" fill="black"/>
<path d="M224.99 0.0159912C229.334 0.0159912 232.43 3.13599 232.43 8.07999C232.43 13.024 229.334 16.144 224.99 16.144C220.67 16.144 217.55 13.024 217.55 8.07999C217.55 3.13599 220.67 0.0159912 224.99 0.0159912ZM224.99 14.224C228.062 14.224 230.222 11.848 230.222 8.07999C230.222 4.31199 228.062 1.93599 224.99 1.93599C221.942 1.93599 219.758 4.31199 219.758 8.07999C219.758 11.848 221.942 14.224 224.99 14.224Z" fill="black"/>
<path d="M209.115 14.152H217.011V16H206.931V0.160034H209.115V14.152Z" fill="black"/>
<path d="M197.937 0.0159912C202.377 0.0159912 203.913 3.30399 203.937 5.36799L201.873 5.70399C201.873 4.19199 200.817 1.93599 197.961 1.93599C195.225 1.93599 192.993 4.16799 192.993 8.07999C192.993 12.448 195.561 14.224 198.345 14.224C200.409 14.224 201.921 12.976 202.761 11.824L204.081 13.168C203.601 13.84 201.801 16.144 198.297 16.144C193.833 16.144 190.785 13.168 190.785 8.07999C190.785 3.20799 193.761 0.0159912 197.937 0.0159912Z" fill="black"/>
<path d="M182.926 2.00803H175.294V6.85603H182.086V8.70403H175.294V14.152H182.926V16H173.11V0.160034H182.926V2.00803Z" fill="black"/>
<path d="M159.18 0.160034L163.26 11.632C163.428 12.088 163.596 12.664 163.764 13.288H163.812C163.98 12.664 164.148 12.16 164.34 11.632L168.468 0.160034H170.724L164.82 16H162.684L156.876 0.160034H159.18Z" fill="black"/>
<path d="M152.274 16V0.160034H154.458V16H152.274Z" fill="black"/>
<path d="M142.65 16V2.00803H137.562V0.160034H149.922V2.00803H144.834V16H142.65Z" fill="black"/>
<path d="M136.129 16L134.665 12.064H128.017L126.553 16H124.297L130.249 0.160034H132.433L138.385 16H136.129ZM128.689 10.264H133.993L131.857 4.52803C131.689 4.07203 131.521 3.49603 131.353 2.87203H131.305C131.137 3.49603 130.969 4.07203 130.801 4.52803L128.689 10.264Z" fill="black"/>
<path d="M122.715 2.00803H115.083V6.85603H121.875V8.70403H115.083V14.152H122.715V16H112.899V0.160034H122.715V2.00803Z" fill="black"/>
<path d="M110.364 14.344L110.532 16.024C110.532 16.024 109.932 16.144 109.236 16.144C104.796 16.144 106.116 9.90403 101.988 9.90403H100.716V16H98.5322V0.160034H103.308C107.004 0.160034 109.116 1.64803 109.116 5.08003C109.116 7.28803 107.652 8.82403 105.564 9.52003C107.604 10.672 107.628 14.392 109.884 14.392C110.172 14.392 110.364 14.344 110.364 14.344ZM100.716 8.20003H102.996C105.228 8.20003 106.908 7.09603 106.908 5.08003C106.908 3.04003 105.612 2.00803 103.212 2.00803H100.716V8.20003Z" fill="black"/>
<path d="M89.539 0.0159912C93.979 0.0159912 95.515 3.30399 95.539 5.36799L93.475 5.70399C93.475 4.19199 92.419 1.93599 89.563 1.93599C86.827 1.93599 84.595 4.16799 84.595 8.07999C84.595 12.448 87.163 14.224 89.947 14.224C92.011 14.224 93.523 12.976 94.363 11.824L95.683 13.168C95.203 13.84 93.403 16.144 89.899 16.144C85.435 16.144 82.387 13.168 82.387 8.07999C82.387 3.20799 85.363 0.0159912 89.539 0.0159912Z" fill="black"/>
<path d="M74.5279 2.00803H66.8959V6.85603H73.6879V8.70403H66.8959V14.152H74.5279V16H64.7119V0.160034H74.5279V2.00803Z" fill="black"/>
<path d="M58.3184 7.67203C59.3984 7.88803 61.5824 8.87203 61.5824 11.68C61.5824 14.368 59.7104 16 56.2064 16H50.1104V0.160034H55.4384C58.7504 0.160034 60.7663 1.57603 60.7663 4.38403C60.7663 6.64003 59.2064 7.45603 58.3184 7.62403V7.67203ZM58.5583 4.50403C58.5583 2.84803 57.5264 2.00803 55.1504 2.00803H52.2943V7.00003H55.4624C57.5264 7.00003 58.5583 5.89603 58.5583 4.50403ZM55.9424 14.152C57.9104 14.152 59.3983 13.312 59.3983 11.464C59.3983 9.47203 57.7424 8.63203 55.6544 8.63203H52.2943V14.152H55.9424Z" fill="black"/>
<path d="M39.4825 0.0159912C43.8265 0.0159912 46.9225 3.13599 46.9225 8.07999C46.9225 13.024 43.8265 16.144 39.4825 16.144C35.1625 16.144 32.0425 13.024 32.0425 8.07999C32.0425 3.13599 35.1625 0.0159912 39.4825 0.0159912ZM39.4825 14.224C42.5545 14.224 44.7145 11.848 44.7145 8.07999C44.7145 4.31199 42.5545 1.93599 39.4825 1.93599C36.4345 1.93599 34.2505 4.31199 34.2505 8.07999C34.2505 11.848 36.4345 14.224 39.4825 14.224Z" fill="black"/>
<path d="M21.6057 0.160034C26.7897 0.160034 29.7177 3.11203 29.7177 8.08003C29.7177 13.6 26.7897 16 22.4217 16H16.8057V0.160034H21.6057ZM22.3977 14.152C25.3497 14.152 27.5097 12.328 27.5097 8.08003C27.5097 4.02403 25.3737 2.00803 21.5817 2.00803H18.9897V14.152H22.3977Z" fill="black"/>
<path d="M12.1679 16L10.7039 12.064H4.05594L2.59194 16H0.335938L6.28794 0.160034H8.47194L14.4239 16H12.1679ZM4.72794 10.264H10.0319L7.89594 4.52803C7.72794 4.07203 7.55994 3.49603 7.39194 2.87203H7.34394C7.17594 3.49603 7.00794 4.07203 6.83994 4.52803L4.72794 10.264Z" fill="black"/>
</svg>
