<svg width="74" height="17" viewBox="0 0 74 17" fill="none" xmlns="http://www.w3.org/2000/svg">
<path d="M71.1679 16L69.7039 12.064H63.0559L61.5919 16H59.3359L65.2879 0.160034H67.4719L73.4239 16H71.1679ZM63.7279 10.264H69.0319L66.8959 4.52803C66.7279 4.07203 66.5599 3.49603 66.3919 2.87203H66.3439C66.1759 3.49603 66.0079 4.07203 65.8399 4.52803L63.7279 10.264Z" fill="black"/>
<path d="M48.1412 0.160034L52.2212 11.632C52.3892 12.088 52.5572 12.664 52.7252 13.288H52.7732C52.9412 12.664 53.1092 12.16 53.3012 11.632L57.4292 0.160034H59.6852L53.7812 16H51.6452L45.8372 0.160034H48.1412Z" fill="black"/>
<path d="M43.4023 0.160034V16H41.0263L34.7383 6.06403C34.1143 5.05603 33.1783 3.40003 33.0583 3.13603L32.9383 3.20803C33.0103 3.42403 33.0823 4.76803 33.0823 6.04003L33.1303 16H30.9463V0.160034H33.3703L39.6583 10.192C40.6423 11.776 41.0743 12.688 41.2663 13.072L41.4103 13C41.3863 12.664 41.2663 11.488 41.2663 10.144L41.2183 0.160034H43.4023Z" fill="black"/>
<path d="M26.3086 16L24.8446 12.064H18.1966L16.7326 16H14.4766L20.4286 0.160034H22.6126L28.5646 16H26.3086ZM18.8686 10.264H24.1726L22.0366 4.52803C21.8686 4.07203 21.7006 3.49603 21.5326 2.87203H21.4846C21.3166 3.49603 21.1486 4.07203 20.9806 4.52803L18.8686 10.264Z" fill="black"/>
<path d="M7.32803 0.0159912C11.768 0.0159912 13.304 3.30399 13.328 5.36799L11.264 5.70399C11.264 4.19199 10.208 1.93599 7.35203 1.93599C4.61603 1.93599 2.38403 4.16799 2.38403 8.07999C2.38403 12.448 4.95202 14.224 7.73603 14.224C9.80003 14.224 11.312 12.976 12.152 11.824L13.472 13.168C12.992 13.84 11.192 16.144 7.68803 16.144C3.22403 16.144 0.176025 13.168 0.176025 8.07999C0.176025 3.20799 3.15203 0.0159912 7.32803 0.0159912Z" fill="black"/>
</svg>
