<svg width="68" height="17" viewBox="0 0 68 17" fill="none" xmlns="http://www.w3.org/2000/svg">
<path d="M64.8242 16L63.3602 12.064H56.7122L55.2482 16H52.9922L58.9442 0.160034H61.1282L67.0802 16H64.8242ZM57.3842 10.264H62.6882L60.5522 4.52803C60.3842 4.07203 60.2162 3.49603 60.0482 2.87203H60.0002C59.8322 3.49603 59.6642 4.07203 59.4962 4.52803L57.3842 10.264Z" fill="black"/>
<path d="M50.62 0.160034V16H48.436L48.484 6.25603C48.484 5.58403 48.556 4.31203 48.58 4.19203L48.484 4.16803C48.412 4.43203 48.076 5.56003 47.884 5.96803L43.3 16.048H41.956L37.204 5.80003C36.844 5.03203 36.7 4.28803 36.676 4.16803L36.58 4.19203C36.604 4.31203 36.676 5.58403 36.676 6.25603L36.724 16H34.54V0.160034H36.916L41.716 10.672C42.004 11.32 42.46 12.472 42.604 12.88H42.652C42.772 12.472 43.276 11.32 43.564 10.672L48.364 0.160034H50.62Z" fill="black"/>
<path d="M31.1311 8.17599V16H29.8111C29.7391 15.76 29.5711 14.872 29.4751 13.768C28.5871 15.4 26.8591 16.144 24.6991 16.144C20.5231 16.144 17.7151 12.928 17.7151 8.07999C17.7151 3.20799 20.6911 0.0159912 24.8431 0.0159912C29.2831 0.0159912 30.8431 3.08799 30.8431 5.12799L28.8271 5.46399C28.8271 3.95199 27.7231 1.93599 24.8671 1.93599C22.1551 1.93599 19.9231 4.14399 19.9231 8.07999C19.9231 11.752 21.8431 14.224 25.0111 14.224C27.8911 14.224 29.3311 12.4 29.3311 10.336V9.99999H24.2671V8.17599H31.1311Z" fill="black"/>
<path d="M12.3213 16V0.160034H14.5053V16H12.3213Z" fill="black"/>
<path d="M9.61604 2.00803H2.22404V7.04803H8.53604V8.94403H2.22404V16H0.0400391V0.160034H9.61604V2.00803Z" fill="black"/>
</svg>
