<svg width="255" height="44" viewBox="0 0 255 44" fill="none" xmlns="http://www.w3.org/2000/svg">
<path d="M247.717 42.936L233.125 24.824H228.389V43H222.565V0.76001H228.389V19.896H233.125L247.717 0.76001H253.925L237.285 22.392L254.117 42.936H247.717Z" fill="white"/>
<path d="M198.583 0.375977C210.423 0.375977 214.519 9.14397 214.583 14.648L209.079 15.544C209.079 11.512 206.263 5.49598 198.647 5.49598C191.351 5.49598 185.399 11.448 185.399 21.88C185.399 33.528 192.247 38.264 199.671 38.264C205.175 38.264 209.207 34.936 211.447 31.864L214.967 35.448C213.687 37.24 208.887 43.384 199.543 43.384C187.639 43.384 179.511 35.448 179.511 21.88C179.511 8.88797 187.447 0.375977 198.583 0.375977Z" fill="white"/>
<path d="M170.51 43L166.606 32.504H148.878L144.974 43H138.958L154.83 0.76001H160.654L176.526 43H170.51ZM150.67 27.704H164.814L159.118 12.408C158.67 11.192 158.222 9.65601 157.774 7.99201H157.646C157.198 9.65601 156.75 11.192 156.302 12.408L150.67 27.704Z" fill="white"/>
<path d="M127.203 20.792C130.083 21.368 135.907 23.992 135.907 31.48C135.907 38.648 130.915 43 121.571 43H105.315V0.76001H119.523C128.355 0.76001 133.731 4.53601 133.731 12.024C133.731 18.04 129.571 20.216 127.203 20.664V20.792ZM127.843 12.344C127.843 7.92801 125.091 5.68801 118.755 5.68801H111.139V19H119.587C125.091 19 127.843 16.056 127.843 12.344ZM120.867 38.072C126.115 38.072 130.083 35.832 130.083 30.904C130.083 25.592 125.667 23.352 120.099 23.352H111.139V38.072H120.867Z" fill="white"/>
<path d="M62.4743 0.375977C74.0583 0.375977 82.3143 8.69597 82.3143 21.88C82.3143 35.064 74.0583 43.384 62.4743 43.384C50.9543 43.384 42.6343 35.064 42.6343 21.88C42.6343 8.69597 50.9543 0.375977 62.4743 0.375977ZM62.4743 38.264C70.6663 38.264 76.4263 31.928 76.4263 21.88C76.4263 11.832 70.6663 5.49598 62.4743 5.49598C54.3463 5.49598 48.5223 11.832 48.5223 21.88C48.5223 31.928 54.3463 38.264 62.4743 38.264Z" fill="white"/>
<path d="M35.9117 22.136V43H32.3917C32.1997 42.36 31.7517 39.992 31.4957 37.048C29.1277 41.4 24.5197 43.384 18.7597 43.384C7.62374 43.384 0.135742 34.808 0.135742 21.88C0.135742 8.88797 8.07174 0.375977 19.1437 0.375977C30.9837 0.375977 35.1437 8.56797 35.1437 14.008L29.7677 14.904C29.7677 10.872 26.8237 5.49598 19.2077 5.49598C11.9757 5.49598 6.02374 11.384 6.02374 21.88C6.02374 31.672 11.1437 38.264 19.5917 38.264C27.2717 38.264 31.1117 33.4 31.1117 27.896V27H17.6077V22.136H35.9117Z" fill="white"/>
</svg>
