<svg width="255" height="44" viewBox="0 0 255 44" fill="none" xmlns="http://www.w3.org/2000/svg">
<path d="M247.718 42.9358L233.126 24.8238H228.39V42.9998H222.566V0.759766H228.39V19.8958H233.126L247.718 0.759766H253.926L237.286 22.3918L254.118 42.9358H247.718Z" fill="white"/>
<path d="M198.584 0.375977C210.424 0.375977 214.52 9.14397 214.584 14.648L209.08 15.544C209.08 11.512 206.264 5.49598 198.648 5.49598C191.352 5.49598 185.4 11.448 185.4 21.88C185.4 33.528 192.248 38.264 199.672 38.264C205.176 38.264 209.208 34.936 211.448 31.864L214.968 35.448C213.688 37.24 208.888 43.384 199.544 43.384C187.64 43.384 179.512 35.448 179.512 21.88C179.512 8.88797 187.448 0.375977 198.584 0.375977Z" fill="white"/>
<path d="M170.511 42.9998L166.607 32.5038H148.879L144.975 42.9998H138.959L154.831 0.759766H160.655L176.527 42.9998H170.511ZM150.671 27.7038H164.815L159.119 12.4078C158.671 11.1918 158.223 9.65577 157.775 7.99176H157.647C157.199 9.65577 156.751 11.1918 156.303 12.4078L150.671 27.7038Z" fill="white"/>
<path d="M127.204 20.7918C130.084 21.3678 135.908 23.9918 135.908 31.4798C135.908 38.6478 130.916 42.9998 121.572 42.9998H105.316V0.759766H119.524C128.356 0.759766 133.732 4.53577 133.732 12.0238C133.732 18.0398 129.572 20.2158 127.204 20.6638V20.7918ZM127.844 12.3438C127.844 7.92776 125.092 5.68777 118.756 5.68777H111.14V18.9998H119.588C125.092 18.9998 127.844 16.0558 127.844 12.3438ZM120.868 38.0718C126.116 38.0718 130.084 35.8318 130.084 30.9038C130.084 25.5918 125.668 23.3518 120.1 23.3518H111.14V38.0718H120.868Z" fill="white"/>
<path d="M62.4748 0.375977C74.0588 0.375977 82.3148 8.69597 82.3148 21.88C82.3148 35.064 74.0588 43.384 62.4748 43.384C50.9548 43.384 42.6348 35.064 42.6348 21.88C42.6348 8.69597 50.9548 0.375977 62.4748 0.375977ZM62.4748 38.264C70.6668 38.264 76.4268 31.928 76.4268 21.88C76.4268 11.832 70.6668 5.49598 62.4748 5.49598C54.3468 5.49598 48.5228 11.832 48.5228 21.88C48.5228 31.928 54.3468 38.264 62.4748 38.264Z" fill="white"/>
<path d="M35.9127 22.136V43H32.3927C32.2007 42.36 31.7527 39.992 31.4967 37.048C29.1287 41.4 24.5207 43.384 18.7607 43.384C7.62472 43.384 0.136719 34.808 0.136719 21.88C0.136719 8.88797 8.07272 0.375977 19.1447 0.375977C30.9847 0.375977 35.1447 8.56797 35.1447 14.008L29.7687 14.904C29.7687 10.872 26.8247 5.49598 19.2087 5.49598C11.9767 5.49598 6.02472 11.384 6.02472 21.88C6.02472 31.672 11.1447 38.264 19.5927 38.264C27.2727 38.264 31.1127 33.4 31.1127 27.896V27H17.6087V22.136H35.9127Z" fill="white"/>
</svg>
