<svg width="64" height="38" viewBox="0 0 64 38" fill="none" xmlns="http://www.w3.org/2000/svg">
<path d="M32 0C13.76 0 0 6.80505 0 15.8257C0 23.5803 10.208 29.689 24.672 31.2716L23.328 32.5693C23.0281 32.8635 22.79 33.2136 22.6275 33.5993C22.4651 33.985 22.3814 34.3987 22.3814 34.8165C22.3814 35.2343 22.4651 35.648 22.6275 36.0337C22.79 36.4194 23.0281 36.7695 23.328 37.0638C23.6255 37.3604 23.9794 37.5959 24.3694 37.7566C24.7593 37.9173 25.1776 38 25.6 38C26.0224 38 26.4407 37.9173 26.8306 37.7566C27.2206 37.5959 27.5745 37.3604 27.872 37.0638L34.272 30.7335C34.5633 30.4325 34.7917 30.0775 34.944 29.689C35.2641 28.9184 35.2641 28.0541 34.944 27.2835C34.7917 26.895 34.5633 26.54 34.272 26.239L27.872 19.9087C27.2694 19.3127 26.4522 18.9779 25.6 18.9779C24.7478 18.9779 23.9306 19.3127 23.328 19.9087C22.7254 20.5047 22.3869 21.3131 22.3869 22.156C22.3869 22.9988 22.7254 23.8072 23.328 24.4032L23.712 24.7514C12.8 23.2321 6.4 18.9908 6.4 15.8257C6.4 11.9642 16.384 6.33027 32 6.33027C47.616 6.33027 57.6 11.9642 57.6 15.8257C57.6 18.4528 52.96 22.156 44.128 24.055C43.71 24.1343 43.3121 24.2952 42.9577 24.5284C42.6033 24.7615 42.2995 25.0623 42.0641 25.4131C41.8287 25.7638 41.6664 26.1575 41.5867 26.5711C41.507 26.9846 41.5115 27.4097 41.6 27.8216C41.6874 28.2293 41.8553 28.6161 42.0942 28.9595C42.3331 29.3029 42.6382 29.5962 42.9921 29.8227C43.3459 30.0491 43.7415 30.2042 44.1561 30.2791C44.5707 30.3539 44.9961 30.347 45.408 30.2587C57.088 27.7266 64 22.3459 64 15.8257C64 6.80505 50.24 0 32 0Z" fill="black"/>
</svg>
