<svg width="440" height="543" viewBox="0 0 440 543" fill="none" xmlns="http://www.w3.org/2000/svg">
<g clip-path="url(#clip0_328_359)">
<path d="M179.733 364.787C180.009 404.236 100.216 459.52 57.3292 434.712C17.4396 411.621 19.823 325.202 52.7624 296.809C64.7049 286.515 79.3718 284.978 81.0086 274.166C83.1379 260.325 60.7638 252.132 39.2561 227.911C34.1813 222.204 -5.22843 177.863 7.29346 146.091C18.4862 117.697 69.7477 102.85 103.543 117.677C140.916 134.042 146.563 182.074 166.817 179.788C178.989 178.382 178.866 160.799 199.273 139.559C214.355 123.836 247.597 98.8641 273.751 108.074C307.343 119.919 321.175 185.245 299.496 211.043C280.789 233.319 240.49 220.342 229.938 244.167C226.151 252.729 226.872 264.54 232.441 272.664C250.369 298.689 305.301 267.476 332.84 292.508C354.705 312.38 354.095 362.943 329.983 383.814C298.508 411.039 231.189 384.025 216.671 349.541C211.092 336.317 214.717 325.37 204.408 315.456C189.696 301.334 159.812 302.088 154.255 312.629C147.798 324.853 179.492 340.068 179.681 364.821L179.733 364.787Z" stroke="url(#paint0_linear_328_359)" stroke-miterlimit="10"/>
<path d="M179.487 363.213C179.764 401.994 101.323 456.364 59.1925 431.958C19.9744 409.251 22.312 324.302 54.6924 296.385C66.4393 286.267 80.8321 284.763 82.4721 274.112C84.5635 260.504 62.5903 252.446 41.4182 228.639C36.4358 223.049 -2.30956 179.438 9.99597 148.211C20.9758 120.301 71.394 105.703 104.635 120.276C141.366 136.37 146.935 183.593 166.83 181.323C178.789 179.955 178.686 162.671 198.74 141.769C213.572 126.317 246.244 101.783 271.949 110.832C304.959 122.47 318.569 186.683 297.261 212.055C278.872 233.941 239.266 221.201 228.886 244.615C225.157 253.019 225.85 264.656 231.355 272.615C248.975 298.177 302.96 267.505 330.041 292.114C351.528 311.644 350.929 361.354 327.223 381.851C296.269 408.611 230.087 382.057 215.847 348.145C210.367 335.137 213.919 324.372 203.785 314.654C189.319 300.768 159.957 301.502 154.495 311.875C148.148 323.907 179.301 338.845 179.477 363.176L179.487 363.213Z" stroke="url(#paint1_linear_328_359)" stroke-miterlimit="10"/>
<path d="M179.255 361.616C179.533 399.729 102.456 453.161 61.0078 429.177C22.4851 406.868 24.753 323.375 56.5983 295.948C68.1498 286.004 82.306 284.525 83.8979 274.069C85.9514 260.694 64.3414 252.78 43.5665 229.392C38.6664 223.88 0.595547 181.038 12.6847 150.355C23.4894 122.918 73.0265 108.58 105.674 122.909C141.765 138.731 147.232 185.132 166.791 182.893C178.551 181.538 178.431 164.562 198.155 144.014C212.737 128.832 244.854 104.712 270.11 113.599C302.537 125.032 315.925 188.13 294.988 213.078C276.904 234.598 237.98 222.057 227.796 245.073C224.135 253.358 224.829 264.772 230.217 272.601C247.539 297.737 300.592 267.582 327.213 291.769C348.348 310.97 347.76 359.826 324.444 379.974C294.036 406.282 229.006 380.164 214.991 346.859C209.61 334.067 213.114 323.497 203.145 313.937C188.926 300.288 160.07 301.025 154.694 311.193C148.471 323.009 179.069 337.693 179.255 361.616Z" stroke="url(#paint2_linear_328_359)" stroke-miterlimit="10"/>
<path d="M179.047 360.033C179.326 397.477 103.59 449.957 62.8848 426.399C25.0198 404.498 27.2934 322.442 58.5419 295.5C69.8739 285.718 83.7936 284.262 85.3613 274.015C87.377 260.873 66.1679 253.093 45.7285 230.12C40.9208 224.725 3.5143 182.613 15.4008 152.452C26.0166 125.511 74.6727 111.433 106.779 125.484C142.243 141.011 147.618 186.627 166.841 184.418C178.389 183.101 178.279 166.385 197.646 146.238C211.954 131.313 243.501 107.631 268.332 116.371C300.215 127.587 313.353 189.619 292.776 214.105C275.012 235.234 236.779 222.93 226.767 245.535C223.165 253.662 223.845 264.877 229.141 272.589C246.141 297.287 298.285 267.662 324.423 291.414C345.182 310.271 344.605 358.275 321.718 378.063C291.844 403.881 227.962 378.261 214.162 345.525C208.867 332.974 212.313 322.561 202.532 313.172C188.559 299.76 160.225 300.477 154.945 310.477C148.832 322.101 178.888 336.507 179.061 360.009L179.047 360.033Z" stroke="url(#paint3_linear_328_359)" stroke-miterlimit="10"/>
<path d="M178.802 358.459C179.057 395.221 104.71 446.777 64.7241 423.631C27.5305 402.115 29.7584 321.529 60.4719 295.077C71.5946 285.493 85.2538 284.047 86.8249 273.962C88.8026 261.053 67.9567 253.417 47.8906 230.848C43.1651 225.532 6.43314 184.189 18.1033 154.572C28.5439 128.104 76.3189 114.286 107.833 128.093C142.656 143.349 147.929 188.142 166.802 185.988C178.151 184.684 178.048 168.291 197.061 148.482C211.119 133.828 242.111 110.561 266.493 119.139C297.793 130.149 310.709 191.067 290.503 215.128C273.068 235.904 235.517 223.799 225.677 245.994C222.157 253.977 222.799 264.979 228.017 272.551C244.733 296.799 295.93 267.715 321.61 291.045C341.991 309.559 341.425 356.709 318.929 376.148C289.601 401.514 226.832 376.341 213.31 344.178C208.114 331.842 211.498 321.648 201.881 312.417C188.155 299.242 160.328 299.963 155.145 309.795C149.131 321.19 178.68 335.369 178.84 358.449L178.802 358.459Z" stroke="url(#paint4_linear_328_359)" stroke-miterlimit="10"/>
<path d="M178.57 356.862C178.826 392.956 105.806 443.584 66.5636 420.863C30.0415 399.731 32.2476 320.629 62.378 294.64C73.3052 285.23 86.728 283.809 88.2509 273.918C90.1907 261.242 69.7457 253.74 50.0391 231.601C45.406 226.401 9.33838 185.788 20.7922 156.716C31.0199 130.731 77.9516 117.163 108.886 130.702C143.069 145.687 148.277 189.647 166.777 187.533C177.913 186.267 177.806 170.159 196.491 150.703C210.298 136.319 240.734 113.466 264.654 121.906C295.395 132.724 308.066 192.515 288.23 216.151C271.114 236.537 234.232 224.655 224.586 246.452C221.125 254.277 221.778 265.095 226.879 272.536C243.297 296.359 293.538 267.778 318.759 290.687C338.787 308.871 338.208 355.154 316.141 374.233C287.335 399.134 225.727 374.434 212.444 342.854C207.347 330.734 210.659 320.722 201.231 311.663C187.775 298.738 160.421 299.411 155.334 309.076C149.43 320.279 178.438 334.179 178.584 356.838L178.57 356.862Z" stroke="url(#paint5_linear_328_359)" stroke-miterlimit="10"/>
<path d="M178.363 355.278C178.605 390.728 106.939 440.38 68.4405 418.085C32.6139 397.351 34.7502 319.706 64.3319 294.23C75.0636 284.995 88.2121 283.608 89.7006 273.889C91.6026 261.445 71.5207 254.088 52.2011 232.329C47.6503 227.208 12.2572 187.364 23.4946 158.837C33.5334 133.349 79.5738 120.002 109.964 133.325C143.544 148.028 148.612 191.176 166.799 189.107C177.737 187.854 177.613 172.054 195.93 152.961C209.487 138.848 239.33 116.419 262.838 124.688C292.998 135.3 305.432 194 285.957 217.174C269.146 237.193 232.97 225.524 223.482 246.934C220.066 254.626 220.705 265.245 225.741 272.522C241.851 295.882 291.17 267.855 315.931 290.341C335.57 308.207 335.015 353.612 313.363 372.356C285.102 396.805 224.622 372.528 211.588 341.568C206.577 329.688 209.83 319.834 200.577 310.97C187.368 298.281 160.521 298.959 155.543 308.432C149.749 319.442 178.216 333.065 178.373 355.316L178.363 355.278Z" stroke="url(#paint6_linear_328_359)" stroke-miterlimit="10"/>
<path d="M178.117 353.705C178.359 388.486 108.059 437.201 70.266 415.341C35.1107 394.992 37.2014 318.817 66.224 293.817C76.7362 284.743 89.6722 283.393 91.1125 273.869C92.9766 261.659 73.2819 254.459 54.3356 233.105C49.8532 228.087 15.1484 188.987 26.1695 161.005C36.0331 135.99 81.1925 122.903 111.003 135.958C143.943 150.39 148.909 192.715 166.76 190.676C177.485 189.461 177.381 173.959 195.346 155.206C208.628 141.349 237.939 119.349 260.985 127.48C290.586 137.899 302.775 195.471 283.67 218.221C267.178 237.85 231.67 226.404 222.378 247.417C219.044 254.965 219.67 265.384 224.589 272.531C240.402 295.466 288.787 267.956 313.066 290.007C332.328 307.529 331.784 352.081 310.561 370.466C282.821 394.448 223.502 370.645 210.708 340.268C205.796 328.605 208.988 318.969 199.912 310.239C186.95 297.788 160.624 298.445 155.718 307.736C150.024 318.517 177.96 331.9 178.103 353.729L178.117 353.705Z" stroke="url(#paint7_linear_328_359)" stroke-miterlimit="10"/>
<path d="M177.885 352.108C178.128 386.22 109.169 433.983 72.119 412.549C37.6353 392.584 39.7041 317.893 68.1677 293.37C78.4844 284.47 91.1462 283.154 92.5898 273.792C94.44 261.828 75.0983 254.735 56.5114 233.81C52.1352 228.884 18.0673 190.563 28.8857 163.101C38.5365 138.569 82.8525 125.732 112.071 138.543C144.369 152.704 149.257 194.22 166.735 192.222C177.261 191.021 177.154 175.803 194.775 157.426C207.807 143.84 236.549 122.278 259.16 130.224C288.178 140.437 300.169 196.909 281.41 219.22C265.238 238.458 230.421 227.25 221.302 247.851C218.026 255.241 218.638 265.462 223.479 272.468C238.969 294.964 286.447 267.985 310.266 289.614C329.151 306.793 328.643 350.506 307.786 368.527C280.592 392.058 222.41 368.715 209.87 338.897C205.043 327.473 208.176 317.995 199.276 309.461C186.56 297.246 160.741 297.907 155.932 307.03C150.347 317.62 177.741 330.724 177.895 352.145L177.885 352.108Z" stroke="url(#paint8_linear_328_359)" stroke-miterlimit="10"/>
<path d="M177.64 350.534C177.859 383.965 110.275 430.828 73.9583 409.782C40.17 390.215 42.1691 316.98 70.0736 292.932C80.1949 284.208 92.6201 282.915 94.0156 273.748C95.8279 262.018 76.8733 255.083 58.6357 234.548C54.3417 229.702 20.9484 192.149 31.5642 165.208C41.0398 141.148 84.4747 128.571 113.138 141.128C144.796 155.017 149.582 195.711 166.747 193.757C177.061 192.594 176.974 177.674 194.228 159.66C207.009 146.345 235.172 125.183 257.344 133.005C285.804 143.026 297.536 198.394 279.161 220.256C263.294 239.128 229.183 228.133 220.235 248.323C217.028 255.594 217.617 265.578 222.365 272.467C237.571 294.514 284.102 268.076 307.439 289.269C325.971 306.119 325.45 348.964 305.022 366.626C278.349 389.691 221.305 366.808 209.004 337.573C204.276 326.365 207.361 317.083 198.625 308.706C186.156 296.728 160.858 297.369 156.145 306.324C150.683 316.698 177.523 329.548 177.664 350.548L177.64 350.534Z" stroke="url(#paint9_linear_328_359)" stroke-miterlimit="10"/>
<path d="M177.432 348.95C177.652 381.713 111.409 427.624 75.7977 407.014C42.6808 387.831 44.6582 316.081 72.0037 292.509C81.9294 283.959 94.0942 282.677 95.4655 273.719C97.2399 262.221 78.6622 255.406 60.8082 235.314C56.6066 230.584 23.8776 193.762 34.2771 167.366C43.5637 143.803 86.1314 131.461 114.202 143.775C145.233 157.369 149.927 197.277 166.733 195.341C176.848 194.191 176.743 179.58 193.668 161.918C206.199 148.874 233.806 128.126 255.529 135.787C283.406 145.601 294.916 199.856 276.912 221.293C261.388 239.788 227.922 229.003 219.169 248.795C216.021 255.908 216.619 265.707 221.251 272.466C236.136 294.074 281.734 268.152 304.636 288.937C322.791 305.445 322.281 347.436 302.268 364.763C276.14 387.376 220.247 364.929 208.172 336.301C203.544 325.309 206.557 316.208 198.009 308.003C185.786 296.261 160.995 296.906 156.368 305.656C150.993 315.824 177.325 328.448 177.466 349.002L177.432 348.95Z" stroke="url(#paint10_linear_328_359)" stroke-miterlimit="10"/>
<path d="M177.2 347.353C177.421 379.447 112.542 424.42 77.6508 404.222C45.1916 385.448 47.137 315.144 73.9234 292.048C83.6536 283.672 95.5682 282.438 96.9188 273.627C98.6553 262.363 80.4648 255.706 62.96 236.005C58.8407 231.354 26.7622 195.286 36.9693 169.448C46.0568 146.345 87.7674 134.277 115.283 146.336C145.673 159.659 150.278 198.721 166.735 196.839C176.651 195.702 176.529 181.399 193.125 164.091C205.381 151.303 232.443 131.007 253.717 138.507C281.036 148.129 292.3 201.255 274.666 222.268C259.448 240.397 226.687 229.824 218.106 249.206C215.016 256.161 215.588 265.785 220.154 272.38C234.755 293.539 279.407 268.157 301.826 288.507C319.604 304.671 319.105 345.809 299.497 362.762C273.89 384.91 219.135 362.923 207.337 334.868C202.794 324.116 205.759 315.21 197.375 307.163C185.399 295.658 161.129 296.283 156.598 304.865C151.346 314.817 177.124 327.186 177.252 347.319L177.2 347.353Z" stroke="url(#paint11_linear_328_359)" stroke-miterlimit="10"/>
<path d="M176.955 345.78C177.176 377.206 113.638 421.227 79.4763 401.478C47.7126 383.102 49.5882 314.255 75.8396 291.648C85.3366 283.458 97.0283 282.223 98.3548 273.622C100.04 262.614 82.2398 256.054 65.0946 236.781C61.0677 232.247 29.6536 196.909 39.6442 171.617C48.5428 149.01 89.3861 137.178 116.309 148.993C146.058 162.044 150.586 200.298 166.706 198.446C176.41 197.347 176.308 183.343 192.537 166.397C204.543 153.88 231.025 133.985 251.85 141.322C278.587 150.738 289.615 202.775 272.365 223.339C257.466 241.077 225.374 230.728 216.989 249.712C213.981 256.523 214.539 265.949 218.989 272.413C233.268 293.133 277.011 268.282 298.947 288.196C316.373 304.031 315.86 344.302 296.667 360.919C271.62 382.591 217.988 361.089 206.43 333.616C201.986 323.08 204.879 314.356 196.684 306.48C184.978 295.226 161.167 295.827 156.746 304.217C151.604 313.977 176.84 326.069 176.979 345.794L176.955 345.78Z" stroke="url(#paint12_linear_328_359)" stroke-miterlimit="10"/>
<path d="M176.747 344.196C176.969 374.954 114.782 418.061 81.3532 398.7C50.261 380.709 52.1148 313.345 77.7832 291.201C87.0847 283.185 98.5022 281.984 99.7943 273.554C101.441 262.78 84.0286 256.377 67.2566 237.51C63.3119 233.054 32.5723 198.485 42.3466 173.737C51.07 151.603 91.0323 140.03 117.376 151.578C146.498 164.334 150.91 201.789 166.681 199.992C176.162 198.892 176.08 185.186 191.966 168.618C203.721 156.371 229.634 136.914 250.011 144.09C276.189 153.314 286.995 204.236 270.068 224.348C255.474 241.72 224.088 231.584 215.874 250.157C212.911 256.834 213.469 266.037 217.841 272.361C231.822 292.655 274.632 268.321 296.109 287.813C313.158 303.305 312.681 342.736 293.893 358.981C269.366 380.187 216.873 359.145 205.577 332.268C201.233 321.948 204.054 313.406 196.009 305.712C184.536 294.718 161.26 295.275 156.921 303.521C151.903 313.066 176.584 324.903 176.733 344.22L176.747 344.196Z" stroke="url(#paint13_linear_328_359)" stroke-miterlimit="10"/>
<path d="M176.501 342.623C176.724 372.712 115.878 414.867 83.1928 395.932C52.772 378.325 54.5801 312.432 79.7134 290.778C88.8194 282.936 100 281.759 101.258 273.501C102.867 262.959 85.8176 256.701 69.4189 238.238C65.5666 233.899 35.4914 200.061 45.0494 175.857C53.5839 154.22 92.665 142.907 118.454 154.201C146.935 166.686 151.245 203.318 166.68 201.551C175.948 200.489 175.863 187.068 191.419 170.852C202.924 158.876 228.282 139.833 248.21 146.848C273.805 155.865 284.376 205.698 267.833 225.361C253.558 242.342 222.864 232.443 214.808 250.629C211.927 257.163 212.472 266.167 216.727 272.36C230.4 292.192 272.264 268.398 293.269 287.492C309.941 302.641 309.474 341.219 291.077 357.114C267.096 377.868 215.754 357.262 204.698 330.969C200.439 320.889 203.211 312.542 195.345 304.982C184.119 294.224 161.35 294.785 157.097 302.826C152.164 312.165 176.328 323.738 176.478 342.609L176.501 342.623Z" stroke="url(#paint14_linear_328_359)" stroke-miterlimit="10"/>
<path d="M176.27 341.026C176.469 370.433 117.012 411.664 85.032 393.164C55.2827 375.942 57.0828 311.509 81.6193 290.34C90.5298 282.674 101.45 281.507 102.684 273.457C104.255 263.149 87.6064 257.024 71.5432 238.977C67.7732 234.717 38.3725 201.646 47.7141 177.988C56.0495 156.81 94.2736 145.771 119.483 156.796C147.324 169.01 151.555 204.833 166.654 203.097C175.724 202.049 175.646 188.949 190.835 173.096C202.065 161.377 226.854 142.773 246.357 149.64C271.393 158.465 281.718 207.169 265.546 226.408C251.59 242.999 221.564 233.323 213.704 251.111C210.882 257.487 211.413 266.293 215.575 272.369C228.95 291.776 269.882 268.499 290.428 287.171C306.723 301.977 306.281 339.678 288.299 355.237C264.839 375.525 214.658 355.393 203.818 329.669C199.658 319.805 202.359 311.64 194.68 304.251C183.701 293.73 161.44 294.295 157.296 302.144C152.487 311.267 176.12 322.6 176.256 341.05L176.27 341.026Z" stroke="url(#paint15_linear_328_359)" stroke-miterlimit="10"/>
<path d="M176.062 339.442C176.261 368.181 118.145 408.46 86.9091 390.386C57.8551 373.562 59.5855 310.585 83.587 289.907C92.278 282.401 102.972 281.296 104.171 273.417C105.705 263.342 89.4192 257.362 73.7533 239.732C70.0517 235.575 41.3393 203.249 50.4783 180.112C58.6247 159.431 95.9815 148.627 120.598 159.409C147.812 171.327 151.941 206.327 166.691 204.646C175.548 203.635 175.466 190.82 190.326 175.32C201.306 163.871 225.538 145.681 244.593 152.387C269.047 161.006 279.15 208.596 263.348 227.41C249.722 243.648 220.377 234.172 212.689 251.549C209.912 257.792 210.429 266.398 214.527 272.31C227.58 291.278 267.603 268.532 287.665 286.768C303.608 301.244 303.153 338.078 285.586 353.302C262.648 373.124 213.604 353.453 203.027 328.325C198.967 318.677 201.619 310.707 194.092 303.5C183.358 293.216 161.618 293.761 157.571 301.441C152.872 310.373 175.963 321.428 176.086 339.456L176.062 339.442Z" stroke="url(#paint16_linear_328_359)" stroke-miterlimit="10"/>
<path d="M175.816 337.869C176.016 365.939 119.251 405.304 88.7345 387.642C60.352 371.202 62.0366 309.696 85.4653 289.518C93.9608 282.186 104.395 281.091 105.583 273.398C107.079 263.556 91.1942 257.709 75.8775 240.471C72.2821 236.407 44.2203 204.835 53.1429 182.242C61.1142 162.034 97.5659 151.476 121.652 162.018C148.249 173.679 152.276 207.856 166.665 206.192C175.324 205.195 175.248 192.702 189.755 177.541C200.498 166.338 224.162 148.587 242.753 155.155C266.649 163.581 276.492 210.068 261.075 228.433C247.767 244.281 219.091 235.028 211.575 251.994C208.88 258.092 209.383 266.5 213.365 272.282C226.134 290.8 265.21 268.595 284.814 286.409C300.38 300.542 299.936 336.523 282.774 351.373C260.381 370.744 212.475 351.532 202.137 326.987C198.162 317.58 200.742 309.791 193.417 302.732C182.93 292.684 161.697 293.233 157.736 300.708C153.136 309.41 175.697 320.224 175.83 337.845L175.816 337.869Z" stroke="url(#paint17_linear_328_359)" stroke-miterlimit="10"/>
<path d="M175.584 336.271C175.785 363.673 120.361 402.087 90.5875 384.851C62.8627 368.819 64.5393 308.773 87.4089 289.07C95.709 281.914 105.893 280.866 107.047 273.344C108.504 263.735 92.9829 258.033 78.0395 241.199C74.5125 237.238 47.1253 206.434 55.8453 184.362C63.6037 164.637 99.2121 154.329 122.705 164.627C148.662 176.016 152.587 209.371 166.65 207.775C175.096 206.816 175.031 194.583 189.181 179.823C199.674 168.891 222.744 151.564 240.924 157.96C264.237 166.181 273.859 211.553 258.812 229.494C245.81 244.975 217.826 235.959 210.495 252.49C207.858 258.431 208.348 266.64 212.251 272.281C224.698 290.36 262.842 268.672 281.987 286.064C297.176 299.854 296.743 334.981 280.009 349.472C258.138 368.377 211.383 349.602 201.309 325.653C197.433 316.462 199.941 308.855 192.79 301.991C182.574 292.194 161.814 292.695 157.959 300.04C153.469 308.55 175.489 319.086 175.608 336.285L175.584 336.271Z" stroke="url(#paint18_linear_328_359)" stroke-miterlimit="10"/>
<path d="M175.353 334.674C175.554 361.408 121.471 398.87 92.4166 382.045C65.3873 366.412 66.9941 307.822 89.3047 288.595C97.4092 281.613 107.332 280.576 108.438 273.249C109.882 263.887 94.7376 258.305 80.1537 241.9C76.7329 238.031 49.9963 207.983 58.4999 186.455C66.0693 167.227 100.81 157.155 123.749 167.198C149.078 178.293 152.911 210.863 166.615 209.283C174.862 208.337 174.779 196.413 188.6 182.006C198.818 171.331 221.357 154.431 239.075 160.69C261.829 168.719 271.229 212.977 256.529 230.479C243.845 245.57 216.553 236.791 209.394 252.911C206.84 258.708 207.316 266.718 211.103 272.229C223.266 289.859 260.463 268.711 279.149 285.681C293.972 299.166 293.564 333.416 277.221 347.558C255.895 366.01 210.277 347.695 200.443 324.33C196.666 315.354 199.126 307.943 192.14 301.236C182.17 291.676 161.918 292.181 158.148 299.32C153.782 307.615 175.246 317.897 175.377 334.688L175.353 334.674Z" stroke="url(#paint19_linear_328_359)" stroke-miterlimit="10"/>
<path d="M175.131 333.114C175.309 359.166 122.614 395.703 94.2661 379.315C67.9082 364.066 69.4933 306.96 91.2449 288.209C99.1402 281.426 108.803 280.399 109.912 273.233C111.318 264.104 96.5366 258.666 82.326 242.666C78.9736 238.9 52.9254 209.596 61.2126 188.613C68.6069 169.858 102.467 160.045 124.812 169.845C149.501 180.668 153.232 212.415 166.6 210.867C174.634 209.958 174.572 198.332 188.039 184.264C198.007 173.859 219.976 157.398 237.259 163.472C259.445 171.27 268.596 214.462 254.279 231.516C241.915 246.216 215.291 237.66 208.328 253.383C205.818 259.046 206.295 266.834 210.002 272.204C221.844 289.395 258.132 268.778 276.335 285.312C290.782 298.454 290.384 331.85 274.446 345.619C253.641 363.606 209.162 345.751 199.59 322.982C195.899 314.246 198.301 306.992 191.489 300.482C181.766 291.158 162.034 291.643 158.362 298.614C154.105 306.717 175.052 316.735 175.145 333.09L175.131 333.114Z" stroke="url(#paint20_linear_328_359)" stroke-miterlimit="10"/>
<path d="M174.899 331.517C175.078 356.9 123.71 392.51 96.1192 376.523C70.4328 361.658 71.9722 306.023 93.1647 287.748C100.84 281.126 110.291 280.136 111.352 273.166C112.72 264.27 98.3255 258.99 84.4882 243.395C81.242 239.721 55.8443 211.171 63.9151 190.734C71.0965 172.461 104.113 162.898 125.88 172.43C149.928 182.982 153.57 213.883 166.612 212.402C174.448 211.507 174.368 200.19 187.492 186.498C197.21 176.364 218.6 160.304 235.444 166.254C257.071 173.859 265.976 215.924 252.006 232.539C239.971 246.886 214.03 238.53 207.224 253.865C204.773 259.371 205.246 266.997 208.851 272.213C220.394 288.979 255.75 268.879 273.471 284.978C287.54 297.776 287.154 330.319 271.631 343.752C251.371 361.287 208.029 343.893 198.687 321.669C195.095 313.149 197.434 306.114 190.801 299.737C181.325 290.651 162.1 291.139 158.537 297.919C154.38 305.792 174.796 315.569 174.899 331.517Z" stroke="url(#paint21_linear_328_359)" stroke-miterlimit="10"/>
<path d="M174.654 329.944C174.833 354.658 124.83 389.33 97.9447 373.779C72.9538 359.313 74.4234 305.134 95.0808 287.349C102.561 280.901 111.751 279.922 112.788 273.16C114.118 264.497 100.101 259.338 86.6227 244.171C83.445 240.6 58.7356 212.795 66.5901 192.902C73.5963 175.102 105.732 165.799 126.93 175.101C150.351 185.357 153.901 215.473 166.584 214.01C174.221 213.128 174.123 202.119 186.918 188.78C196.386 178.917 217.206 163.295 233.615 169.059C254.66 176.459 263.342 217.409 249.743 233.599C238.028 247.556 212.754 239.423 206.144 254.361C203.775 259.723 204.211 267.137 207.723 272.236C218.959 288.539 253.368 268.979 270.653 284.67C284.346 297.126 283.971 328.815 268.876 341.889C249.152 358.934 206.971 342.013 197.855 320.397C194.362 312.093 196.63 305.24 190.184 299.034C180.955 290.184 162.251 290.652 158.76 297.251C154.713 304.932 174.574 314.455 174.678 329.957L174.654 329.944Z" stroke="url(#paint22_linear_328_359)" stroke-miterlimit="10"/>
<path d="M174.446 328.36C174.612 352.43 125.964 386.127 99.8217 371.001C75.5022 356.919 76.9501 304.224 97.0245 286.901C104.309 280.628 113.249 279.697 114.251 273.107C115.543 264.676 101.913 259.675 88.7848 244.899C85.6893 241.408 61.6544 214.37 69.3063 194.998C76.1236 177.695 107.392 168.628 128.011 177.662C150.791 187.647 154.239 216.94 166.572 215.531C173.997 214.687 173.933 203.953 186.347 191.001C195.564 181.408 215.829 166.2 231.752 171.813C252.238 179.02 260.661 218.867 247.446 234.608C236.036 248.199 211.468 240.279 205.03 254.806C202.705 260.034 203.141 267.225 206.551 272.17C217.489 288.048 250.966 269.005 267.768 284.26C281.108 296.387 280.719 327.209 266.016 339.933C246.837 356.526 205.77 340.052 196.917 319.032C193.509 310.968 195.743 304.286 189.448 298.263C180.465 289.649 162.269 290.121 158.874 296.552C154.95 304.017 174.256 313.286 174.371 328.38L174.446 328.36Z" stroke="url(#paint23_linear_328_359)" stroke-miterlimit="10"/>
<path d="M174.215 326.763C174.381 350.165 127.098 382.923 101.675 368.209C78.0269 354.512 79.429 303.287 98.9684 286.454C106.058 280.356 114.737 279.434 115.729 273.029C116.983 264.832 103.73 259.951 90.9848 245.617C87.9817 242.242 64.6112 215.936 72.0467 197.108C78.6888 180.278 109.076 171.471 129.102 180.261C151.242 189.975 154.612 218.459 166.609 217.081C173.834 216.25 173.754 205.824 185.839 193.225C194.781 183.889 214.49 169.095 229.988 174.56C249.892 181.562 258.117 220.308 245.249 235.611C234.157 248.811 210.281 241.128 204.015 255.244C201.773 260.328 202.196 267.32 205.489 272.135C216.118 287.55 248.673 269.061 265.016 283.895C277.979 295.678 277.626 325.66 263.327 338.011C244.669 354.139 204.764 338.139 196.164 317.677C192.856 309.829 195.003 303.353 188.911 297.477C180.174 289.101 162.475 289.539 159.176 295.801C155.339 303.061 174.127 312.066 174.228 326.739L174.215 326.763Z" stroke="url(#paint24_linear_328_359)" stroke-miterlimit="10"/>
<path d="M173.969 325.189C174.112 347.909 128.18 379.754 103.5 365.466C80.5239 352.152 81.9042 302.412 100.861 286.041C107.73 280.103 116.183 279.243 117.141 273.01C118.357 265.045 105.491 260.322 93.0953 246.38C90.1744 243.084 67.4785 217.545 74.6976 199.263C81.1269 182.916 110.657 174.382 130.142 182.894C151.655 192.313 154.909 219.998 166.57 218.65C173.583 217.857 173.498 207.716 185.254 195.469C193.946 186.404 213.086 172.048 228.135 177.352C247.48 184.161 255.459 221.779 242.962 236.658C232.175 249.491 208.982 242.008 202.911 255.726C200.727 260.653 201.136 267.446 204.351 272.12C214.683 287.11 246.304 269.138 262.165 283.536C274.751 294.976 274.409 324.105 260.525 336.121C242.413 351.796 203.62 336.242 195.284 316.378C192.075 308.746 194.151 302.451 188.233 296.771C179.767 288.644 162.551 289.073 159.362 295.143C155.648 302.187 173.881 310.938 173.993 325.203L173.969 325.189Z" stroke="url(#paint25_linear_328_359)" stroke-miterlimit="10"/>
<path d="M173.761 323.606C173.904 345.657 129.337 376.564 105.377 362.687C83.0826 349.796 84.4069 301.488 102.828 285.607C109.502 279.844 117.695 278.994 118.604 272.956C119.783 265.225 107.294 260.622 95.2574 247.108C92.4289 243.929 70.3973 219.121 77.4001 201.383C83.6542 185.509 112.303 177.235 131.195 185.503C152.067 194.65 155.233 221.489 166.568 220.21C173.383 219.43 173.305 209.611 184.693 197.727C193.135 188.932 211.719 174.991 226.319 180.134C245.082 186.736 252.826 223.265 240.712 237.694C230.245 250.138 207.744 242.891 201.845 256.198C199.719 260.967 200.125 267.6 203.237 272.119C213.247 286.67 243.96 269.229 259.362 283.204C271.595 294.316 271.24 322.577 257.761 334.22C240.17 349.43 202.553 334.326 194.442 315.068C191.319 307.676 193.36 301.553 187.582 296.016C179.363 288.127 162.668 288.535 159.551 294.424C155.947 301.276 173.663 309.762 173.761 323.606Z" stroke="url(#paint26_linear_328_359)" stroke-miterlimit="10"/>
<path d="M173.529 322.008C173.673 343.392 130.447 373.346 107.193 359.906C85.5694 347.399 86.8617 300.538 104.71 285.156C111.189 279.568 119.107 278.752 120.02 272.875C121.16 265.377 109.059 260.932 97.3955 247.823C94.6493 244.722 73.2785 220.707 80.0786 203.49C86.1438 188.113 113.926 180.074 132.262 188.088C152.518 196.978 155.581 222.994 166.557 221.732C173.159 220.99 173.091 211.431 184.136 199.924C192.328 191.4 210.319 177.883 224.494 182.878C242.698 189.288 250.196 224.688 238.453 238.693C228.329 250.76 206.471 243.723 200.768 256.633C198.711 261.282 199.094 267.678 202.113 272.081C211.839 286.182 241.581 269.268 256.524 282.822C268.381 293.59 268.036 320.998 254.972 332.305C237.927 347.063 201.447 332.419 193.576 313.744C190.552 306.568 192.521 300.627 186.931 295.262C178.959 287.609 162.771 288.021 159.764 293.718C156.259 300.34 173.444 308.587 173.529 322.008Z" stroke="url(#paint27_linear_328_359)" stroke-miterlimit="10"/>
<path d="M173.284 320.435C173.428 341.15 131.567 370.167 109.032 357.138C88.0802 345.016 89.3507 299.638 106.626 284.757C112.896 279.367 120.591 278.551 121.456 272.869C122.559 265.604 110.82 261.303 99.5439 248.575C96.8901 245.591 76.1837 222.306 82.7674 205.634C88.6334 190.716 115.558 182.951 133.302 190.721C152.931 199.316 155.878 224.533 166.504 223.325C172.907 222.597 172.846 213.36 183.538 202.192C191.455 193.925 208.915 180.836 222.641 185.669C240.263 191.874 247.539 226.16 236.142 239.727C226.323 251.427 205.172 244.603 199.627 257.125C197.628 261.617 198.021 267.828 200.937 272.076C210.341 285.739 239.175 269.355 253.659 282.487C265.139 292.912 264.806 319.467 252.17 330.414C235.646 344.707 200.304 330.523 192.686 312.407C189.761 305.447 191.668 299.724 186.243 294.517C178.517 287.101 162.85 287.493 159.926 293.046C156.531 299.477 173.174 307.445 173.27 320.459L173.284 320.435Z" stroke="url(#paint28_linear_328_359)" stroke-miterlimit="10"/>
<path d="M173.052 318.838C173.197 338.884 132.663 366.973 110.885 354.346C90.6286 342.622 91.8294 298.701 108.546 284.296C114.62 279.081 122.055 278.275 122.895 272.802C123.96 265.77 112.622 261.603 101.682 249.29C99.1103 246.385 79.0784 223.868 85.4458 207.74C91.1229 193.319 117.156 185.776 134.345 193.293C153.333 201.616 156.203 226.024 166.493 224.847C172.659 224.142 172.618 215.204 182.967 204.413C190.634 196.416 207.5 183.752 220.801 188.437C237.865 194.449 244.881 227.632 233.869 240.75C224.369 252.059 203.91 245.472 198.536 257.584C196.62 261.931 196.975 267.93 199.799 272.062C208.919 285.275 236.807 269.432 250.808 282.128C261.911 292.21 261.613 317.926 249.344 328.51C233.365 342.35 199.161 328.627 191.782 311.093C188.943 304.373 190.791 298.809 185.555 293.773C178.075 286.594 162.916 286.989 160.077 292.337C156.806 298.552 172.894 306.266 172.977 318.858L173.052 318.838Z" stroke="url(#paint29_linear_328_359)" stroke-miterlimit="10"/>
<path d="M172.831 317.278C172.976 336.656 133.783 363.793 112.735 351.616C93.1496 340.276 94.3287 297.84 110.486 283.91C116.341 278.856 123.549 278.111 124.369 272.786C125.42 266 114.422 261.964 103.878 250.07C101.399 247.281 82.0315 225.495 88.1963 209.888C93.6982 195.94 118.851 188.656 135.471 195.943C153.818 203.995 156.585 227.581 166.539 226.434C172.507 225.743 172.449 217.113 182.469 206.674C189.885 198.948 206.195 186.698 219.048 191.222C235.529 197.028 242.347 229.11 231.681 241.79C222.487 252.733 202.709 246.345 197.532 258.059C195.66 262.273 196.015 268.049 198.761 272.041C207.559 284.815 234.538 269.502 248.056 281.763C258.806 291.515 258.495 316.364 246.655 326.588C231.197 339.963 198.144 326.676 191.015 309.763C188.275 303.259 190.052 297.876 184.99 293.036C177.757 286.093 163.094 286.455 160.376 291.648C157.214 297.671 172.762 305.107 172.855 317.292L172.831 317.278Z" stroke="url(#paint30_linear_328_359)" stroke-miterlimit="10"/>
<path d="M172.599 315.681C172.721 334.377 134.916 360.59 114.588 348.824C95.6741 337.869 96.8074 296.902 112.406 283.449C118.065 278.569 125.013 277.835 125.809 272.718C126.822 266.166 116.224 262.264 106.016 250.784C103.619 248.075 84.9264 227.057 90.8748 211.995C96.1638 198.53 120.473 191.496 136.514 198.514C154.234 206.271 156.924 229.048 166.504 227.942C172.259 227.288 172.221 218.956 181.888 208.857C189.054 201.401 204.808 189.566 217.198 193.952C233.121 199.566 239.68 230.544 229.398 242.775C220.523 253.328 201.437 247.177 196.431 258.48C194.642 262.55 194.97 268.151 197.613 271.988C206.113 284.337 232.135 269.528 245.205 281.404C255.565 290.838 255.278 314.808 243.853 324.697C228.93 337.583 197.025 324.793 190.149 308.439C187.495 302.175 189.223 296.987 184.339 292.281C177.377 285.589 163.198 285.941 160.565 290.929C157.503 296.722 172.543 303.932 172.613 315.657L172.599 315.681Z" stroke="url(#paint31_linear_328_359)" stroke-miterlimit="10"/>
<path d="M172.367 314.083C172.489 332.111 136.012 357.396 116.427 346.056C98.2088 335.499 99.2724 295.989 114.336 283.025C119.799 278.321 126.497 277.634 127.259 272.689C128.234 266.369 117.999 262.612 108.189 251.55C105.86 248.944 87.8554 228.67 93.5874 214.153C98.6876 201.184 122.129 194.386 137.578 201.161C154.657 208.646 157.244 230.601 166.499 229.563C172.055 228.923 172.014 220.876 181.324 211.177C188.215 203.978 203.401 192.581 215.379 196.796C230.719 202.203 237.056 232.067 227.145 243.873C218.575 254.059 200.172 248.108 195.361 259.014C193.631 262.926 193.945 268.328 196.509 272.025C204.701 283.911 229.801 269.656 242.387 281.097C252.371 290.187 252.095 313.305 241.075 322.82C226.698 335.254 195.906 322.911 189.293 307.153C186.738 301.105 188.394 296.099 183.685 291.588C176.969 285.133 163.311 285.464 160.761 290.308C157.808 295.91 172.308 302.841 172.387 314.159L172.367 314.083Z" stroke="url(#paint32_linear_328_359)" stroke-miterlimit="10"/>
<path d="M172.146 312.524C172.269 329.883 137.156 354.23 118.29 343.302C100.73 333.153 101.785 295.104 116.266 282.602C121.534 278.072 127.971 277.395 128.698 272.621C129.635 266.535 119.802 262.911 110.327 252.265C108.105 249.751 90.7504 230.232 96.2661 216.259C101.191 203.764 123.752 197.225 138.645 203.746C155.084 210.96 157.569 232.092 166.488 231.085C171.845 230.458 171.786 222.719 180.767 213.373C187.408 206.445 202.038 195.462 213.554 199.54C228.335 204.754 234.427 233.491 224.886 244.872C216.659 254.682 198.924 248.954 194.285 259.448C192.613 263.203 192.937 268.42 195.385 271.986C203.279 283.447 227.447 269.709 239.574 280.728C249.205 289.489 248.916 311.739 238.311 320.919C224.455 332.887 194.824 321.018 188.452 305.843C185.995 300.011 187.603 295.2 183.059 290.847C176.589 284.628 163.438 284.964 160.998 289.616C158.169 295.002 172.113 301.679 172.18 312.575L172.146 312.524Z" stroke="url(#paint33_linear_328_359)" stroke-miterlimit="10"/>
<path d="M171.914 310.926C172.037 327.618 138.266 351.013 120.143 340.511C103.254 330.746 104.264 294.167 118.209 282.155C123.258 277.785 129.483 277.146 130.162 272.568C131.061 266.714 121.59 263.235 112.489 252.993C110.335 250.582 93.6691 231.807 98.9684 218.38C103.704 206.381 125.398 200.078 139.699 206.355C155.51 213.274 157.903 233.621 166.462 232.63C171.607 232.042 171.569 224.601 180.196 215.594C186.586 208.936 200.647 198.391 211.704 202.27C225.903 207.278 231.759 234.925 222.602 245.858C214.695 255.276 197.651 249.786 193.184 259.869C191.581 263.504 191.882 268.484 194.237 271.934C201.823 282.932 225.068 269.748 236.712 280.331C245.966 288.749 245.702 310.122 235.512 318.967C222.201 330.482 193.722 319.05 187.565 304.444C185.194 298.852 186.744 294.199 182.387 290.018C176.165 284.035 163.535 284.351 161.166 288.821C158.423 294.001 171.836 300.438 171.927 310.902L171.914 310.926Z" stroke="url(#paint34_linear_328_359)" stroke-miterlimit="10"/>
<path d="M171.682 309.329C171.806 325.352 139.399 347.809 121.983 337.743C105.789 328.376 106.753 293.267 120.116 281.717C124.955 277.547 130.919 276.918 131.588 272.524C132.449 266.904 123.366 263.582 114.637 253.746C112.59 251.427 96.5744 233.407 101.657 220.524C106.194 208.984 127.031 202.955 140.752 208.964C155.923 215.612 158.214 235.136 166.461 234.19C171.407 233.615 171.352 226.482 179.636 217.852C185.776 211.465 199.257 201.321 209.875 205.075C223.516 209.891 229.15 236.424 220.34 246.918C212.737 255.971 196.376 250.679 192.104 260.365C190.559 263.842 190.871 268.638 193.123 271.933C200.411 282.506 222.7 269.825 233.909 280C242.786 288.075 242.557 308.608 232.734 317.09C219.945 328.14 192.603 317.167 186.709 303.158C184.438 297.782 185.925 293.348 181.734 289.325C175.758 283.579 163.635 283.898 161.376 288.177C158.757 293.141 171.615 299.324 171.692 309.367L171.682 309.329Z" stroke="url(#paint35_linear_328_359)" stroke-miterlimit="10"/>
<path d="M171.46 307.769C171.561 323.11 140.505 344.654 123.822 334.975C108.3 325.993 109.218 292.354 122.045 281.294C126.689 277.298 132.393 276.679 133.051 272.471C133.875 267.083 125.168 263.882 116.799 254.474C114.82 252.258 99.4931 234.982 104.373 222.62C108.721 211.577 128.691 205.784 141.844 211.563C156.374 217.939 158.6 236.631 166.474 235.725C171.207 235.188 171.148 228.34 179.102 220.062C184.968 213.932 197.918 204.216 208.087 207.809C221.145 212.419 226.557 237.837 218.094 247.893C210.81 256.555 195.141 251.501 191.028 260.799C189.565 264.133 189.825 268.74 191.999 271.895C198.965 282.028 220.345 269.878 231.071 279.617C239.572 287.349 239.354 307.029 229.96 315.151C217.715 325.749 191.511 315.237 185.857 301.81C183.685 296.651 185.1 292.398 181.097 288.546C175.367 283.037 163.728 283.346 161.579 287.434C159.069 292.206 171.386 298.111 171.474 307.745L171.46 307.769Z" stroke="url(#paint36_linear_328_359)" stroke-miterlimit="10"/>
<path d="M171.229 306.172C171.33 320.845 141.639 341.45 125.661 332.207C110.811 323.609 111.683 291.441 123.976 280.871C128.424 277.049 133.877 276.478 134.501 272.441C135.287 267.287 126.967 264.243 118.948 255.226C117.075 253.103 102.385 236.606 107.062 224.765C111.235 214.194 130.309 208.685 142.883 214.196C156.787 220.277 158.897 238.17 166.421 237.319C170.956 236.795 170.917 230.245 178.504 222.331C184.12 216.471 196.5 207.193 206.221 210.625C218.72 215.042 223.872 239.357 215.793 248.964C208.815 257.259 193.828 252.404 189.91 261.306C188.506 264.482 188.752 268.889 190.847 271.904C197.53 281.588 217.963 269.979 228.231 279.296C236.378 286.699 236.147 305.512 227.168 313.298C215.445 323.43 190.379 313.378 184.987 300.548C182.901 295.628 184.258 291.534 180.429 287.877C174.946 282.605 163.827 282.894 161.761 286.837C159.351 291.38 171.161 297.058 171.212 306.258L171.229 306.172Z" stroke="url(#paint37_linear_328_359)" stroke-miterlimit="10"/>
<path d="M170.983 304.599C171.085 318.603 142.735 338.257 127.501 329.439C113.321 321.226 114.172 290.542 125.881 280.433C130.134 276.787 135.327 276.225 135.927 272.398C136.674 267.476 128.732 264.553 121.096 255.979C119.291 253.959 105.29 238.205 109.751 226.909C113.711 216.822 131.942 211.562 143.961 216.819C157.247 222.643 159.256 239.712 166.444 238.892C170.766 238.406 170.723 232.14 177.968 224.603C183.333 219.014 195.133 210.136 204.429 213.42C216.36 217.608 221.277 240.832 213.582 249.991C206.947 257.909 192.614 253.302 188.881 261.768C187.522 264.81 187.792 269.009 189.771 271.893C196.132 281.138 215.656 270.059 225.441 278.941C233.212 286.001 232.992 303.96 224.417 311.373C213.24 321.053 189.324 311.437 184.173 299.191C182.185 294.487 183.48 290.611 179.83 287.089C174.617 282.067 163.982 282.346 162.001 286.084C159.701 290.435 170.97 295.835 171.031 304.626L170.983 304.599Z" stroke="url(#paint38_linear_328_359)" stroke-miterlimit="10"/>
<path d="M170.752 303.001C170.84 316.361 143.869 335.053 129.354 326.647C115.87 318.832 116.665 289.58 127.811 280.01C131.845 276.524 136.812 276.024 137.353 272.354C138.062 267.666 130.507 264.901 123.22 256.717C121.522 254.79 108.171 239.791 112.416 229.039C116.201 219.425 133.551 214.425 144.977 219.438C157.623 224.991 159.529 241.238 166.381 240.448C170.504 239.975 170.468 234.032 177.359 226.833C182.474 221.515 193.705 213.075 202.552 216.198C213.925 220.193 218.595 242.29 211.271 251.024C204.941 258.576 191.314 254.181 187.753 262.236C186.476 265.135 186.709 269.121 188.609 271.864C194.686 280.66 213.24 270.109 222.566 278.568C229.96 285.285 229.751 302.391 221.605 309.445C210.949 318.659 188.195 309.517 183.283 297.853C181.394 293.365 182.618 289.672 179.141 286.344C174.176 281.559 164.061 281.818 162.177 285.388C160 289.523 170.714 294.669 170.762 303.039L170.752 303.001Z" stroke="url(#paint39_linear_328_359)" stroke-miterlimit="10"/>
<path d="M170.544 301.418C170.633 314.109 144.989 331.873 131.217 323.893C118.405 316.463 119.178 288.695 129.741 279.587C133.579 276.275 138.286 275.786 138.816 272.3C139.488 267.845 132.31 265.201 125.396 257.422C123.766 255.597 111.104 241.343 115.132 231.136C118.728 222.018 135.187 217.24 146.058 221.999C158.077 227.256 159.867 242.705 166.383 241.946C170.294 241.51 170.254 235.852 176.816 229.006C181.656 223.944 192.356 215.933 200.754 218.894C211.544 222.683 216.003 243.703 209.039 251.975C203.028 259.136 190.069 254.965 186.68 262.609C185.461 265.35 185.705 269.151 187.489 271.764C193.243 280.121 210.889 270.1 219.756 278.138C226.797 284.525 226.599 300.777 218.844 307.482C208.733 316.244 187.093 307.549 182.42 296.468C180.617 292.22 181.806 288.697 178.47 285.514C173.751 280.966 164.144 281.229 162.369 284.607C160.303 288.55 170.475 293.418 170.534 301.38L170.544 301.418Z" stroke="url(#paint40_linear_328_359)" stroke-miterlimit="10"/>
<path d="M170.298 299.844C170.388 311.868 146.108 328.693 133.056 321.126C120.902 314.103 121.643 287.782 131.671 279.163C135.314 276.027 139.783 275.561 140.266 272.271C140.924 268.063 134.109 265.562 127.569 258.188C126.021 256.442 114.032 242.956 117.845 233.294C121.265 224.649 136.843 220.131 147.145 224.66C158.524 229.646 160.25 244.261 166.416 243.557C170.128 243.135 170.071 237.785 176.29 231.315C180.879 226.524 190.986 218.937 198.959 221.751C209.191 225.348 213.404 245.24 206.81 253.087C201.119 259.858 188.852 255.924 185.634 263.156C184.484 265.777 184.69 269.366 186.395 271.839C191.852 279.77 208.565 270.266 216.949 277.868C223.613 283.912 223.426 299.311 216.076 305.643C206.5 313.916 186.008 305.718 181.588 295.196C179.885 291.164 181.001 287.823 177.854 284.811C173.368 280.523 164.295 280.742 162.593 283.938C160.626 287.652 170.267 292.28 170.336 299.834L170.298 299.844Z" stroke="url(#paint41_linear_328_359)" stroke-miterlimit="10"/>
<path d="M170.066 298.247C170.133 309.588 147.218 325.476 134.896 318.358C123.436 311.734 124.108 286.869 133.577 278.726C137.024 275.764 141.22 275.332 141.692 272.227C142.312 268.252 135.86 265.896 129.693 258.926C128.238 257.297 116.914 244.542 120.509 235.424C123.717 227.263 138.451 222.994 148.175 227.255C158.912 231.97 160.536 245.763 166.353 245.113C169.853 244.728 169.829 239.652 175.681 233.546C180.021 229.026 189.572 221.853 197.096 224.505C206.745 227.896 210.736 246.674 204.513 254.096C199.127 260.501 187.542 256.766 184.52 263.601C183.428 266.065 183.645 269.468 185.247 271.786C190.396 279.255 206.186 270.305 214.111 277.485C220.399 283.187 220.223 297.732 213.288 303.728C204.257 311.549 184.892 303.774 180.722 293.872C179.118 290.056 180.149 286.921 177.19 284.081C172.95 280.029 164.361 280.238 162.778 283.281C160.921 286.802 170.045 291.166 170.077 298.285L170.066 298.247Z" stroke="url(#paint42_linear_328_359)" stroke-miterlimit="10"/>
<path d="M169.859 296.663C169.925 307.336 148.352 322.272 136.773 315.58C125.985 309.34 126.634 285.959 135.545 278.292C138.759 275.515 142.731 275.083 143.193 272.163C143.775 268.421 137.724 266.199 131.893 259.644C130.52 258.094 119.87 246.107 123.263 237.51C126.296 229.822 140.149 225.813 149.28 229.83C159.39 234.249 160.922 247.257 166.379 246.624C169.68 246.253 169.639 241.486 175.162 235.732C179.251 231.482 188.246 224.724 195.322 227.214C204.412 230.413 208.144 248.087 202.281 255.047C197.214 261.061 186.321 257.563 183.457 264.011C182.424 266.317 182.627 269.522 184.137 271.724C188.988 278.767 203.845 270.334 211.287 277.079C217.199 282.437 217.033 296.129 210.527 301.765C202.018 309.12 183.814 301.819 179.884 292.5C178.365 288.924 179.361 285.96 176.567 283.278C172.573 279.463 164.505 279.652 162.995 282.513C161.261 285.819 169.83 289.928 169.872 296.639L169.859 296.663Z" stroke="url(#paint43_linear_328_359)" stroke-miterlimit="10"/>
<path d="M169.613 295.09C169.681 305.095 149.458 319.117 138.588 312.798C128.472 306.943 129.076 285.032 137.427 277.841C140.445 275.239 144.168 274.855 144.595 272.106C145.139 268.597 139.475 266.533 134.017 260.383C132.737 258.949 122.751 247.693 125.928 239.641C128.772 232.449 141.758 228.676 150.334 232.439C159.803 236.587 161.233 248.773 166.378 248.184C169.48 247.826 169.422 243.367 174.602 237.991C178.416 233.997 186.842 227.677 193.493 230.02C202.001 233.012 205.511 249.573 200.018 256.108C195.28 261.769 185.069 258.471 182.377 264.508C181.426 266.669 181.592 269.662 183.023 271.723C187.566 278.304 201.477 270.411 208.484 276.747C214.029 281.8 213.864 294.601 207.749 299.888C199.785 306.791 182.695 299.937 179.042 291.19C177.622 287.83 178.546 285.048 175.926 282.561C172.18 278.983 164.619 279.176 163.218 281.845C161.571 284.945 169.622 288.79 169.651 295.08L169.613 295.09Z" stroke="url(#paint44_linear_328_359)" stroke-miterlimit="10"/>
<path d="M169.381 293.493C169.449 302.829 150.567 315.899 140.427 310.03C131.006 304.573 131.564 284.133 139.357 277.418C142.179 274.99 145.641 274.616 146.045 272.077C146.551 268.801 141.264 266.856 136.165 261.135C134.967 259.781 125.656 249.292 128.617 241.785C131.248 235.077 143.39 231.553 151.373 235.072C160.202 238.949 161.554 250.325 166.339 249.753C169.204 249.42 169.191 245.273 174.017 240.235C177.581 236.512 185.452 230.607 191.629 232.774C199.579 235.574 202.843 251.007 197.721 257.117C193.302 262.388 183.759 259.313 181.263 264.952C180.357 266.981 180.546 269.764 181.861 271.694C186.106 277.85 199.084 270.474 205.609 276.375C210.777 281.085 210.623 293.032 204.937 297.96C197.494 304.397 181.565 298.016 178.151 289.853C176.831 286.709 177.693 284.146 175.252 281.793C171.775 278.466 164.712 278.624 163.407 281.125C161.883 284.01 169.379 287.601 169.419 293.482L169.381 293.493Z" stroke="url(#paint45_linear_328_359)" stroke-miterlimit="10"/>
<path d="M169.16 291.933C169.228 300.601 151.711 312.733 142.291 307.276C133.541 302.203 134.053 283.233 141.287 276.995C143.914 274.741 147.139 274.391 147.484 272.009C147.953 268.966 143.053 267.18 138.328 261.864C137.222 260.626 128.575 250.868 131.319 243.906C133.775 237.67 145.037 234.406 152.464 237.671C160.667 241.252 161.916 251.806 166.351 251.289C169.018 250.969 168.987 247.13 173.484 242.445C176.798 238.993 184.099 233.526 189.828 235.532C197.195 238.125 200.247 252.482 195.485 258.13C191.386 263.01 182.535 260.172 180.211 265.4C179.386 267.285 179.525 269.879 180.761 271.669C184.684 277.386 196.754 270.541 202.819 276.02C207.611 280.386 207.492 291.494 202.196 296.073C195.275 302.044 180.522 296.113 177.309 288.543C176.075 285.639 176.878 283.234 174.625 281.052C171.395 277.961 164.839 278.124 163.62 280.419C162.206 283.112 169.161 286.425 169.187 291.885L169.16 291.933Z" stroke="url(#paint46_linear_328_359)" stroke-miterlimit="10"/>
<path d="M168.928 290.336C168.973 298.321 152.821 309.516 144.13 304.508C136.052 299.82 136.519 282.32 143.217 276.571C145.625 274.479 148.6 274.176 148.934 271.98C149.365 269.169 144.842 267.504 140.476 262.616C139.452 261.457 131.467 252.491 134.008 246.05C136.275 240.311 146.669 237.282 153.504 240.304C161.066 243.614 162.213 253.345 166.323 252.896C168.777 252.614 168.78 249.049 172.896 244.751C175.959 241.57 182.681 236.503 187.985 238.361C194.793 240.762 197.6 253.991 193.209 259.214C189.414 263.728 181.246 261.09 179.117 265.92C178.351 267.647 178.5 270.057 179.633 271.693C183.272 276.96 194.396 270.656 199.978 275.698C204.417 279.736 204.285 289.977 199.394 294.182C193.018 299.702 179.378 294.217 176.43 287.243C175.294 284.555 176.05 282.345 173.947 280.345C170.964 277.491 164.928 277.634 163.792 279.785C162.501 282.262 168.888 285.345 168.938 290.373L168.928 290.336Z" stroke="url(#paint47_linear_328_359)" stroke-miterlimit="10"/>
<path d="M168.696 288.738C168.742 296.056 153.941 306.336 145.983 301.716C138.563 297.437 139.021 281.397 145.136 276.11C147.349 274.192 150.087 273.914 150.373 271.912C150.766 269.335 146.631 267.827 142.614 263.331C141.659 262.274 134.361 254.053 136.687 248.156C138.754 242.876 148.278 240.146 154.547 242.875C161.468 245.914 162.537 254.837 166.287 254.404C168.543 254.135 168.528 250.879 172.315 246.934C175.104 244.009 181.28 239.394 186.136 241.091C192.361 243.286 194.932 255.425 190.925 260.199C187.45 264.323 179.973 261.921 178.016 266.341C177.295 267.934 177.444 270.121 178.485 271.64C181.802 276.469 191.993 270.681 197.103 275.326C201.165 279.02 201.044 288.408 196.568 292.277C190.714 297.331 178.235 292.321 175.54 285.906C174.503 283.434 175.173 281.429 173.272 279.577C170.536 276.96 164.984 277.092 163.957 279.052C162.752 281.323 168.645 284.156 168.672 288.725L168.696 288.738Z" stroke="url(#paint48_linear_328_359)" stroke-miterlimit="10"/>
<path d="M168.451 287.165C168.497 293.814 155.037 303.143 147.822 298.949C141.097 295.067 141.486 280.484 147.066 275.686C149.083 273.944 151.548 273.699 151.837 271.859C152.192 269.515 148.42 268.151 144.8 264.073C143.951 263.109 137.304 255.642 139.413 250.29C141.292 245.507 149.948 243.012 155.649 245.512C161.967 248.269 162.896 256.379 166.31 255.978C168.353 255.746 168.335 252.775 171.792 249.182C174.331 246.528 179.952 242.327 184.358 243.863C190.025 245.865 192.35 256.876 188.714 261.226C185.544 264.983 178.773 262.794 176.988 266.803C176.349 268.252 176.461 270.226 177.423 271.605C180.456 275.984 189.7 270.738 194.351 274.96C198.036 278.312 197.927 286.846 193.879 290.356C188.57 294.958 177.205 290.394 174.773 284.576C173.822 282.344 174.434 280.497 172.708 278.84C170.218 276.459 165.186 276.572 164.256 278.363C163.175 280.419 168.512 282.997 168.55 287.158L168.451 287.165Z" stroke="url(#paint49_linear_328_359)" stroke-miterlimit="10"/>
<path d="M168.243 285.581C168.29 291.562 156.194 299.953 149.686 296.195C143.632 292.697 143.999 279.598 148.983 275.287C150.804 273.719 153.008 273.484 153.273 271.853C153.59 269.742 150.219 268.512 146.935 264.849C146.154 263.988 140.196 257.266 142.102 252.435C143.805 248.124 151.58 245.889 156.703 248.121C162.38 250.607 163.231 257.908 166.309 257.537C168.153 257.319 168.141 254.67 171.232 251.44C173.52 249.057 178.561 245.256 182.529 246.668C187.614 248.465 189.717 258.361 186.427 262.273C183.6 265.653 177.474 263.674 175.884 267.285C175.303 268.577 175.425 270.366 176.271 271.614C178.982 275.555 187.318 270.839 191.486 274.626C194.794 277.634 194.696 285.315 191.04 288.475C186.265 292.588 176.062 288.498 173.856 283.286C173.004 281.27 173.567 279.619 172.005 278.12C169.762 275.976 165.238 276.092 164.394 277.678C163.422 279.542 168.219 281.842 168.243 285.581Z" stroke="url(#paint50_linear_328_359)" stroke-miterlimit="10"/>
<path d="M167.998 284.008C168.045 289.32 157.29 296.759 151.525 293.427C146.143 290.314 146.478 278.661 150.913 274.864C152.525 273.494 154.492 273.283 154.723 271.823C155.002 269.945 151.994 268.86 149.097 265.577C148.422 264.809 143.115 258.841 144.804 254.555C146.319 250.741 153.203 248.728 157.756 250.73C162.793 252.945 163.555 259.399 166.283 259.083C167.915 258.902 167.914 256.514 170.661 253.661C172.699 251.548 177.171 248.186 180.703 249.412C185.23 251.016 187.097 259.823 184.168 263.272C181.646 266.286 176.225 264.52 174.793 267.744C174.296 268.891 174.366 270.492 175.147 271.576C177.56 275.091 184.963 270.891 188.673 274.257C191.628 276.936 191.54 283.763 188.289 286.55C184.06 290.211 174.994 286.581 173.041 281.928C172.275 280.152 172.78 278.658 171.393 277.355C169.42 275.461 165.393 275.544 164.644 276.962C163.773 278.596 168.038 280.656 168.073 283.987L167.998 284.008Z" stroke="url(#paint51_linear_328_359)" stroke-miterlimit="10"/>
</g>
<defs>
<linearGradient id="paint0_linear_328_359" x1="341.396" y1="371.721" x2="-9.03077" y2="171.101" gradientUnits="userSpaceOnUse">
<stop stop-color="#D82029"/>
<stop offset="1" stop-color="#0D0D0D"/>
</linearGradient>
<linearGradient id="paint1_linear_328_359" x1="338.447" y1="370.032" x2="-6.08114" y2="172.789" gradientUnits="userSpaceOnUse">
<stop stop-color="#D82029"/>
<stop offset="1" stop-color="#0D0D0D"/>
</linearGradient>
<linearGradient id="paint2_linear_328_359" x1="237.528" y1="539.468" x2="-101.101" y2="345.603" gradientUnits="userSpaceOnUse">
<stop stop-color="#D82029"/>
<stop offset="1" stop-color="#0D0D0D"/>
</linearGradient>
<linearGradient id="paint3_linear_328_359" x1="332.547" y1="366.655" x2="-0.182059" y2="176.167" gradientUnits="userSpaceOnUse">
<stop stop-color="#D82029"/>
<stop offset="1" stop-color="#0D0D0D"/>
</linearGradient>
<linearGradient id="paint4_linear_328_359" x1="329.598" y1="364.966" x2="2.7915" y2="177.869" gradientUnits="userSpaceOnUse">
<stop stop-color="#D82029"/>
<stop offset="1" stop-color="#0D0D0D"/>
</linearGradient>
<linearGradient id="paint5_linear_328_359" x1="228.655" y1="534.389" x2="-92.228" y2="350.683" gradientUnits="userSpaceOnUse">
<stop stop-color="#D82029"/>
<stop offset="1" stop-color="#0D0D0D"/>
</linearGradient>
<linearGradient id="paint6_linear_328_359" x1="323.675" y1="361.575" x2="8.69084" y2="181.246" gradientUnits="userSpaceOnUse">
<stop stop-color="#D82029"/>
<stop offset="1" stop-color="#0D0D0D"/>
</linearGradient>
<linearGradient id="paint7_linear_328_359" x1="320.725" y1="359.887" x2="11.6403" y2="182.935" gradientUnits="userSpaceOnUse">
<stop stop-color="#D82029"/>
<stop offset="1" stop-color="#0D0D0D"/>
</linearGradient>
<linearGradient id="paint8_linear_328_359" x1="219.806" y1="529.323" x2="-83.3794" y2="355.749" gradientUnits="userSpaceOnUse">
<stop stop-color="#D82029"/>
<stop offset="1" stop-color="#0D0D0D"/>
</linearGradient>
<linearGradient id="paint9_linear_328_359" x1="216.856" y1="527.634" x2="-80.4299" y2="357.437" gradientUnits="userSpaceOnUse">
<stop stop-color="#D82029"/>
<stop offset="1" stop-color="#0D0D0D"/>
</linearGradient>
<linearGradient id="paint10_linear_328_359" x1="213.907" y1="525.945" x2="-77.4801" y2="359.126" gradientUnits="userSpaceOnUse">
<stop stop-color="#D82029"/>
<stop offset="1" stop-color="#0D0D0D"/>
</linearGradient>
<linearGradient id="paint11_linear_328_359" x1="210.957" y1="524.257" x2="-74.5305" y2="360.814" gradientUnits="userSpaceOnUse">
<stop stop-color="#D82029"/>
<stop offset="1" stop-color="#0D0D0D"/>
</linearGradient>
<linearGradient id="paint12_linear_328_359" x1="208.008" y1="522.568" x2="-71.5809" y2="362.503" gradientUnits="userSpaceOnUse">
<stop stop-color="#D82029"/>
<stop offset="1" stop-color="#0D0D0D"/>
</linearGradient>
<linearGradient id="paint13_linear_328_359" x1="303.003" y1="349.741" x2="29.3618" y2="193.081" gradientUnits="userSpaceOnUse">
<stop stop-color="#D82029"/>
<stop offset="1" stop-color="#0D0D0D"/>
</linearGradient>
<linearGradient id="paint14_linear_328_359" x1="202.085" y1="519.177" x2="-65.6576" y2="365.894" gradientUnits="userSpaceOnUse">
<stop stop-color="#D82029"/>
<stop offset="1" stop-color="#0D0D0D"/>
</linearGradient>
<linearGradient id="paint15_linear_328_359" x1="199.135" y1="517.488" x2="-62.708" y2="367.583" gradientUnits="userSpaceOnUse">
<stop stop-color="#D82029"/>
<stop offset="1" stop-color="#0D0D0D"/>
</linearGradient>
<linearGradient id="paint16_linear_328_359" x1="196.185" y1="515.8" x2="-59.7585" y2="369.271" gradientUnits="userSpaceOnUse">
<stop stop-color="#D82029"/>
<stop offset="1" stop-color="#0D0D0D"/>
</linearGradient>
<linearGradient id="paint17_linear_328_359" x1="291.205" y1="342.986" x2="41.1603" y2="199.835" gradientUnits="userSpaceOnUse">
<stop stop-color="#D82029"/>
<stop offset="1" stop-color="#0D0D0D"/>
</linearGradient>
<linearGradient id="paint18_linear_328_359" x1="190.286" y1="512.422" x2="-53.8595" y2="372.649" gradientUnits="userSpaceOnUse">
<stop stop-color="#D82029"/>
<stop offset="1" stop-color="#0D0D0D"/>
</linearGradient>
<linearGradient id="paint19_linear_328_359" x1="285.306" y1="339.609" x2="47.0595" y2="203.213" gradientUnits="userSpaceOnUse">
<stop stop-color="#D82029"/>
<stop offset="1" stop-color="#0D0D0D"/>
</linearGradient>
<linearGradient id="paint20_linear_328_359" x1="184.387" y1="509.045" x2="-47.9602" y2="376.026" gradientUnits="userSpaceOnUse">
<stop stop-color="#D82029"/>
<stop offset="1" stop-color="#0D0D0D"/>
</linearGradient>
<linearGradient id="paint21_linear_328_359" x1="279.406" y1="336.232" x2="52.9827" y2="206.604" gradientUnits="userSpaceOnUse">
<stop stop-color="#D82029"/>
<stop offset="1" stop-color="#0D0D0D"/>
</linearGradient>
<linearGradient id="paint22_linear_328_359" x1="276.433" y1="334.529" x2="55.9322" y2="208.292" gradientUnits="userSpaceOnUse">
<stop stop-color="#D82029"/>
<stop offset="1" stop-color="#0D0D0D"/>
</linearGradient>
<linearGradient id="paint23_linear_328_359" x1="175.514" y1="503.965" x2="-39.0875" y2="381.106" gradientUnits="userSpaceOnUse">
<stop stop-color="#D82029"/>
<stop offset="1" stop-color="#0D0D0D"/>
</linearGradient>
<linearGradient id="paint24_linear_328_359" x1="270.534" y1="331.152" x2="61.8316" y2="211.67" gradientUnits="userSpaceOnUse">
<stop stop-color="#D82029"/>
<stop offset="1" stop-color="#0D0D0D"/>
</linearGradient>
<linearGradient id="paint25_linear_328_359" x1="267.584" y1="329.463" x2="64.7811" y2="213.358" gradientUnits="userSpaceOnUse">
<stop stop-color="#D82029"/>
<stop offset="1" stop-color="#0D0D0D"/>
</linearGradient>
<linearGradient id="paint26_linear_328_359" x1="166.665" y1="498.9" x2="-30.2386" y2="386.172" gradientUnits="userSpaceOnUse">
<stop stop-color="#D82029"/>
<stop offset="1" stop-color="#0D0D0D"/>
</linearGradient>
<linearGradient id="paint27_linear_328_359" x1="163.716" y1="497.211" x2="-27.289" y2="387.86" gradientUnits="userSpaceOnUse">
<stop stop-color="#D82029"/>
<stop offset="1" stop-color="#0D0D0D"/>
</linearGradient>
<linearGradient id="paint28_linear_328_359" x1="160.766" y1="495.522" x2="-24.3393" y2="389.549" gradientUnits="userSpaceOnUse">
<stop stop-color="#D82029"/>
<stop offset="1" stop-color="#0D0D0D"/>
</linearGradient>
<linearGradient id="paint29_linear_328_359" x1="157.816" y1="493.834" x2="-21.3898" y2="391.238" gradientUnits="userSpaceOnUse">
<stop stop-color="#D82029"/>
<stop offset="1" stop-color="#0D0D0D"/>
</linearGradient>
<linearGradient id="paint30_linear_328_359" x1="154.843" y1="492.131" x2="-18.4162" y2="392.94" gradientUnits="userSpaceOnUse">
<stop stop-color="#D82029"/>
<stop offset="1" stop-color="#0D0D0D"/>
</linearGradient>
<linearGradient id="paint31_linear_328_359" x1="151.893" y1="490.443" x2="-15.4666" y2="394.629" gradientUnits="userSpaceOnUse">
<stop stop-color="#D82029"/>
<stop offset="1" stop-color="#0D0D0D"/>
</linearGradient>
<linearGradient id="paint32_linear_328_359" x1="246.913" y1="317.629" x2="85.4522" y2="225.193" gradientUnits="userSpaceOnUse">
<stop stop-color="#D82029"/>
<stop offset="1" stop-color="#0D0D0D"/>
</linearGradient>
<linearGradient id="paint33_linear_328_359" x1="145.994" y1="487.065" x2="-9.56734" y2="398.006" gradientUnits="userSpaceOnUse">
<stop stop-color="#D82029"/>
<stop offset="1" stop-color="#0D0D0D"/>
</linearGradient>
<linearGradient id="paint34_linear_328_359" x1="241.014" y1="314.252" x2="91.3514" y2="228.57" gradientUnits="userSpaceOnUse">
<stop stop-color="#D82029"/>
<stop offset="1" stop-color="#0D0D0D"/>
</linearGradient>
<linearGradient id="paint35_linear_328_359" x1="140.095" y1="483.688" x2="-3.66809" y2="401.383" gradientUnits="userSpaceOnUse">
<stop stop-color="#D82029"/>
<stop offset="1" stop-color="#0D0D0D"/>
</linearGradient>
<linearGradient id="paint36_linear_328_359" x1="137.145" y1="481.999" x2="-0.718601" y2="403.072" gradientUnits="userSpaceOnUse">
<stop stop-color="#D82029"/>
<stop offset="1" stop-color="#0D0D0D"/>
</linearGradient>
<linearGradient id="paint37_linear_328_359" x1="134.196" y1="480.311" x2="2.2311" y2="404.761" gradientUnits="userSpaceOnUse">
<stop stop-color="#D82029"/>
<stop offset="1" stop-color="#0D0D0D"/>
</linearGradient>
<linearGradient id="paint38_linear_328_359" x1="131.246" y1="478.622" x2="5.20461" y2="406.463" gradientUnits="userSpaceOnUse">
<stop stop-color="#D82029"/>
<stop offset="1" stop-color="#0D0D0D"/>
</linearGradient>
<linearGradient id="paint39_linear_328_359" x1="128.273" y1="476.92" x2="8.15427" y2="408.152" gradientUnits="userSpaceOnUse">
<stop stop-color="#D82029"/>
<stop offset="1" stop-color="#0D0D0D"/>
</linearGradient>
<linearGradient id="paint40_linear_328_359" x1="223.292" y1="304.106" x2="109.073" y2="238.716" gradientUnits="userSpaceOnUse">
<stop stop-color="#D82029"/>
<stop offset="1" stop-color="#0D0D0D"/>
</linearGradient>
<linearGradient id="paint41_linear_328_359" x1="220.343" y1="302.418" x2="112.023" y2="240.404" gradientUnits="userSpaceOnUse">
<stop stop-color="#D82029"/>
<stop offset="1" stop-color="#0D0D0D"/>
</linearGradient>
<linearGradient id="paint42_linear_328_359" x1="119.424" y1="471.854" x2="17.003" y2="413.218" gradientUnits="userSpaceOnUse">
<stop stop-color="#D82029"/>
<stop offset="1" stop-color="#0D0D0D"/>
</linearGradient>
<linearGradient id="paint43_linear_328_359" x1="214.443" y1="299.04" x2="117.922" y2="243.781" gradientUnits="userSpaceOnUse">
<stop stop-color="#D82029"/>
<stop offset="1" stop-color="#0D0D0D"/>
</linearGradient>
<linearGradient id="paint44_linear_328_359" x1="113.525" y1="468.476" x2="22.9023" y2="416.595" gradientUnits="userSpaceOnUse">
<stop stop-color="#D82029"/>
<stop offset="1" stop-color="#0D0D0D"/>
</linearGradient>
<linearGradient id="paint45_linear_328_359" x1="110.575" y1="466.788" x2="25.8517" y2="418.284" gradientUnits="userSpaceOnUse">
<stop stop-color="#D82029"/>
<stop offset="1" stop-color="#0D0D0D"/>
</linearGradient>
<linearGradient id="paint46_linear_328_359" x1="107.625" y1="465.099" x2="28.8014" y2="419.972" gradientUnits="userSpaceOnUse">
<stop stop-color="#D82029"/>
<stop offset="1" stop-color="#0D0D0D"/>
</linearGradient>
<linearGradient id="paint47_linear_328_359" x1="104.676" y1="463.41" x2="31.775" y2="421.675" gradientUnits="userSpaceOnUse">
<stop stop-color="#D82029"/>
<stop offset="1" stop-color="#0D0D0D"/>
</linearGradient>
<linearGradient id="paint48_linear_328_359" x1="101.702" y1="461.708" x2="34.7245" y2="423.363" gradientUnits="userSpaceOnUse">
<stop stop-color="#D82029"/>
<stop offset="1" stop-color="#0D0D0D"/>
</linearGradient>
<linearGradient id="paint49_linear_328_359" x1="98.7526" y1="460.019" x2="37.6743" y2="425.052" gradientUnits="userSpaceOnUse">
<stop stop-color="#D82029"/>
<stop offset="1" stop-color="#0D0D0D"/>
</linearGradient>
<linearGradient id="paint50_linear_328_359" x1="95.8029" y1="458.331" x2="40.6238" y2="426.741" gradientUnits="userSpaceOnUse">
<stop stop-color="#D82029"/>
<stop offset="1" stop-color="#0D0D0D"/>
</linearGradient>
<linearGradient id="paint51_linear_328_359" x1="92.8534" y1="456.642" x2="43.5735" y2="428.429" gradientUnits="userSpaceOnUse">
<stop stop-color="#D82029"/>
<stop offset="1" stop-color="#0D0D0D"/>
</linearGradient>
<clipPath id="clip0_328_359">
<rect width="403.791" height="394.341" fill="white" transform="translate(243.427 542.846) rotate(-150.209)"/>
</clipPath>
</defs>
</svg>
