<svg width="586" height="978" viewBox="0 0 586 978" fill="none" xmlns="http://www.w3.org/2000/svg">
<g clip-path="url(#clip0_328_360)">
<path d="M120.171 324.901C138.898 257.809 260.869 204.615 311.729 249.075C355.572 287.431 344.073 396.297 297.017 440.671C277.505 459.114 257.898 460.707 255.075 477.689C250.549 504.925 297.772 521.408 339.078 571.9C344.021 577.971 417.406 669.518 389.988 725.431C366.949 772.431 276.564 786.376 217.309 756.004C163.315 728.35 151.406 672.226 120.109 676.832C89.9924 681.289 93.1619 734.536 54.2332 756.217C-1.59993 787.317 -108.278 733.507 -111.973 682.256C-115.761 629.513 -8.61663 604.852 -11.3736 535.241C-12.4032 509.148 -28.3845 489.652 -44.7517 469.664C-88.4258 416.418 -128.056 427.859 -161.008 384.141C-184.577 352.875 -199.216 300.659 -180.503 272.554C-148.61 224.641 -17.1967 242.885 14.6029 304.94C32.7751 340.427 7.67432 369.427 30.6468 405.364C55.8638 444.728 117.59 459.182 134.871 439.824C153.492 419.005 106.212 374.922 120.171 324.901Z" stroke="url(#paint0_linear_328_360)" stroke-miterlimit="10"/>
<path d="M120.097 327.512C138.534 261.483 258.562 209.172 308.6 252.907C351.748 290.658 340.388 397.769 294.097 441.472C274.875 459.583 255.604 461.193 252.799 477.888C248.347 504.708 294.828 520.906 335.462 570.634C340.371 576.611 412.537 666.687 385.539 721.722C362.865 767.975 273.931 781.662 215.612 751.821C162.458 724.605 150.74 669.394 119.926 673.915C90.2643 678.319 93.3967 730.678 55.0944 752.043C0.154613 782.658 -104.842 729.726 -108.413 679.263C-112.106 627.343 -6.71102 603.079 -9.42027 534.611C-10.4339 508.899 -26.1561 489.773 -42.2669 470.091C-85.2351 417.703 -124.234 428.957 -156.67 385.915C-179.885 355.11 -194.275 303.741 -175.848 276.094C-144.44 228.935 -15.1395 246.925 16.1312 307.986C34.0364 342.913 9.28184 371.453 31.9555 406.799C56.7813 445.544 117.522 459.726 134.544 440.729C152.874 420.241 106.355 376.887 120.103 327.639L120.097 327.512Z" stroke="url(#paint1_linear_328_360)" stroke-miterlimit="10"/>
<path d="M119.963 330.126C138.08 265.192 256.192 213.669 305.41 256.741C347.863 293.888 336.704 399.24 291.144 442.243C272.245 460.053 253.278 461.649 250.553 478.054C246.142 504.427 291.88 520.341 331.872 569.271C336.686 575.157 407.694 663.759 381.146 717.884C358.836 763.388 271.356 776.883 213.97 747.507C161.685 720.697 150.158 666.4 119.859 670.865C90.6814 675.184 93.7793 726.717 56.1008 747.705C2.0543 777.833 -101.232 725.745 -104.768 676.108C-108.395 625.044 -4.721 601.144 -7.35343 533.785C-8.34852 508.518 -23.8169 489.634 -39.6686 470.323C-81.9627 418.763 -120.33 429.828 -152.187 387.524C-175.016 357.209 -189.157 306.688 -171.047 279.469C-140.155 233.096 -12.9398 250.736 17.8338 310.834C35.4112 345.204 11.1244 373.277 33.3777 408.038C57.7804 446.135 117.538 460.107 134.298 441.408C152.338 421.252 106.548 378.596 120.055 330.154L119.963 330.126Z" stroke="url(#paint2_linear_328_360)" stroke-miterlimit="10"/>
<path d="M119.889 332.737C137.716 268.866 253.854 218.196 302.281 260.572C344.039 297.115 333.051 400.743 288.253 443.011C269.676 460.52 251.013 462.102 248.306 478.221C243.97 504.176 288.936 519.839 328.282 567.909C333.001 573.704 402.851 660.832 376.755 714.109C354.81 758.866 268.751 772.136 212.327 743.194C160.916 716.853 149.576 663.406 119.793 667.815C91.0987 672.048 94.1303 722.726 57.0782 743.399C3.8933 773.011 -97.6511 721.798 -101.153 672.986C-104.745 622.747 -2.72823 599.273 -5.37636 532.996C-6.35553 508.109 -21.5648 489.595 -37.1601 470.59C-78.7483 419.888 -116.484 430.766 -147.855 389.171C-170.327 359.381 -184.251 309.676 -166.426 282.915C-136.052 237.266 -10.9171 254.682 19.3278 313.787C36.6381 347.597 12.6975 375.209 34.6229 409.412C58.6344 446.891 117.408 460.653 133.876 442.222C151.624 422.397 106.564 380.44 119.892 332.8L119.889 332.737Z" stroke="url(#paint3_linear_328_360)" stroke-miterlimit="10"/>
<path d="M119.816 335.348C137.352 272.539 251.547 222.753 299.15 264.34C340.212 300.279 329.425 402.148 285.358 443.715C267.075 460.957 248.745 462.491 246.088 478.353C241.855 503.859 286.049 519.271 324.724 566.576C329.377 572.247 398.072 657.965 372.393 710.301C350.812 754.31 266.205 767.323 210.717 738.91C160.146 713.008 148.996 660.475 119.697 664.799C91.4866 668.946 94.4547 718.832 58.0263 739.127C5.73475 768.253 -94.1311 717.853 -97.5667 669.897C-101.092 620.514 -0.796478 597.404 -3.39684 532.27C-4.35745 507.828 -19.342 489.59 -34.6518 470.858C-75.5341 421.014 -112.638 431.704 -143.493 390.784C-165.579 361.486 -179.255 312.628 -161.748 286.295C-131.889 241.433 -8.86809 258.532 20.9088 316.641C37.9203 349.86 14.4183 377.038 35.9234 410.656C59.5436 447.517 117.332 461.007 133.508 442.907C150.966 423.413 106.667 382.184 119.752 335.287L119.816 335.348Z" stroke="url(#paint4_linear_328_360)" stroke-miterlimit="10"/>
<path d="M119.713 337.992C136.958 276.246 249.208 227.279 295.992 268.204C336.327 303.509 325.743 403.683 282.438 444.516C264.477 461.457 246.451 462.978 243.844 478.583C239.653 503.641 283.137 518.8 321.137 565.277C325.695 570.857 393.232 655.101 367.973 706.559C346.757 749.82 263.604 762.64 209.049 734.693C159.379 709.227 148.388 657.577 119.604 661.846C91.8484 665.941 94.7794 714.938 58.9774 734.917C7.57919 763.558 -90.6054 714.036 -93.9484 666.838C-97.4079 618.31 1.13828 595.599 -1.3562 531.541C-2.29824 507.543 -16.9973 489.578 -32.0797 471.185C-72.2879 422.17 -108.728 432.702 -139.068 392.459C-160.768 363.651 -174.227 315.611 -157.005 289.736C-127.632 245.627 -6.69462 262.44 22.5217 319.525C39.2372 352.216 16.1395 378.868 37.3168 411.929C60.5139 448.141 117.319 461.421 133.265 443.649C150.433 424.487 106.893 383.923 119.739 337.895L119.713 337.992Z" stroke="url(#paint5_linear_328_360)" stroke-miterlimit="10"/>
<path d="M119.639 340.603C136.565 279.953 246.901 231.836 292.863 272.036C332.532 306.703 322.091 405.185 279.546 445.283C261.908 461.923 244.185 463.431 241.597 478.749C237.48 503.39 280.221 518.265 317.579 563.944C322.074 569.463 388.42 652.204 363.582 702.785C342.731 745.297 260.999 757.893 207.409 730.443C158.58 705.416 147.78 654.679 119.508 658.829C92.2681 662.869 95.1328 711.01 59.9546 730.612C9.47877 758.733 -87.0246 710.088 -90.3331 663.716C-93.7581 616.014 3.13083 593.727 0.652391 530.781C-0.273722 507.164 -14.7137 489.569 -29.5396 471.483C-69.042 423.326 -104.851 433.671 -134.672 394.167C-156.015 365.883 -169.228 318.627 -152.321 293.243C-123.463 249.921 -4.64032 266.417 24.0789 322.538C40.4956 354.64 17.8076 380.891 38.5936 413.333C61.3994 448.927 117.221 461.997 132.874 444.494C149.751 425.663 106.972 385.827 119.608 340.573L119.639 340.603Z" stroke="url(#paint6_linear_328_360)" stroke-miterlimit="10"/>
<path d="M119.537 343.247C136.172 283.659 244.534 236.396 289.705 275.9C328.679 309.963 318.438 406.687 276.628 446.148C259.283 462.52 241.862 463.95 239.356 479.042C235.313 503.267 277.282 517.89 313.966 562.741C318.394 568.136 383.554 649.437 359.197 699.137C338.71 740.901 258.461 753.271 205.775 726.32C157.786 701.732 147.206 651.875 119.421 656.003C92.6643 659.957 95.4628 707.243 60.911 726.53C11.3285 754.165 -83.4646 706.365 -86.7386 660.818C-90.0974 613.971 5.07087 592.049 2.63752 530.182C1.72998 507.01 -12.4853 489.69 -27.023 471.941C-65.8195 424.642 -101.057 434.801 -130.303 395.971C-151.26 368.179 -164.253 321.803 -147.634 296.814C-119.263 254.245 -2.55142 270.487 25.6681 325.582C41.8177 357.123 19.505 382.88 39.9341 414.798C62.3486 449.774 117.184 462.571 132.547 445.399C149.101 426.869 107.083 387.762 119.508 343.28L119.537 343.247Z" stroke="url(#paint7_linear_328_360)" stroke-miterlimit="10"/>
<path d="M119.431 345.828C135.776 287.303 242.193 240.86 286.544 279.701C324.823 313.159 314.754 408.159 273.705 446.885C256.683 462.957 239.565 464.372 237.107 479.144C233.167 502.919 274.363 517.292 310.405 561.346C314.738 566.65 378.74 646.476 354.803 695.298C334.681 736.315 255.854 748.461 204.162 721.974C157.046 697.854 146.653 648.847 119.352 652.89C93.0496 656.791 95.8427 703.219 61.8856 722.16C13.1647 749.28 -79.8864 702.354 -83.126 657.632C-86.3895 611.607 7.02908 590.083 4.64349 529.359C3.75186 506.568 -10.1752 489.585 -24.4856 472.175C-62.5762 425.734 -97.1823 435.706 -125.912 397.552C-146.483 370.251 -159.259 324.692 -142.926 300.161C-115.102 258.349 -0.444265 274.271 27.2782 328.403C43.1608 359.383 21.255 384.677 41.2637 416.01C63.2553 450.337 117.139 462.955 132.179 446.084C148.443 427.885 107.155 389.476 119.371 345.83L119.431 345.828Z" stroke="url(#paint8_linear_328_360)" stroke-miterlimit="10"/>
<path d="M119.358 348.438C135.412 290.976 239.886 245.417 283.444 283.499C321.028 316.353 311.127 409.564 270.843 447.62C254.143 463.39 237.329 464.792 234.921 479.307C231.023 502.635 271.509 516.754 306.847 560.013C311.085 565.226 373.932 643.642 350.441 691.49C330.684 731.759 253.279 743.681 202.552 717.69C156.305 693.976 146.074 645.916 119.288 649.903C93.4695 653.719 96.1964 699.291 62.8657 717.918C15.0381 744.551 -76.3318 698.503 -79.447 654.571C-82.676 609.371 9.08531 588.272 6.71575 528.661C5.8427 506.313 -7.85968 489.607 -21.8529 472.5C-59.2693 426.887 -93.212 436.702 -121.426 399.223C-141.611 372.414 -154.139 327.702 -138.122 303.599C-110.784 262.54 1.76086 278.209 28.9545 331.347C44.5092 361.77 23.0105 386.6 42.7204 417.343C64.3207 451.052 117.19 463.43 132 446.887C147.943 429.052 107.446 391.338 119.419 348.436L119.358 348.438Z" stroke="url(#paint9_linear_328_360)" stroke-miterlimit="10"/>
<path d="M119.255 351.083C135.019 294.683 237.518 249.976 280.286 287.364C317.143 319.583 307.446 411.099 267.922 448.421C251.515 463.923 235.035 465.279 232.677 479.537C228.853 502.448 268.564 516.252 303.292 558.744C307.464 563.833 369.123 640.809 346.084 687.809C326.721 727.296 250.77 739.025 200.915 713.504C155.541 690.259 145.497 643.049 119.195 646.95C93.8602 650.68 96.5236 695.46 63.8456 713.676C16.9114 739.823 -72.7799 694.589 -75.8289 651.512C-78.9917 607.168 11.049 586.434 8.75622 527.932C7.89908 505.965 -5.54418 489.629 -19.2809 472.828C-55.9915 428.073 -89.3025 437.7 -116.999 400.961C-136.827 374.676 -149.138 330.781 -133.374 307.167C-106.552 266.895 3.90778 282.213 30.6044 334.389C45.892 364.252 24.7686 388.587 44.0898 418.775C65.2988 451.866 117.153 464.004 131.701 447.759C147.354 430.256 107.616 393.207 119.35 351.174L119.255 351.083Z" stroke="url(#paint10_linear_328_360)" stroke-miterlimit="10"/>
<path d="M119.181 353.693C134.625 298.39 235.211 254.533 277.125 291.165C313.286 322.78 303.79 412.538 264.998 449.158C248.914 464.36 232.738 465.701 230.398 479.672C226.677 502.134 265.588 515.72 299.67 557.351C303.779 562.379 364.249 637.851 341.659 683.94C322.66 722.68 248.131 734.185 199.241 709.16C154.707 686.354 144.886 640.087 119.096 643.87C94.2455 647.515 96.8743 691.469 64.791 709.34C18.7501 735.001 -69.2309 690.611 -72.2453 648.359C-75.342 604.871 12.978 584.502 10.733 527.142C9.89445 505.62 -3.29502 489.526 -16.8044 473.065C-52.8091 429.168 -85.5201 438.577 -112.669 402.545C-132.111 376.751 -144.173 333.703 -128.727 310.517C-102.391 270.998 5.95666 286.063 32.1535 337.212C47.1424 366.484 26.4286 390.419 45.3903 420.019C66.1762 452.462 117.108 464.387 131.334 448.444C146.696 431.271 107.687 394.921 119.21 353.66L119.181 353.693Z" stroke="url(#paint11_linear_328_360)" stroke-miterlimit="10"/>
<path d="M119.108 356.304C134.261 302.063 232.902 259.027 273.996 294.996C309.462 326.007 300.137 414.04 262.078 449.959C246.316 464.86 230.444 466.187 228.154 479.902C224.476 501.916 262.675 515.248 296.086 556.115C300.099 561.052 359.411 635.05 337.242 680.262C318.607 718.253 245.5 729.535 197.604 704.973C153.911 682.606 144.309 637.22 118.975 640.95C94.61 644.572 97.1699 687.608 65.6813 705.134C20.5338 730.309 -65.7369 686.763 -68.7169 645.337C-71.7791 602.674 14.8837 582.73 12.623 526.452C11.7713 505.344 -1.13006 489.586 -14.383 473.432C-49.7136 430.363 -81.7612 439.614 -108.394 404.258C-127.451 378.955 -139.296 336.724 -124.135 313.996C-98.3462 275.234 7.91871 290.012 33.6185 340.198C48.3403 368.91 28.0018 392.351 46.6065 421.427C67.0012 453.251 116.918 464.937 130.882 449.291C145.954 432.45 107.706 396.828 119.018 356.34L119.108 356.304Z" stroke="url(#paint12_linear_328_360)" stroke-miterlimit="10"/>
<path d="M118.973 358.918C133.836 305.739 230.502 263.557 270.806 298.83C305.577 329.236 296.424 415.545 259.125 450.729C243.654 465.299 228.118 466.643 225.876 480.037C222.271 501.635 259.727 514.683 292.465 554.722C296.412 559.534 354.537 632.092 332.787 676.426C314.518 713.67 242.893 724.724 195.901 700.663C153.109 678.731 143.637 634.261 118.847 637.903C94.9661 641.44 97.4916 683.65 66.6267 700.797C22.3408 725.457 -62.217 682.819 -65.1043 642.151C-68.1002 600.344 16.8127 580.797 14.658 525.596C13.8539 504.899 1.17992 489.481 -11.8166 473.633C-46.4413 431.422 -77.8571 440.486 -103.975 405.806C-122.674 381.027 -134.242 339.61 -119.427 317.343C-94.1245 279.334 10.0575 293.826 35.2285 343.018C49.6225 371.173 29.7517 394.147 47.9651 422.605C67.9685 453.811 116.87 465.257 130.604 449.939C145.385 433.43 107.867 398.506 118.971 358.855L118.973 358.918Z" stroke="url(#paint13_linear_328_360)" stroke-miterlimit="10"/>
<path d="M118.9 361.529C133.472 309.413 228.196 268.114 267.706 302.629C301.782 332.43 292.829 416.981 256.263 451.464C241.085 465.766 225.882 467.063 223.69 480.201C220.159 501.381 256.873 514.145 288.967 553.387C292.819 558.108 349.818 629.223 328.518 672.646C310.613 709.141 240.411 719.972 194.383 696.407C152.432 674.914 143.179 631.325 118.873 634.881C95.4758 638.332 97.935 679.687 67.6966 696.519C24.3039 720.693 -58.5435 678.899 -61.3964 639.057C-64.3261 598.105 18.8662 578.923 16.7592 524.864C15.9419 504.581 3.55349 489.437 -9.15484 473.925C-43.0737 432.573 -73.8579 441.448 -99.4573 407.508C-117.771 383.221 -129.151 342.654 -114.593 320.812C-89.8049 283.59 12.2625 297.764 36.9364 345.993C51.0634 373.588 31.5387 396.101 49.4244 424.001C69.0048 454.559 116.984 465.792 130.396 450.776C144.886 434.597 108.129 400.402 118.99 361.493L118.9 361.529Z" stroke="url(#paint14_linear_328_360)" stroke-miterlimit="10"/>
<path d="M118.826 364.14C133.078 313.12 225.886 272.607 264.577 306.46C297.958 335.658 289.177 418.483 253.372 452.232C238.516 466.233 223.585 467.486 221.475 480.397C218.047 501.128 253.96 513.674 285.38 552.087C289.137 556.718 344.978 626.359 324.098 668.904C306.557 704.652 237.809 715.289 192.715 692.19C151.604 671.136 142.571 628.427 118.751 631.961C95.8085 635.359 98.2623 675.856 68.6185 692.343C26.1483 715.998 -55.018 675.081 -57.8364 636.064C-60.7025 595.904 20.8035 577.181 18.7125 524.234C17.9429 504.363 5.78184 489.558 -6.67005 474.352C-39.9147 433.828 -70.0355 442.546 -95.1194 409.282C-113.047 385.486 -124.178 345.766 -109.937 324.352C-85.6357 287.883 14.3196 301.805 38.4938 349.007C52.322 376.011 33.2361 398.091 50.7014 425.406C69.8904 455.345 116.854 466.339 130.005 451.621C144.204 435.773 108.206 402.243 118.829 364.203L118.826 364.14Z" stroke="url(#paint15_linear_328_360)" stroke-miterlimit="10"/>
<path d="M118.723 366.784C132.685 316.826 223.55 277.198 261.419 310.324C294.073 338.887 285.524 419.985 250.451 453.033C235.918 466.733 221.29 467.972 219.199 480.596C215.814 500.88 251.015 513.172 281.793 550.788C285.484 555.294 340.138 623.495 319.707 665.13C302.531 700.129 235.234 710.509 191.073 687.877C150.864 667.258 141.96 625.466 118.653 628.881C96.1938 632.194 98.5814 671.835 69.564 688.007C27.9872 711.176 -51.5005 671.073 -54.2527 632.912C-57.0526 593.608 22.7327 575.249 20.6868 523.381C19.904 503.924 7.99941 489.425 -4.16432 474.556C-36.7031 434.89 -66.2239 443.39 -90.7606 410.832C-108.302 387.527 -119.216 348.625 -105.29 327.702C-81.5356 291.99 16.366 305.591 40.0431 351.83C53.6042 378.274 34.8645 399.893 52.002 426.65C70.7997 455.972 116.748 466.725 129.669 452.335C143.578 436.819 108.31 403.987 118.721 366.721L118.723 366.784Z" stroke="url(#paint16_linear_328_360)" stroke-miterlimit="10"/>
<path d="M118.65 369.395C132.321 320.5 221.212 281.724 258.29 314.156C290.249 342.114 281.84 421.456 247.53 453.834C233.291 467.266 218.996 468.458 216.955 480.826C213.644 500.692 248.071 512.67 278.177 549.522C281.804 553.967 335.268 620.664 315.289 661.451C298.478 695.702 232.603 705.859 189.407 683.723C150.038 663.543 141.354 622.631 118.533 626.024C96.5582 629.252 98.8823 668.1 70.5177 683.862C29.8342 706.544 -47.9723 667.319 -50.6001 629.947C-53.3339 591.498 24.7308 573.504 22.7327 522.779C21.9976 503.733 10.3494 489.54 -1.61871 474.981C-33.4517 436.173 -62.3407 444.485 -86.391 412.636C-103.575 389.856 -114.273 351.77 -100.603 331.273C-77.3347 296.314 18.4549 309.661 41.6032 354.907C54.8365 380.793 36.5328 401.916 53.3107 428.085C71.6855 456.758 116.712 467.299 129.31 453.21C142.867 438.028 108.421 405.922 118.621 369.428L118.65 369.395Z" stroke="url(#paint17_linear_328_360)" stroke-miterlimit="10"/>
<path d="M118.515 372.009C131.896 324.176 218.841 286.221 255.098 317.926C286.361 345.281 278.123 422.898 244.575 454.541C230.658 467.672 216.668 468.85 214.645 480.931C211.407 500.381 245.092 512.075 274.524 548.098C278.085 552.42 330.362 617.676 310.803 657.585C294.357 691.088 229.935 701.052 187.672 679.382C149.176 659.671 140.651 619.642 118.374 622.947C96.8854 626.152 99.1407 664.082 71.4025 679.528C31.5805 701.695 -44.4839 663.344 -47.0773 626.797C-49.7765 589.174 26.6309 571.605 24.6488 521.992C23.9323 503.39 12.5088 489.474 0.828873 475.251C-30.2982 437.301 -58.5556 445.426 -82.0586 414.283C-98.8887 391.964 -109.306 354.756 -95.953 334.686C-73.2001 300.514 20.4748 313.544 43.1551 357.794C56.1214 383.12 38.2247 403.778 54.6139 429.393C72.5974 457.448 116.609 467.749 128.945 453.958C142.212 439.108 108.495 407.699 118.455 372.011L118.515 372.009Z" stroke="url(#paint18_linear_328_360)" stroke-miterlimit="10"/>
<path d="M118.442 374.62C131.503 327.883 216.535 290.778 251.969 321.758C282.537 348.508 274.5 424.366 241.715 455.339C228.121 468.169 214.434 469.333 212.491 481.124C209.324 500.094 242.24 511.6 271.059 546.793C274.525 551.024 325.675 614.836 306.534 653.805C290.452 686.56 227.482 696.266 186.154 675.126C148.499 655.854 140.193 616.706 118.4 619.925C97.3952 623.044 99.6159 660.149 72.4724 675.25C33.5438 696.931 -40.8104 659.424 -43.3692 623.703C-46.0022 586.935 28.6845 569.731 26.7792 521.227C26.0495 503.039 14.9142 489.459 3.5198 475.51C-26.9331 438.388 -54.5561 446.388 -77.5145 415.889C-93.9587 394.06 -104.159 357.669 -91.1206 338.091C-68.883 304.705 22.7381 317.416 44.8896 360.672C57.5571 385.407 40.0383 405.635 56.068 430.663C73.6602 458.099 116.656 468.16 128.731 454.668C141.707 440.148 108.752 409.468 118.5 374.553L118.442 374.62Z" stroke="url(#paint19_linear_328_360)" stroke-miterlimit="10"/>
<path d="M118.368 377.231C131.139 331.557 214.196 295.304 248.84 325.589C278.712 351.735 270.847 425.869 238.824 456.107C225.522 468.669 212.169 469.787 210.244 481.29C207.152 499.843 239.324 511.065 267.44 545.464C270.811 549.603 320.803 611.942 302.082 650.033C286.365 682.04 224.817 691.522 184.454 670.879C147.668 652.013 139.553 613.778 118.247 616.974C97.7251 620.008 99.8796 656.257 73.3625 671.044C35.3272 692.239 -37.3458 655.61 -39.841 620.68C-42.4078 584.768 30.5582 567.928 28.669 520.537C27.9869 502.76 17.108 489.487 5.941 475.876C-23.8061 439.613 -50.8291 447.395 -73.2402 417.602C-89.2984 396.265 -99.2503 360.721 -86.5288 341.57C-64.7775 308.938 24.6999 321.365 46.3544 363.658C58.7548 387.833 41.643 407.597 57.284 432.07C74.4532 458.858 116.527 468.707 128.311 455.545C140.996 441.357 108.8 411.342 118.278 377.266L118.368 377.231Z" stroke="url(#paint20_linear_328_360)" stroke-miterlimit="10"/>
<path d="M118.266 379.875C130.745 335.263 211.889 299.861 245.682 329.454C274.859 354.995 267.194 427.371 235.903 456.907C222.924 469.169 209.875 470.273 208 481.52C204.982 499.656 236.411 510.594 263.885 544.195C267.189 548.21 315.995 609.108 297.755 646.318C282.402 677.578 222.308 686.867 182.907 666.657C146.994 648.259 139.037 610.907 118.244 613.985C98.2058 616.934 100.326 652.357 74.4324 666.766C37.2905 687.474 -33.6722 651.69 -36.1039 617.552C-38.6362 582.465 32.6435 566.084 30.8284 519.739C30.1333 502.376 19.5108 489.409 8.63192 476.135C-20.4093 440.73 -46.8006 448.324 -68.7253 419.241C-84.4265 398.428 -94.1616 363.701 -81.6964 344.975C-60.4921 313.1 26.9341 325.27 48.0889 366.536C60.1614 390.154 43.4566 409.455 58.7672 433.306C75.5451 459.476 116.604 469.085 128.097 456.255C140.492 442.398 109.025 413.081 118.324 379.808L118.266 379.875Z" stroke="url(#paint21_linear_328_360)" stroke-miterlimit="10"/>
<path d="M118.192 382.486C130.381 338.937 209.551 304.388 242.553 333.285C271.003 358.192 263.542 428.873 233.012 457.675C220.355 469.636 207.639 470.693 205.785 481.716C202.809 499.405 233.527 510.089 260.298 542.895C263.539 546.85 311.155 606.244 293.335 642.577C278.347 673.088 219.703 682.12 181.207 662.409C146.134 644.451 138.429 608.009 118.09 611.035C98.5066 613.931 100.589 648.466 75.3225 662.56C39.0739 682.782 -30.2102 647.811 -32.5757 614.53C-35.0127 580.265 34.5172 564.281 32.7499 519.079C32.1024 502.128 21.7073 489.5 11.0848 476.533C-17.2822 441.955 -43.0101 449.392 -64.3875 421.015C-79.7028 400.693 -89.1892 366.813 -77.0385 348.579C-56.3205 317.457 28.9912 329.311 49.6488 369.614C61.4543 392.671 45.1565 411.508 60.0784 434.805C76.465 460.356 116.509 469.725 127.74 457.193C139.844 443.667 109.139 415.079 118.226 382.579L118.192 382.486Z" stroke="url(#paint22_linear_328_360)" stroke-miterlimit="10"/>
<path d="M118.087 385.066C129.924 342.583 207.181 308.885 239.422 337.053C267.176 361.355 259.916 430.278 230.088 458.413C217.754 470.073 205.31 471.085 203.507 481.852C200.633 499.091 230.551 509.557 256.708 541.533C259.854 545.396 306.315 603.38 288.941 638.738C274.318 668.501 217.128 677.34 179.565 658.096C145.393 640.573 137.818 605.048 117.992 607.955C98.8921 610.765 100.911 644.508 76.2681 658.224C40.8811 677.93 -26.661 643.834 -28.992 611.377C-31.3628 577.968 36.4465 562.349 34.7269 518.289C34.0662 501.752 23.9567 489.397 13.5616 476.769C-14.0995 443.05 -39.1958 450.299 -60.0577 422.598C-74.987 402.768 -84.2565 369.705 -72.3912 351.929C-52.1885 321.593 31.0403 333.16 51.1374 372.439C62.6441 394.906 46.7533 413.279 61.3183 436.052C77.2819 460.955 116.374 470.145 127.312 457.881C139.125 444.686 109.15 416.796 117.997 385.102L118.087 385.066Z" stroke="url(#paint23_linear_328_360)" stroke-miterlimit="10"/>
<path d="M117.984 387.71C129.531 346.29 204.874 313.442 236.232 340.887C263.32 364.552 256.202 431.783 227.136 459.183C215.095 470.575 202.984 471.541 201.26 482.018C198.461 498.84 227.604 508.992 253.118 540.17C256.198 543.909 301.472 600.453 284.55 634.964C270.292 663.979 214.524 672.594 177.925 653.846C144.595 636.762 137.238 602.117 117.928 604.969C99.3435 607.723 101.265 640.58 77.248 653.981C42.7834 673.169 -23.1065 639.983 -25.3739 608.318C-27.6785 575.765 38.4101 560.511 36.7356 517.53C36.1226 501.404 26.2404 489.389 16.1308 477.034C-10.8245 444.173 -35.289 451.234 -55.6354 424.209C-70.2078 404.903 -79.1997 372.655 -67.6515 355.306C-47.935 325.724 33.1792 336.974 52.7792 375.29C64.0189 397.197 48.4743 415.109 62.6797 437.294C78.252 461.579 116.358 470.495 127.037 458.593C138.56 445.729 109.314 418.538 117.981 387.647L117.984 387.71Z" stroke="url(#paint24_linear_328_360)" stroke-miterlimit="10"/>
<path d="M117.911 390.321C129.167 349.963 202.535 317.968 233.103 344.718C259.496 367.779 252.518 433.254 224.245 459.951C212.495 471.012 200.719 471.994 199.013 482.184C196.288 498.589 224.688 508.457 249.531 538.87C252.516 542.518 296.632 597.589 280.13 631.222C266.265 659.456 211.92 667.847 176.286 649.596C143.796 632.95 136.63 599.219 117.803 601.985C99.6735 604.687 101.59 636.686 78.1964 649.709C44.6251 668.41 -19.5545 636.069 -21.7267 605.227C-23.9968 573.498 40.4346 558.669 38.7762 516.801C38.1499 501.089 28.5242 489.38 18.7028 477.362C-7.57837 445.329 -31.4112 452.202 -51.2393 425.917C-65.4257 407.102 -74.2298 375.703 -62.967 358.813C-43.7976 329.988 35.2654 340.981 54.3657 378.271C65.2775 399.62 50.2007 417.065 64.0465 438.662C79.2275 462.329 116.35 471.036 126.736 459.401C137.968 446.869 109.512 420.373 117.908 390.258L117.911 390.321Z" stroke="url(#paint25_linear_328_360)" stroke-miterlimit="10"/>
<path d="M117.808 392.965C128.774 353.67 200.199 322.559 229.945 348.583C255.643 371.039 248.865 434.757 221.324 460.752C209.896 471.512 198.425 472.48 196.769 482.413C194.115 498.339 221.775 507.986 245.944 537.571C248.834 541.128 291.792 594.725 275.739 627.447C262.239 654.933 209.347 663.13 174.647 645.346C143.029 629.169 136.051 596.288 117.739 598.999C100.093 601.615 101.975 632.789 79.1764 645.466C46.4984 663.682 -15.9709 632.185 -18.1086 602.168C-20.3125 571.295 42.3982 556.831 40.7875 516.105C40.1799 500.837 30.8396 489.402 21.2456 477.723C-4.32966 446.548 -27.5308 453.234 -46.8117 427.655C-60.6121 409.331 -69.1676 378.78 -58.222 362.318C-39.5387 334.246 37.3805 344.955 55.9838 381.282C66.6286 402.071 51.927 419.022 65.3842 440.064C80.1422 463.083 116.282 471.58 126.406 460.243C137.318 448.075 109.621 422.244 117.808 392.965Z" stroke="url(#paint26_linear_328_360)" stroke-miterlimit="10"/>
<path d="M117.734 395.576C128.38 357.376 197.861 327.085 226.845 352.381C251.816 374.203 245.241 436.225 218.461 461.486C207.327 471.979 196.189 472.9 194.583 482.576C192.003 498.085 218.891 507.481 242.447 536.236C245.302 539.699 287.041 591.825 271.44 623.7C258.305 650.437 206.835 658.411 173.1 641.123C142.351 625.352 135.564 593.385 117.736 596.01C100.574 598.541 102.389 628.859 80.217 641.221C48.4324 658.951 -12.3267 628.298 -14.4299 599.107C-16.5676 569.09 44.4225 554.99 42.8886 515.374C42.2969 500.486 33.2158 489.421 23.8782 478.048C-0.99123 447.732 -23.5607 454.23 -42.326 429.327C-55.7405 411.494 -64.0791 381.76 -53.4188 365.756C-35.2509 338.471 39.6145 348.86 57.689 384.193C68.035 404.391 53.743 420.942 66.8407 441.397C81.2073 463.797 116.361 472.022 126.194 461.016C136.784 449.149 109.88 424.077 117.824 395.54L117.734 395.576Z" stroke="url(#paint27_linear_328_360)" stroke-miterlimit="10"/>
<path d="M117.661 398.187C128.016 361.05 195.551 331.579 223.716 356.212C247.992 377.43 241.618 437.694 215.541 462.287C204.729 472.479 193.895 473.386 192.307 482.776C189.801 497.867 215.947 506.979 238.799 534.939C241.559 538.311 282.172 588.994 266.989 619.927C254.25 645.948 204.199 653.634 171.368 636.845C141.46 621.513 134.863 590.459 117.55 593.029C100.872 595.474 102.653 624.967 81.0755 636.985C50.1525 654.198 -8.92531 624.423 -10.9332 596.054C-13.0364 566.862 46.2964 553.187 44.7468 514.653C44.1737 500.21 35.3172 489.42 26.2678 478.385C2.07256 448.896 -19.8335 455.236 -38.1124 431.043C-51.1699 413.735 -59.2916 384.817 -48.9168 369.271C-31.2351 342.74 41.4867 352.845 59.0641 387.215C69.1139 406.886 55.2263 422.91 67.9353 442.81C81.9107 464.592 116.081 472.607 125.653 461.899C135.952 450.364 109.777 425.989 117.513 398.289L117.661 398.187Z" stroke="url(#paint28_linear_328_360)" stroke-miterlimit="10"/>
<path d="M117.526 400.801C127.591 364.726 193.183 336.139 220.526 360.046C244.107 380.659 237.904 439.199 212.588 463.058C202.099 472.948 191.568 473.842 190.032 482.975C187.568 497.619 213.002 506.477 235.212 533.64C237.877 536.921 277.332 586.13 262.569 616.186C250.194 641.458 201.597 648.951 169.699 632.629C140.664 617.765 134.255 587.562 117.426 590.046C101.202 592.438 102.917 621.075 82.0237 632.712C51.994 649.44 -5.37352 620.509 -7.31788 592.931C-9.3258 564.562 48.2282 551.318 46.7555 513.894C46.1982 499.832 37.63 489.378 28.8052 478.619C5.31585 449.988 -15.9902 456.111 -33.6901 432.654C-46.3617 415.837 -54.2348 387.767 -44.1771 372.649C-27.0107 346.904 43.6281 356.723 60.7058 390.066C70.4569 409.146 56.9789 424.77 69.3574 444.049C82.9098 465.183 116.097 472.988 125.407 462.578C135.415 451.374 109.971 427.698 117.526 400.801Z" stroke="url(#paint29_linear_328_360)" stroke-miterlimit="10"/>
<path d="M117.452 403.412C127.227 368.4 190.845 340.665 217.397 363.878C240.282 383.886 234.251 440.701 209.728 463.856C199.532 473.479 189.335 474.325 187.846 483.138C185.485 497.333 210.147 505.94 231.654 532.307C234.253 535.464 272.521 583.233 258.207 612.378C246.197 636.902 199.022 644.171 168.118 628.312C139.923 613.888 133.704 584.597 117.391 587.026C101.682 589.364 103.331 617.145 83.0327 628.437C53.8963 644.679 -1.76093 616.592 -3.6708 589.84C-5.61251 562.326 50.2208 549.447 48.8249 513.132C48.2862 499.514 39.9427 489.337 31.4061 478.914C8.62262 451.141 -12.0517 457.076 -29.2361 434.295C-41.5217 417.97 -49.178 390.716 -39.4056 376.056C-22.7572 351.035 45.7988 360.567 62.3793 392.947C71.8634 411.467 58.7607 426.597 70.7505 445.321C83.8826 465.87 116.112 473.369 125.132 463.29C134.85 452.417 110.195 429.437 117.479 403.315L117.452 403.412Z" stroke="url(#paint30_linear_328_360)" stroke-miterlimit="10"/>
<path d="M117.379 406.023C126.863 372.073 188.567 345.189 214.236 367.679C236.426 387.083 230.596 442.14 206.805 464.593C196.932 473.915 187.038 474.748 185.599 483.304C183.312 497.082 207.171 505.407 228.096 530.975C230.6 534.041 267.71 580.336 253.848 608.633C242.203 632.409 196.51 639.452 166.51 624.092C139.217 610.104 133.157 581.697 117.327 584.04C102.102 586.292 103.684 613.218 84.0127 624.195C55.7697 639.95 1.82277 612.708 -0.0526112 586.781C-1.95983 560.092 52.2162 547.639 50.8364 512.436C50.3453 499.229 42.2291 489.391 33.949 479.275C11.8714 452.361 -8.2003 458.141 -24.8401 436.003C-36.7687 420.201 -44.1474 393.762 -34.6921 379.53C-18.559 355.295 47.914 364.541 63.9658 395.927C73.1828 413.888 60.4553 428.523 72.0883 446.723C84.829 466.653 116.076 473.943 124.802 464.132C134.229 453.59 110.304 431.308 117.379 406.023Z" stroke="url(#paint31_linear_328_360)" stroke-miterlimit="10"/>
<path d="M117.276 408.667C126.44 375.813 186.2 349.749 211.107 371.51C232.602 390.31 226.943 443.642 203.914 465.361C194.362 474.382 184.741 475.17 183.384 483.5C181.171 496.861 204.287 504.903 224.538 529.643C226.946 532.617 262.898 577.439 249.457 604.858C238.176 627.886 193.906 634.705 164.871 619.842C138.418 606.293 132.609 578.796 117.263 581.054C102.493 583.253 104.07 609.321 84.9927 619.952C57.6721 635.189 5.37725 608.857 3.56542 583.722C1.72441 557.889 54.1798 545.8 52.8477 511.74C52.3435 498.947 44.5129 489.383 36.4919 479.636C15.0884 453.55 -4.31993 459.172 -20.4733 437.744C-32.0159 422.433 -39.2068 396.844 -30.0369 383.071C-14.39 359.589 49.9393 368.551 65.5231 398.941C74.4123 416.344 62.1235 430.546 73.3652 448.128C85.7146 467.44 115.946 474.489 124.443 465.007C133.579 454.797 110.415 433.242 117.247 408.7L117.276 408.667Z" stroke="url(#paint32_linear_328_360)" stroke-miterlimit="10"/>
<path d="M117.203 411.278C126.076 379.487 183.861 354.276 207.978 375.341C228.746 393.507 223.32 445.111 200.993 466.162C191.764 474.882 182.447 475.656 181.108 483.699C178.938 496.613 201.343 504.401 220.89 528.346C223.264 531.227 258.029 574.608 245.005 601.086C234.089 623.366 191.241 629.961 163.17 615.595C137.558 602.484 131.94 575.901 117.109 578.103C102.823 580.217 104.334 605.429 85.9119 615.713C59.453 630.433 8.90018 604.976 7.18363 580.664C5.40884 555.686 56.1436 543.962 54.8565 510.98C54.3709 498.632 46.7967 489.374 39.0321 479.934C18.3345 454.705 -0.442091 460.14 -16.0482 439.418C-27.2048 424.599 -34.1471 399.857 -25.2944 386.511C-10.1628 363.817 52.1127 372.459 67.1677 401.855C75.7898 418.698 63.8763 432.406 74.7902 449.43C86.7166 468.094 115.994 474.9 124.2 465.75C133.045 455.87 110.611 435.014 117.234 411.308L117.203 411.278Z" stroke="url(#paint33_linear_328_360)" stroke-miterlimit="10"/>
<path d="M117.097 413.858C125.68 383.13 181.552 358.77 204.818 379.142C224.89 396.703 219.604 446.552 198.07 466.899C189.134 475.352 180.15 476.079 178.861 483.865C176.794 496.329 198.427 503.866 217.332 527.013C219.611 529.803 253.218 571.71 240.646 597.342C230.095 618.874 188.729 625.242 161.592 611.342C136.881 598.667 131.422 572.967 117.074 575.084C103.272 577.112 104.748 601.499 86.921 611.438C61.3553 625.672 12.481 601.028 10.8307 577.572C9.09041 553.42 58.1679 542.121 56.8969 510.251C56.4273 498.284 49.1121 489.396 41.633 480.228C21.6413 455.859 3.46467 461.075 -11.5942 441.06C-22.3648 426.732 -29.0902 402.807 -20.5229 389.919C-5.90928 367.948 54.2543 376.336 68.8122 404.769C77.1355 421.021 65.6317 434.329 76.1542 450.735C87.6893 468.781 115.983 475.378 123.867 466.528C132.421 456.98 110.717 436.822 117.129 413.888L117.097 413.858Z" stroke="url(#paint34_linear_328_360)" stroke-miterlimit="10"/>
<path d="M116.995 416.502C125.287 386.837 179.184 363.329 201.66 383.007C221.037 399.964 215.951 448.054 195.149 467.7C186.536 475.852 177.856 476.565 176.615 484.031C174.621 496.079 195.482 503.364 213.743 525.651C215.926 528.35 248.375 568.783 236.252 593.503C226.066 614.287 186.122 620.432 159.918 606.998C136.048 594.762 130.779 569.976 116.976 572.004C103.657 573.946 105.038 597.511 87.8666 607.102C63.1943 620.85 16.0304 597.051 14.4145 574.419C12.7404 551.123 60.0973 540.188 58.9031 509.429C58.452 497.906 51.3906 489.26 44.1389 480.432C24.8213 456.89 7.30812 461.95 -7.23519 442.61C-17.6807 428.776 -24.1257 405.729 -15.8438 393.299C-1.7455 372.114 56.3642 380.183 70.3934 407.623C78.4497 423.315 67.321 436.128 77.4867 452.01C88.6305 469.437 115.909 475.795 123.563 467.273C131.798 458.09 110.913 438.594 117.084 416.466L116.995 416.502Z" stroke="url(#paint35_linear_328_360)" stroke-miterlimit="10"/>
<path d="M116.921 419.113C124.894 390.543 176.877 367.886 198.531 386.838C217.213 403.191 212.298 449.556 192.258 468.468C183.967 476.319 175.591 477.018 174.4 484.227C172.448 495.828 192.599 502.86 210.187 524.382C212.305 526.956 243.567 565.949 231.864 589.792C222.042 609.828 183.521 615.749 158.281 602.812C135.283 591.044 130.202 567.108 116.854 569.084C104.022 571.004 105.365 593.68 88.7884 602.926C65.0094 616.188 19.5267 593.266 17.9744 571.427C16.3956 548.953 62.0027 538.416 60.8563 508.799C60.4211 497.657 53.6188 489.381 46.6235 480.86C28.0118 458.176 11.1303 463.047 -2.92653 444.417C-12.986 431.074 -19.2142 408.844 -11.2177 396.873C2.39439 376.441 58.3604 384.226 71.9215 410.67C79.65 425.804 68.9892 438.151 78.7661 453.478C89.487 470.257 115.812 476.371 123.174 468.181C131.119 459.329 110.964 440.531 116.895 419.21L116.921 419.113Z" stroke="url(#paint36_linear_328_360)" stroke-miterlimit="10"/>
<path d="M116.818 421.757C124.501 394.25 174.539 372.413 195.402 390.67C213.389 406.418 208.646 451.058 189.366 469.236C181.337 476.788 173.326 477.471 172.153 484.393C170.276 495.577 189.683 502.325 206.598 523.019C208.62 525.502 238.695 563.055 227.47 585.953C218.013 605.242 180.975 610.936 156.639 598.498C134.482 587.17 129.591 564.147 116.788 566.034C104.439 567.869 105.716 589.689 89.7949 598.587C66.8775 611.333 23.1368 589.286 21.6481 568.239C20.1038 546.59 64.0536 536.478 62.8915 507.943C62.4749 497.246 55.8973 489.246 49.1902 481.061C31.2844 459.235 15.0346 463.919 1.52499 445.995C-8.14851 433.144 -14.1281 411.76 -6.4487 400.217C6.64807 380.572 60.5312 388.07 73.5635 413.52C81.0249 428.094 70.7103 439.981 80.1567 454.687C90.4863 470.847 115.828 476.752 122.897 468.83C130.551 460.309 111.125 442.209 116.877 421.691L116.818 421.757Z" stroke="url(#paint37_linear_328_360)" stroke-miterlimit="10"/>
<path d="M116.745 424.368C124.136 397.924 172.2 376.94 192.241 394.471C209.533 409.614 204.99 452.497 186.414 470.006C178.707 477.258 171 477.927 169.877 484.593C168.103 495.326 186.707 501.793 202.981 521.753C204.94 524.176 233.857 560.254 223.053 582.275C213.96 600.815 178.344 606.286 154.973 594.345C133.686 583.422 128.985 561.312 116.637 563.147C104.771 564.896 106.014 585.891 90.6876 594.444C68.6636 606.705 26.6332 585.501 25.1789 565.279C23.7008 544.486 65.9009 534.772 64.8447 507.314C64.444 496.997 58.1546 489.334 51.6749 481.488C34.4432 460.49 18.8568 465.017 5.86274 447.769C-3.45385 435.442 -9.18751 414.843 -1.82256 403.79C10.7272 384.902 62.5565 392.08 75.0917 416.567C82.2543 430.551 72.3467 441.973 81.4362 456.155C91.3745 471.697 115.701 477.362 122.509 469.738C129.84 461.518 111.208 444.177 116.718 424.465L116.745 424.368Z" stroke="url(#paint38_linear_328_360)" stroke-miterlimit="10"/>
<path d="M116.639 426.949C123.74 401.567 169.861 381.467 189.08 398.272C205.645 412.781 201.306 453.968 183.49 470.744C176.106 477.694 168.703 478.35 167.63 484.759C165.93 495.076 183.762 501.291 199.392 520.39C201.284 522.689 229.015 557.327 218.63 578.47C209.902 596.262 175.739 601.539 153.331 590.031C132.916 579.577 128.403 558.318 116.57 560.097C105.159 561.794 106.365 581.9 91.6648 590.138C70.5341 601.913 30.214 581.554 28.7942 562.157C27.3823 542.22 67.8617 532.87 66.8533 506.554C66.4711 496.682 60.4382 489.325 54.2439 481.753C37.7181 461.613 22.7317 465.921 10.2558 449.413C1.32524 437.577 -4.22061 417.828 2.888 407.201C14.9515 389.066 64.6688 395.991 76.7043 419.451C83.5999 432.874 74.0702 443.866 82.7684 457.43C92.2837 472.324 115.627 477.779 122.205 470.483C129.245 462.594 111.343 445.952 116.642 427.012L116.639 426.949Z" stroke="url(#paint39_linear_328_360)" stroke-miterlimit="10"/>
<path d="M116.537 429.593C123.318 405.307 167.494 386.027 185.922 402.136C201.792 416.041 197.653 455.47 180.57 471.544C173.508 478.194 166.377 478.805 165.355 484.958C163.696 494.827 180.818 500.789 195.805 519.09C197.602 521.298 224.175 554.463 214.239 574.695C205.876 591.739 173.164 596.759 151.692 585.781C132.117 575.766 127.795 555.42 116.474 557.081C105.548 558.692 106.719 577.973 92.6132 585.866C72.3758 597.154 33.7052 577.643 32.3808 559.068C31.0034 539.956 69.8255 531.032 68.8331 505.828C68.4378 496.37 62.6613 489.319 56.7552 482.083C40.9353 462.802 26.5806 466.922 14.6202 451.091C6.07562 439.746 0.778358 420.844 7.56986 410.645C19.118 393.296 66.7207 399.904 78.2275 422.371C84.7952 435.237 75.7015 445.732 84.0429 458.771C93.1668 473.047 115.556 478.259 121.811 471.264C128.561 463.707 111.449 447.76 116.508 429.626L116.537 429.593Z" stroke="url(#paint40_linear_328_360)" stroke-miterlimit="10"/>
<path d="M116.463 432.204C122.954 408.98 165.216 390.551 182.822 405.934C197.996 419.235 194.029 456.939 177.739 472.309C170.971 478.692 164.172 479.256 163.23 485.118C161.645 494.571 178.023 500.248 192.307 517.755C194.01 519.872 219.424 551.563 209.941 570.948C201.971 587.211 170.652 592.04 150.113 581.528C131.408 571.919 127.276 552.486 116.442 554.125C105.999 555.65 107.136 574.106 93.6221 581.59C74.3071 592.36 37.3177 573.726 36.0886 555.974C34.7774 537.717 71.8789 529.157 70.9315 505.033C70.5839 495.986 65.0638 489.241 59.3534 482.315C44.2076 463.862 30.5163 467.824 19.1032 452.699C10.9446 441.845 5.86421 423.76 12.3412 414.052C23.4032 397.458 68.923 403.779 79.9009 425.252C86.2016 437.558 77.5149 447.589 85.465 460.01C94.1976 473.668 115.571 478.64 121.565 471.944C128.024 464.717 111.642 449.468 116.46 432.14L116.463 432.204Z" stroke="url(#paint41_linear_328_360)" stroke-miterlimit="10"/>
<path d="M116.39 434.815C122.59 412.654 162.878 395.077 179.693 409.766C194.201 422.429 190.374 458.378 174.847 473.077C168.402 479.158 161.907 479.709 160.983 485.284C159.502 494.287 175.108 499.714 188.75 516.423C190.386 518.415 214.613 548.666 205.579 567.14C197.974 582.655 168.109 587.291 148.503 577.245C130.67 568.104 126.697 549.555 116.376 551.075C106.416 552.515 107.458 570.148 94.5996 577.285C76.1462 587.538 40.8988 569.778 39.7042 552.852C38.4592 535.45 73.84 527.256 72.9404 504.274C72.5796 495.64 67.316 489.202 61.8937 482.612C47.4538 465.017 34.3652 468.826 23.4967 454.343C15.6949 444.014 10.8631 426.776 17.0521 417.463C27.5987 401.655 71.0039 407.659 81.4848 428.169C87.4867 439.884 79.1779 449.485 86.8001 461.348C95.1098 474.357 115.532 479.151 121.232 472.722C127.401 465.826 111.748 451.276 116.387 434.751L116.39 434.815Z" stroke="url(#paint42_linear_328_360)" stroke-miterlimit="10"/>
<path d="M116.287 437.459C122.196 416.361 160.51 399.637 176.535 413.63C190.348 425.689 186.692 459.913 171.927 473.878C165.803 479.658 159.613 480.195 158.739 485.514C157.3 494.07 172.166 499.275 185.162 515.123C186.704 517.025 209.805 545.832 201.159 563.398C193.918 578.165 165.505 582.544 146.863 572.995C129.871 564.293 126.149 546.655 116.312 548.089C106.839 549.506 107.843 566.251 95.5795 573.042C78.0194 582.81 44.4823 565.894 43.3221 549.793C42.1407 533.184 75.8352 525.447 74.9517 503.578C74.6385 495.356 69.6022 489.257 64.4655 482.94C50.7314 466.204 38.2428 469.794 27.8925 456.051C20.4767 446.213 15.8618 429.792 21.7654 420.937C31.7941 405.852 73.119 411.633 83.1001 431.116C88.835 442.271 80.9332 451.408 88.135 462.687C96.0534 475.078 115.49 479.598 120.931 473.531C126.809 466.966 111.917 453.144 116.313 437.362L116.287 437.459Z" stroke="url(#paint43_linear_328_360)" stroke-miterlimit="10"/>
<path d="M116.182 440.039C121.772 420.037 158.201 404.131 173.343 417.401C186.46 428.855 182.976 461.354 168.943 474.618C163.113 480.131 157.255 480.62 156.432 485.682C155.066 493.822 169.19 498.743 181.515 513.827C183.022 515.634 204.904 542.971 196.678 559.659C189.802 573.678 162.811 577.833 145.134 568.781C129.014 560.548 125.451 543.793 116.097 545.141C107.108 546.473 108.046 562.362 96.4089 568.839C79.7422 578.121 47.8864 562.082 46.7897 546.773C45.6745 531.019 77.6484 523.648 76.8416 502.887C76.547 495.11 71.7646 489.254 66.8869 483.307C53.8587 467.428 42.0017 470.831 32.167 457.764C25.1372 448.417 20.7709 432.843 26.3283 424.449C35.8417 410.151 75.0811 415.582 84.5651 434.102C89.9721 444.7 82.5064 453.34 89.3513 464.094C96.8783 475.867 115.3 480.147 120.479 474.378C126.037 468.178 111.904 455.021 116.092 440.075L116.182 440.039Z" stroke="url(#paint44_linear_328_360)" stroke-miterlimit="10"/>
<path d="M116.079 442.683C121.378 423.744 155.833 408.691 170.185 421.265C182.575 432.085 179.323 462.856 166.022 475.419C160.514 480.631 154.961 481.106 154.156 485.881C152.893 493.571 166.213 498.211 177.896 512.497C179.308 514.214 200.032 540.076 192.287 555.884C185.776 569.155 160.238 573.117 143.494 564.531C128.244 556.703 124.872 540.862 116.033 542.155C107.528 543.401 108.431 558.465 97.4179 564.563C81.6445 573.359 51.4989 558.165 50.4658 543.648C49.4168 528.75 79.67 521.743 78.8793 502.095C78.5716 494.731 74.0772 489.212 69.456 483.572C57.102 468.521 45.9084 471.766 36.6209 459.405C29.9481 450.583 25.8277 435.793 31.0997 427.857C40.1268 414.313 77.2542 419.49 86.2095 437.017C91.3494 447.054 84.2299 455.233 90.7443 465.366C97.8484 476.49 115.318 480.591 120.204 475.09C125.472 469.221 112.129 456.76 116.076 442.62L116.079 442.683Z" stroke="url(#paint45_linear_328_360)" stroke-miterlimit="10"/>
<path d="M116.005 445.294C121.014 427.417 153.526 413.248 167.085 425.063C178.78 435.279 175.7 464.325 163.16 476.154C157.974 481.065 152.725 481.526 151.97 486.045C150.75 493.287 163.358 497.673 174.37 511.195C175.686 512.82 195.252 537.21 187.928 552.14C181.781 564.663 157.694 568.368 141.887 560.311C127.477 552.922 124.324 537.961 115.94 539.202C107.889 540.396 108.756 554.571 98.3687 560.354C83.4887 568.664 55.0217 554.284 54.0548 540.623C53.0403 526.55 81.6072 520.001 80.8616 501.432C80.6015 494.48 76.3345 489.3 71.9697 483.966C60.3215 469.773 49.7597 472.83 40.9586 461.179C34.6718 452.848 30.7709 438.939 35.7548 431.398C44.2667 418.64 79.2795 423.5 87.7668 440.03C92.6079 449.477 85.9271 457.222 92.0529 466.801C98.7656 477.307 115.249 481.135 119.845 475.965C124.821 470.428 112.209 458.664 115.915 445.33L116.005 445.294Z" stroke="url(#paint46_linear_328_360)" stroke-miterlimit="10"/>
<path d="M115.932 447.905C120.65 431.091 151.216 417.741 163.956 428.895C174.956 438.506 172.076 465.794 160.268 476.921C155.376 481.565 150.46 481.979 149.752 486.177C148.606 493.003 160.443 497.138 170.809 509.799C172.059 511.3 190.439 534.249 183.563 548.268C177.782 560.043 155.148 563.555 140.242 555.934C126.705 549.014 123.711 534.936 115.871 536.089C108.304 537.197 109.136 550.546 99.3435 555.985C85.325 563.779 58.6 550.273 57.6676 537.437C56.7193 524.22 83.5655 518.036 82.8968 500.576C82.6235 494.038 78.6421 489.131 74.5047 484.137C63.5623 470.802 53.6322 473.672 45.3467 462.697C39.4458 454.857 35.7618 441.764 40.463 434.745C48.4569 422.71 81.4185 427.313 89.377 442.851C93.922 451.77 87.6164 459.022 93.4144 468.043C99.7358 477.931 115.205 481.519 119.57 476.677C124.256 471.471 112.373 460.406 115.9 447.875L115.932 447.905Z" stroke="url(#paint47_linear_328_360)" stroke-miterlimit="10"/>
<path d="M115.829 450.549C120.227 434.831 148.849 422.301 160.798 432.759C171.102 441.766 168.394 467.329 157.347 477.722C152.778 482.065 148.163 482.402 147.508 486.407C146.436 492.816 157.53 496.667 167.222 508.5C168.377 509.91 185.63 531.415 179.175 544.557C173.758 555.584 152.547 558.871 138.634 551.714C125.967 545.2 123.163 532.036 115.839 533.133C108.755 534.155 109.492 546.682 100.355 551.773C87.23 559.081 62.1863 546.453 61.3174 534.409C60.4353 522.047 85.5609 516.228 84.9399 499.911C84.7142 493.784 80.9601 489.217 77.1083 484.495C66.8401 471.989 57.5417 474.67 49.8034 464.402C44.2885 457.053 40.8531 444.807 45.2372 438.216C52.7157 426.968 83.5627 431.254 91.0241 445.828C95.2704 454.157 89.4035 460.975 94.7811 469.412C100.68 478.651 115.197 482.06 119.24 477.519C123.603 472.614 112.513 462.307 115.797 450.519L115.829 450.549Z" stroke="url(#paint48_linear_328_360)" stroke-miterlimit="10"/>
<path d="M115.724 453.13C119.832 438.474 146.51 426.828 157.637 436.56C167.247 444.963 164.71 468.801 154.395 478.493C150.116 482.504 145.837 482.858 145.201 486.576C144.231 492.534 154.554 496.134 163.574 507.203C164.666 508.553 180.729 528.554 174.723 540.784C169.671 551.063 149.911 554.094 136.934 547.467C125.139 541.422 122.494 529.141 115.653 530.152C109.056 531.152 109.756 542.791 101.243 547.503C89.0109 554.325 65.6774 542.542 64.9039 531.32C64.0563 519.783 87.5246 514.389 86.917 499.121C86.6782 493.408 83.1805 489.147 79.6168 484.762C70.0545 473.114 61.3878 475.608 54.1968 466.046C49.0388 459.221 45.8493 447.76 49.948 441.626C56.9403 431.132 85.7044 435.132 92.637 448.712C96.6163 456.481 91.1246 462.805 96.1744 470.684C101.682 479.305 115.213 482.441 118.965 478.231C123.038 473.657 112.678 464.049 115.753 453.097L115.724 453.13Z" stroke="url(#paint49_linear_328_360)" stroke-miterlimit="10"/>
<path d="M115.65 455.741C119.436 442.117 144.201 431.321 154.537 440.359C163.42 448.126 161.084 470.206 151.533 479.228C147.576 482.938 143.601 483.278 143.015 486.739C142.088 492.251 151.67 495.63 160.045 505.838C161.071 507.063 175.947 525.624 170.361 536.977C165.674 546.507 147.367 549.345 135.324 543.184C124.369 537.578 121.944 526.177 115.619 527.133C109.505 528.047 110.138 538.83 102.252 543.228C90.9423 549.531 69.29 538.625 68.551 528.228C67.7987 517.514 89.5172 512.518 88.9573 498.392C88.7662 493.09 85.525 489.136 82.1886 485.09C73.3322 474.3 65.2972 476.606 58.5926 467.753C53.8206 461.42 50.8189 450.809 54.6322 445.133C61.1093 435.426 87.7587 439.108 94.2233 451.693C97.9038 458.871 92.8218 464.795 97.4803 472.055C102.596 480.058 115.112 482.954 118.603 479.043C122.385 474.8 112.784 465.857 115.618 455.71L115.65 455.741Z" stroke="url(#paint50_linear_328_360)" stroke-miterlimit="10"/>
<path d="M115.547 458.385C119.042 445.824 141.865 435.912 151.348 444.193C159.535 451.356 157.37 471.711 148.58 479.998C144.917 483.44 141.275 483.733 140.739 486.938C139.886 492.033 148.725 495.128 156.458 504.538C157.389 505.672 171.078 522.793 165.973 533.265C161.65 542.048 144.765 544.662 133.687 538.997C123.573 533.83 121.367 523.309 115.526 524.179C109.896 525.008 110.495 534.966 103.203 539.019C92.7866 544.836 72.8447 534.774 72.1401 525.202C71.454 515.344 91.4519 510.712 90.9397 497.729C90.7355 492.842 87.7507 489.193 84.7025 485.484C76.5202 475.522 69.1486 477.671 62.9596 469.494C58.5736 463.652 55.8205 453.888 59.3167 448.641C65.2758 439.656 89.845 443.116 95.7808 454.706C99.1651 461.357 94.4875 466.754 98.789 473.49C103.482 480.845 115.046 483.561 118.276 479.948C121.767 476.036 112.927 467.822 115.521 458.481L115.547 458.385Z" stroke="url(#paint51_linear_328_360)" stroke-miterlimit="10"/>
</g>
<defs>
<linearGradient id="paint0_linear_328_360" x1="-151.008" y1="235.022" x2="400.867" y2="719.353" gradientUnits="userSpaceOnUse">
<stop stop-color="#D82029"/>
<stop offset="1" stop-color="#0D0D0D"/>
</linearGradient>
<linearGradient id="paint1_linear_328_360" x1="59.2033" y1="4.33954" x2="602.309" y2="480.974" gradientUnits="userSpaceOnUse">
<stop stop-color="#D82029"/>
<stop offset="1" stop-color="#0D0D0D"/>
</linearGradient>
<linearGradient id="paint2_linear_328_360" x1="-142.601" y1="243.066" x2="391.8" y2="712.062" gradientUnits="userSpaceOnUse">
<stop stop-color="#D82029"/>
<stop offset="1" stop-color="#0D0D0D"/>
</linearGradient>
<linearGradient id="paint3_linear_328_360" x1="-138.382" y1="247.103" x2="387.249" y2="708.402" gradientUnits="userSpaceOnUse">
<stop stop-color="#D82029"/>
<stop offset="1" stop-color="#0D0D0D"/>
</linearGradient>
<linearGradient id="paint4_linear_328_360" x1="-134.163" y1="251.14" x2="382.699" y2="704.743" gradientUnits="userSpaceOnUse">
<stop stop-color="#D82029"/>
<stop offset="1" stop-color="#0D0D0D"/>
</linearGradient>
<linearGradient id="paint5_linear_328_360" x1="-129.975" y1="255.147" x2="378.182" y2="701.111" gradientUnits="userSpaceOnUse">
<stop stop-color="#D82029"/>
<stop offset="1" stop-color="#0D0D0D"/>
</linearGradient>
<linearGradient id="paint6_linear_328_360" x1="-125.756" y1="259.184" x2="373.631" y2="697.452" gradientUnits="userSpaceOnUse">
<stop stop-color="#D82029"/>
<stop offset="1" stop-color="#0D0D0D"/>
</linearGradient>
<linearGradient id="paint7_linear_328_360" x1="-121.569" y1="263.191" x2="369.082" y2="693.791" gradientUnits="userSpaceOnUse">
<stop stop-color="#D82029"/>
<stop offset="1" stop-color="#0D0D0D"/>
</linearGradient>
<linearGradient id="paint8_linear_328_360" x1="-117.35" y1="267.228" x2="364.564" y2="690.16" gradientUnits="userSpaceOnUse">
<stop stop-color="#D82029"/>
<stop offset="1" stop-color="#0D0D0D"/>
</linearGradient>
<linearGradient id="paint9_linear_328_360" x1="-113.13" y1="271.265" x2="360.014" y2="686.501" gradientUnits="userSpaceOnUse">
<stop stop-color="#D82029"/>
<stop offset="1" stop-color="#0D0D0D"/>
</linearGradient>
<linearGradient id="paint10_linear_328_360" x1="97.0493" y1="40.5522" x2="561.457" y2="448.121" gradientUnits="userSpaceOnUse">
<stop stop-color="#D82029"/>
<stop offset="1" stop-color="#0D0D0D"/>
</linearGradient>
<linearGradient id="paint11_linear_328_360" x1="-104.724" y1="279.309" x2="350.947" y2="679.21" gradientUnits="userSpaceOnUse">
<stop stop-color="#D82029"/>
<stop offset="1" stop-color="#0D0D0D"/>
</linearGradient>
<linearGradient id="paint12_linear_328_360" x1="-100.504" y1="283.346" x2="346.396" y2="675.55" gradientUnits="userSpaceOnUse">
<stop stop-color="#D82029"/>
<stop offset="1" stop-color="#0D0D0D"/>
</linearGradient>
<linearGradient id="paint13_linear_328_360" x1="-96.3171" y1="287.352" x2="341.879" y2="671.918" gradientUnits="userSpaceOnUse">
<stop stop-color="#D82029"/>
<stop offset="1" stop-color="#0D0D0D"/>
</linearGradient>
<linearGradient id="paint14_linear_328_360" x1="113.894" y1="56.6703" x2="543.321" y2="433.539" gradientUnits="userSpaceOnUse">
<stop stop-color="#D82029"/>
<stop offset="1" stop-color="#0D0D0D"/>
</linearGradient>
<linearGradient id="paint15_linear_328_360" x1="-87.9104" y1="295.396" x2="332.779" y2="664.598" gradientUnits="userSpaceOnUse">
<stop stop-color="#D82029"/>
<stop offset="1" stop-color="#0D0D0D"/>
</linearGradient>
<linearGradient id="paint16_linear_328_360" x1="-83.6913" y1="299.434" x2="328.262" y2="660.968" gradientUnits="userSpaceOnUse">
<stop stop-color="#D82029"/>
<stop offset="1" stop-color="#0D0D0D"/>
</linearGradient>
<linearGradient id="paint17_linear_328_360" x1="-79.472" y1="303.471" x2="323.711" y2="657.308" gradientUnits="userSpaceOnUse">
<stop stop-color="#D82029"/>
<stop offset="1" stop-color="#0D0D0D"/>
</linearGradient>
<linearGradient id="paint18_linear_328_360" x1="-75.2846" y1="307.477" x2="319.162" y2="653.647" gradientUnits="userSpaceOnUse">
<stop stop-color="#D82029"/>
<stop offset="1" stop-color="#0D0D0D"/>
</linearGradient>
<linearGradient id="paint19_linear_328_360" x1="-71.0653" y1="311.514" x2="314.644" y2="650.017" gradientUnits="userSpaceOnUse">
<stop stop-color="#D82029"/>
<stop offset="1" stop-color="#0D0D0D"/>
</linearGradient>
<linearGradient id="paint20_linear_328_360" x1="-66.8461" y1="315.552" x2="310.093" y2="646.357" gradientUnits="userSpaceOnUse">
<stop stop-color="#D82029"/>
<stop offset="1" stop-color="#0D0D0D"/>
</linearGradient>
<linearGradient id="paint21_linear_328_360" x1="-62.6586" y1="319.558" x2="305.544" y2="642.697" gradientUnits="userSpaceOnUse">
<stop stop-color="#D82029"/>
<stop offset="1" stop-color="#0D0D0D"/>
</linearGradient>
<linearGradient id="paint22_linear_328_360" x1="-58.4394" y1="323.596" x2="301.026" y2="639.066" gradientUnits="userSpaceOnUse">
<stop stop-color="#D82029"/>
<stop offset="1" stop-color="#0D0D0D"/>
</linearGradient>
<linearGradient id="paint23_linear_328_360" x1="-54.2202" y1="327.633" x2="296.476" y2="635.407" gradientUnits="userSpaceOnUse">
<stop stop-color="#D82029"/>
<stop offset="1" stop-color="#0D0D0D"/>
</linearGradient>
<linearGradient id="paint24_linear_328_360" x1="-50.0328" y1="331.639" x2="291.959" y2="631.775" gradientUnits="userSpaceOnUse">
<stop stop-color="#D82029"/>
<stop offset="1" stop-color="#0D0D0D"/>
</linearGradient>
<linearGradient id="paint25_linear_328_360" x1="-45.8135" y1="335.676" x2="287.408" y2="628.115" gradientUnits="userSpaceOnUse">
<stop stop-color="#D82029"/>
<stop offset="1" stop-color="#0D0D0D"/>
</linearGradient>
<linearGradient id="paint26_linear_328_360" x1="-41.626" y1="339.683" x2="282.859" y2="624.455" gradientUnits="userSpaceOnUse">
<stop stop-color="#D82029"/>
<stop offset="1" stop-color="#0D0D0D"/>
</linearGradient>
<linearGradient id="paint27_linear_328_360" x1="-37.407" y1="343.72" x2="278.341" y2="620.824" gradientUnits="userSpaceOnUse">
<stop stop-color="#D82029"/>
<stop offset="1" stop-color="#0D0D0D"/>
</linearGradient>
<linearGradient id="paint28_linear_328_360" x1="-33.1877" y1="347.758" x2="273.791" y2="617.165" gradientUnits="userSpaceOnUse">
<stop stop-color="#D82029"/>
<stop offset="1" stop-color="#0D0D0D"/>
</linearGradient>
<linearGradient id="paint29_linear_328_360" x1="-29.0003" y1="351.764" x2="269.241" y2="613.504" gradientUnits="userSpaceOnUse">
<stop stop-color="#D82029"/>
<stop offset="1" stop-color="#0D0D0D"/>
</linearGradient>
<linearGradient id="paint30_linear_328_360" x1="-24.7812" y1="355.801" x2="264.723" y2="609.873" gradientUnits="userSpaceOnUse">
<stop stop-color="#D82029"/>
<stop offset="1" stop-color="#0D0D0D"/>
</linearGradient>
<linearGradient id="paint31_linear_328_360" x1="-20.5619" y1="359.838" x2="260.173" y2="606.214" gradientUnits="userSpaceOnUse">
<stop stop-color="#D82029"/>
<stop offset="1" stop-color="#0D0D0D"/>
</linearGradient>
<linearGradient id="paint32_linear_328_360" x1="-16.3744" y1="363.845" x2="255.656" y2="602.582" gradientUnits="userSpaceOnUse">
<stop stop-color="#D82029"/>
<stop offset="1" stop-color="#0D0D0D"/>
</linearGradient>
<linearGradient id="paint33_linear_328_360" x1="-12.1552" y1="367.882" x2="251.106" y2="598.923" gradientUnits="userSpaceOnUse">
<stop stop-color="#D82029"/>
<stop offset="1" stop-color="#0D0D0D"/>
</linearGradient>
<linearGradient id="paint34_linear_328_360" x1="-7.93601" y1="371.919" x2="246.555" y2="595.263" gradientUnits="userSpaceOnUse">
<stop stop-color="#D82029"/>
<stop offset="1" stop-color="#0D0D0D"/>
</linearGradient>
<linearGradient id="paint35_linear_328_360" x1="202.244" y1="141.207" x2="448.031" y2="356.912" gradientUnits="userSpaceOnUse">
<stop stop-color="#D82029"/>
<stop offset="1" stop-color="#0D0D0D"/>
</linearGradient>
<linearGradient id="paint36_linear_328_360" x1="0.470681" y1="379.963" x2="237.488" y2="587.972" gradientUnits="userSpaceOnUse">
<stop stop-color="#D82029"/>
<stop offset="1" stop-color="#0D0D0D"/>
</linearGradient>
<linearGradient id="paint37_linear_328_360" x1="4.65824" y1="383.97" x2="232.939" y2="584.311" gradientUnits="userSpaceOnUse">
<stop stop-color="#D82029"/>
<stop offset="1" stop-color="#0D0D0D"/>
</linearGradient>
<linearGradient id="paint38_linear_328_360" x1="8.87738" y1="388.007" x2="228.421" y2="580.681" gradientUnits="userSpaceOnUse">
<stop stop-color="#D82029"/>
<stop offset="1" stop-color="#0D0D0D"/>
</linearGradient>
<linearGradient id="paint39_linear_328_360" x1="219.088" y1="157.325" x2="429.862" y2="342.302" gradientUnits="userSpaceOnUse">
<stop stop-color="#D82029"/>
<stop offset="1" stop-color="#0D0D0D"/>
</linearGradient>
<linearGradient id="paint40_linear_328_360" x1="17.2841" y1="396.051" x2="219.321" y2="573.36" gradientUnits="userSpaceOnUse">
<stop stop-color="#D82029"/>
<stop offset="1" stop-color="#0D0D0D"/>
</linearGradient>
<linearGradient id="paint41_linear_328_360" x1="21.5031" y1="400.088" x2="214.803" y2="569.73" gradientUnits="userSpaceOnUse">
<stop stop-color="#D82029"/>
<stop offset="1" stop-color="#0D0D0D"/>
</linearGradient>
<linearGradient id="paint42_linear_328_360" x1="25.7224" y1="404.125" x2="210.252" y2="566.071" gradientUnits="userSpaceOnUse">
<stop stop-color="#D82029"/>
<stop offset="1" stop-color="#0D0D0D"/>
</linearGradient>
<linearGradient id="paint43_linear_328_360" x1="29.9098" y1="408.132" x2="205.736" y2="562.439" gradientUnits="userSpaceOnUse">
<stop stop-color="#D82029"/>
<stop offset="1" stop-color="#0D0D0D"/>
</linearGradient>
<linearGradient id="paint44_linear_328_360" x1="34.1292" y1="412.169" x2="201.185" y2="558.779" gradientUnits="userSpaceOnUse">
<stop stop-color="#D82029"/>
<stop offset="1" stop-color="#0D0D0D"/>
</linearGradient>
<linearGradient id="paint45_linear_328_360" x1="38.3165" y1="416.176" x2="196.636" y2="555.118" gradientUnits="userSpaceOnUse">
<stop stop-color="#D82029"/>
<stop offset="1" stop-color="#0D0D0D"/>
</linearGradient>
<linearGradient id="paint46_linear_328_360" x1="42.5356" y1="420.213" x2="192.118" y2="551.488" gradientUnits="userSpaceOnUse">
<stop stop-color="#D82029"/>
<stop offset="1" stop-color="#0D0D0D"/>
</linearGradient>
<linearGradient id="paint47_linear_328_360" x1="252.747" y1="189.531" x2="393.559" y2="313.109" gradientUnits="userSpaceOnUse">
<stop stop-color="#D82029"/>
<stop offset="1" stop-color="#0D0D0D"/>
</linearGradient>
<linearGradient id="paint48_linear_328_360" x1="50.9423" y1="428.257" x2="183.018" y2="544.168" gradientUnits="userSpaceOnUse">
<stop stop-color="#D82029"/>
<stop offset="1" stop-color="#0D0D0D"/>
</linearGradient>
<linearGradient id="paint49_linear_328_360" x1="55.1616" y1="432.294" x2="178.5" y2="540.537" gradientUnits="userSpaceOnUse">
<stop stop-color="#D82029"/>
<stop offset="1" stop-color="#0D0D0D"/>
</linearGradient>
<linearGradient id="paint50_linear_328_360" x1="59.3808" y1="436.331" x2="173.949" y2="536.878" gradientUnits="userSpaceOnUse">
<stop stop-color="#D82029"/>
<stop offset="1" stop-color="#0D0D0D"/>
</linearGradient>
<linearGradient id="paint51_linear_328_360" x1="63.5683" y1="440.338" x2="169.433" y2="533.246" gradientUnits="userSpaceOnUse">
<stop stop-color="#D82029"/>
<stop offset="1" stop-color="#0D0D0D"/>
</linearGradient>
<clipPath id="clip0_328_360">
<rect width="734.944" height="624.583" fill="white" transform="matrix(0.722525 0.691344 -0.659615 0.751604 54.9841 0.30249)"/>
</clipPath>
</defs>
</svg>
