<svg width="656" height="95" viewBox="0 0 656 95" fill="none" xmlns="http://www.w3.org/2000/svg">
<path d="M16.1093 -0.00012207C11.8368 -0.00012207 7.73938 1.65853 4.7183 4.61095C1.69722 7.56336 0 11.5677 0 15.743V78.7157C0 82.8911 1.69722 86.8954 4.7183 89.8478C7.73938 92.8002 11.8368 94.4589 16.1093 94.4589H80.5464C84.8189 94.4589 88.9164 92.8002 91.9374 89.8478C94.9585 86.8954 96.6557 82.8911 96.6557 78.7157V15.743C96.6557 11.5677 94.9585 7.56336 91.9374 4.61095C88.9164 1.65853 84.8189 -0.00012207 80.5464 -0.00012207H16.1093ZM55.4911 68.5089C59.3574 71.5526 63.2128 73.0482 67.0683 73.0115C69.431 73.0115 71.246 72.5916 72.5025 71.7415C73.0892 71.3693 73.5666 70.8542 73.8877 70.2469C74.2088 69.6396 74.3625 68.961 74.3336 68.278C74.3414 67.5331 74.182 66.7955 73.8665 66.1173C73.5511 65.4391 73.0873 64.8368 72.5079 64.3527C71.246 63.2769 68.8618 62.2011 65.3554 61.1201C61.1455 59.9289 57.8914 58.3913 55.6093 56.5021C53.3647 54.6129 52.2263 51.9786 52.1834 48.5938C52.1834 45.3979 53.601 42.7268 56.4362 40.57C59.1963 38.4185 62.7188 37.3374 67.0146 37.3374C72.9966 37.3374 77.8025 38.7596 81.4217 41.6091L77.287 47.9011C75.7984 46.7695 74.0904 45.9447 72.2663 45.4766C70.627 44.9408 68.9146 44.6489 67.1865 44.6108C65.146 44.6108 63.5082 44.9781 62.2839 45.7075C61.0649 46.4422 60.4582 47.4026 60.4582 48.5938C60.4582 49.9057 61.2046 51.0182 62.6973 51.9418C64.2009 52.8287 66.7569 53.81 70.3761 54.8858C74.7471 56.1558 77.8616 57.8508 79.7088 59.9656C81.5613 62.0804 82.4849 64.7778 82.4849 68.0471C82.4849 71.3951 81.1693 74.2814 78.5274 76.7058C75.9285 79.0936 72.1481 80.3425 67.1865 80.458C60.6891 80.458 55.2549 78.553 50.8839 74.7432L55.4911 68.5089ZM25.7963 71.857C27.0582 72.6284 28.5725 73.0115 30.3445 73.0115C32.1971 73.0115 33.7275 72.4919 34.9518 71.4529C36.1707 70.3771 36.7829 68.5089 36.7829 65.8536V38.0301H44.757V67.3544C44.6388 71.8937 43.3018 75.1683 40.7404 77.1676C39.3428 78.329 37.7136 79.1939 35.9559 79.7075C34.328 80.1923 32.637 80.445 30.9352 80.458C27.9818 80.458 25.3614 79.9594 23.0792 78.9571C20.636 77.8813 18.5901 75.9764 16.9362 73.2424L22.4886 68.7975C23.5088 70.1462 24.615 71.1643 25.7963 71.857Z" fill="black"/>
<path d="M292.164 -0.00012207L299.538 84.0198L334.219 94.2771L369.111 84.0245L376.274 -0.00012207H292.164ZM357.812 28.5093H320.551L321.355 38.0125H357.321L354.396 68.959L334.556 75.4688L314.551 68.6101L313.206 54.7891H322.663L323.411 61.4404L334.626 65.2822L345.588 61.6855L346.976 47.5203H312.799L310.173 19.0015H358.826L357.812 28.5093Z" fill="black"/>
<path d="M571.782 -0.00012207L579.156 82.4185L613.837 92.4285L648.734 82.4231L655.892 -0.00012207H571.782ZM633.93 68.0366L613.87 73.6008H613.837L593.758 68.0366L592.371 53.4005H602.221L602.922 60.4528L613.833 63.4059L624.767 60.4482L625.912 46.3528H591.941L591.067 37.0823H626.767L627.58 27.8117H590.118L589.296 18.5411H638.388L633.93 68.0366Z" fill="black"/>
</svg>
