<svg width="663" height="112" viewBox="0 0 663 112" fill="none" xmlns="http://www.w3.org/2000/svg">
<path fill-rule="evenodd" clip-rule="evenodd" d="M5.07363 12.0736C8.16214 8.98511 12.3511 7.25 16.7189 7.25H33.1854V71.6208H16.7189C12.3517 71.6208 8.16337 69.886 5.07529 66.7979C1.98722 63.7098 0.252359 59.5215 0.252359 55.1543C0.252359 50.7871 1.98722 46.5988 5.07529 43.5107C6.97415 41.6119 9.28901 40.2246 11.8057 39.4378C9.28838 38.6509 6.97293 37.2635 5.07363 35.3641C1.98511 32.2756 0.25 28.0867 0.25 23.7189C0.25 19.3511 1.98511 15.1621 5.07363 12.0736ZM16.7189 38.6878C12.7489 38.6878 8.9415 37.1107 6.13429 34.3035C3.32708 31.4963 1.75 27.6889 1.75 23.7189C1.75 19.7489 3.32708 15.9415 6.13429 13.1343C8.9415 10.3271 12.7489 8.75 16.7189 8.75H31.6854V38.6878H16.7189ZM31.6854 40.1878H16.7189C12.7495 40.1878 8.94272 41.7646 6.13595 44.5714C3.32918 47.3781 1.75236 51.1849 1.75236 55.1543C1.75236 59.1237 3.32918 62.9305 6.13595 65.7372C8.94272 68.544 12.7495 70.1208 16.7189 70.1208H31.6854V40.1878Z" fill="black"/>
<path fill-rule="evenodd" clip-rule="evenodd" d="M48.1544 40.1854C44.1844 40.1854 40.377 41.7625 37.5698 44.5697C34.7626 47.3769 33.1855 51.1843 33.1855 55.1543C33.1855 59.1243 34.7626 62.9317 37.5698 65.7389C40.377 68.5461 44.1844 70.1232 48.1544 70.1232C52.1244 70.1232 55.9318 68.5461 58.739 65.7389C61.5462 62.9317 63.1233 59.1243 63.1233 55.1543C63.1233 51.1843 61.5462 47.3769 58.739 44.5697C55.9318 41.7625 52.1244 40.1854 48.1544 40.1854ZM36.5091 43.509C39.5976 40.4205 43.7866 38.6854 48.1544 38.6854C52.5222 38.6854 56.7111 40.4205 59.7997 43.509C62.8882 46.5976 64.6233 50.7865 64.6233 55.1543C64.6233 59.5221 62.8882 63.7111 59.7997 66.7996C56.7111 69.8881 52.5222 71.6232 48.1544 71.6232C43.7866 71.6232 39.5976 69.8881 36.5091 66.7996C33.4206 63.7111 31.6855 59.5221 31.6855 55.1543C31.6855 50.7865 33.4206 46.5976 36.5091 43.509ZM16.719 71.6256C13.7583 71.6256 10.865 72.4989 8.40448 74.1428C5.94335 75.7872 4.02505 78.1244 2.89214 80.8589C1.75922 83.5934 1.46258 86.6024 2.0397 89.5055C2.61682 92.4086 4.0418 95.0754 6.13446 97.1687C8.22711 99.262 10.8935 100.688 13.7964 101.266C16.6993 101.844 19.7085 101.548 22.4433 100.416C25.1782 99.2838 27.5159 97.3662 29.161 94.9056C30.806 92.445 31.6846 89.5519 31.6855 86.5921C31.6855 86.592 31.6855 86.5922 31.6855 86.5921V71.6256H16.719ZM7.57118 72.8956C10.2796 71.086 13.4632 70.1256 16.719 70.1256H33.1855V86.5921C33.1845 89.8486 32.218 93.032 30.408 95.7393C28.598 98.4465 26.026 100.556 23.017 101.802C20.0081 103.047 16.6974 103.373 13.5035 102.737C10.3096 102.101 7.37603 100.532 5.07364 98.2292C2.77125 95.9261 1.20345 92.9921 0.568487 89.798C-0.0664769 86.604 0.259903 83.2933 1.50636 80.2848C2.75282 77.2762 4.86338 74.7048 7.57118 72.8956Z" fill="black"/>
<path fill-rule="evenodd" clip-rule="evenodd" d="M31.6853 7.25H48.1518C52.5197 7.25 56.7086 8.98511 59.7971 12.0736C62.8856 15.1621 64.6207 19.3511 64.6207 23.7189C64.6207 28.0867 62.8856 32.2756 59.7971 35.3641C56.7086 38.4527 52.5197 40.1878 48.1518 40.1878H31.6853V7.25ZM33.1853 8.75V38.6878H48.1518C52.1218 38.6878 55.9292 37.1107 58.7364 34.3035C61.5436 31.4963 63.1207 27.6889 63.1207 23.7189C63.1207 19.7489 61.5436 15.9415 58.7364 13.1343C55.9292 10.3271 52.1218 8.75 48.1518 8.75H33.1853Z" fill="black"/>
<path d="M389.55 54.181V58.5042L389.425 59.1972C389.214 61.0868 389.064 62.9764 388.773 64.8218C387.778 70.8094 385.622 76.5472 382.425 81.7156C377.724 89.4827 370.891 95.7509 362.73 99.7819C357.98 102.156 352.849 103.684 347.569 104.294C346.387 104.439 345.209 104.568 344.047 104.693H298.524C298.293 104.653 298.083 104.589 297.848 104.568C293.283 104.294 288.805 103.206 284.626 101.357C275.452 97.2879 268.623 90.7165 264.154 81.6753C262.189 77.67 260.914 73.3649 260.381 68.9395L260 65.7082V61.5099C260.04 61.2802 260.105 61.0465 260.125 60.8169C260.356 56.808 261.178 52.8837 262.615 49.1286C266.473 39.0358 273.222 31.5418 282.792 26.6747C287.702 24.1985 293.085 22.7894 298.585 22.5409C301.305 22.416 304.025 22.5409 306.701 22.9196C306.842 22.9359 306.985 22.9216 307.12 22.8778C307.255 22.834 307.379 22.7616 307.483 22.6658C311.308 18.6916 315.795 15.4053 320.745 12.9517C325.521 10.5608 330.681 9.02 335.991 8.39888C337.258 8.25383 338.521 8.1249 339.764 8H343.642C343.897 8.04029 344.169 8.08461 344.403 8.10476C346.343 8.33441 348.261 8.48349 350.18 8.8179C356.063 9.82516 361.714 11.9847 366.754 15.1757C374.516 19.993 380.734 26.9165 384.676 35.1317C387.036 39.9585 388.554 45.164 389.166 50.4944L389.546 54.1891L389.55 54.181ZM317.102 26.2476C317.187 26.3523 317.207 26.4168 317.247 26.4168C319.903 27.7585 322.453 29.3137 324.858 31.0744C325.004 31.1792 325.384 31.1389 325.575 31.0341C332.153 26.7955 339.323 25.3491 346.998 26.7109C354.524 28.0768 360.661 31.8721 365.341 37.9601C370.632 44.8417 372.657 52.6298 371.203 61.2722C370.211 67.0659 367.912 72.2876 364.013 76.6349C356.888 84.5883 347.966 87.8841 337.469 86.4981C331.016 85.6359 325.429 82.8034 320.81 78.0814C314.883 72.0378 308.916 66.0144 302.973 59.9708C302.171 59.1529 301.309 58.5243 300.167 58.3753C299.212 58.2436 298.239 58.4241 297.395 58.8899C296.551 59.3556 295.882 60.0813 295.488 60.9579C294.726 62.5534 294.836 64.3786 296.5 66.0345C303.119 72.622 309.677 79.274 316.3 85.8655C317.438 86.9977 318.66 88.0493 319.947 88.9921C324.777 92.5376 330.238 94.5119 336.141 95.3096C340.78 95.918 345.375 95.7931 349.929 94.7415C358.637 92.7673 365.847 88.2789 371.519 81.3328C376.161 75.6927 379.107 68.8613 380.016 61.6267C380.601 57.405 380.488 53.1164 379.68 48.9312C378.353 42.11 375.507 36.006 370.932 30.8004C362.204 20.8728 351.217 16.4449 338.145 17.432C333.148 17.8521 328.294 19.3024 323.891 21.6907C321.472 22.9546 319.202 24.4816 317.122 26.2436L317.102 26.2476ZM313.92 95.499C313.729 95.3298 313.559 95.1646 313.373 94.9953C310.673 92.4127 307.952 89.8341 305.276 87.2112C305.059 86.9714 304.792 86.7816 304.493 86.655C304.195 86.5283 303.872 86.4679 303.548 86.4779C300.827 86.5424 298.127 86.5625 295.451 85.9541C282.169 82.9122 274.448 68.2867 279.343 55.422C283.201 45.2849 293.893 39.1164 304.434 41.006C309.159 41.8682 313.312 43.9029 316.725 47.4485C320.879 51.7918 325.137 55.9901 329.356 60.2931C330.303 61.2601 331.4 61.7194 332.728 61.53C334.416 61.2762 335.785 60.4583 336.396 58.758C337.007 57.0779 336.712 55.5066 335.469 54.2253C331.06 49.7128 326.761 45.0754 322.186 40.7522C313.288 32.3597 302.811 29.8617 291.213 33.4274C275.631 38.234 266.502 54.5154 270.064 70.5914C273.311 85.2612 285.982 95.5232 300.787 95.5433H313.207C313.397 95.5433 313.608 95.5231 313.924 95.503L313.92 95.499Z" fill="black"/>
<path d="M607.918 0C577.59 0 553 25.0099 553 55.8568C553 86.7037 577.59 111.714 607.918 111.714C638.247 111.714 662.836 86.7037 662.836 55.8568C662.836 25.0099 638.247 0 607.918 0ZM584.862 35.7483C588.312 35.7483 590.98 38.3038 591.292 41.334C591.607 44.0477 590.509 46.4403 587.53 47.8786C585.96 48.6745 585.333 48.6792 585.017 48.1998C584.862 47.8786 585.017 47.5621 585.333 47.2409C588.157 44.8484 588.157 42.9306 587.841 40.2215C587.685 38.4621 586.431 37.3449 585.173 37.3449C579.681 37.3449 571.837 49.7917 572.935 58.8917C573.407 62.4014 575.448 66.5534 579.841 66.5534C581.251 66.5534 582.816 66.0739 584.235 65.4362C586.523 64.2074 587.891 63.2485 589.255 61.7125C588.921 57.593 592.477 52.1889 597.726 52.1889C600.083 52.1889 601.964 53.1431 602.12 54.9026C602.431 57.2951 600.394 57.6116 599.767 57.6116C599.14 57.6116 598.037 57.4534 598.037 56.8203C597.882 56.178 599.451 56.4945 599.296 55.0608C599.136 54.102 598.198 53.7854 597.255 53.7854C593.96 53.7854 592.079 58.4123 592.546 61.2842C592.706 62.5643 593.333 63.8397 594.591 63.8397C595.529 63.8397 596.944 62.3967 597.415 60.3253C597.726 58.8917 598.985 57.9328 600.083 57.9328C600.55 57.9328 600.861 58.0911 601.021 58.7288V59.3711C600.866 60.0088 600.394 61.9219 600.554 62.4014C600.554 62.7225 600.71 63.1973 601.332 63.1973C601.753 63.1973 603.328 62.3595 604.888 61.0608C605.424 58.3145 606.046 55.0189 606.046 54.7443C606.202 53.6272 606.673 52.51 608.87 52.51C609.341 52.51 609.653 52.6683 609.808 53.306V53.9484L609.186 56.8203C611.222 54.1066 614.206 52.1935 616.087 52.1935C616.874 52.1935 617.501 52.6683 617.501 53.4689C617.501 53.9484 617.501 54.7443 617.185 55.5449C616.558 57.2998 615.771 60.0135 615.3 62.406C615.3 63.0437 615.46 63.6814 616.247 63.6814C617.034 63.6814 619.382 62.7225 621.263 60.1717L621.295 60.1531C621.286 59.8366 621.263 59.5294 621.263 59.2129C621.263 57.2998 621.423 55.7032 621.739 54.5861C622.05 53.3107 623.62 52.1935 624.563 52.1935C625.034 52.1935 625.501 52.5147 625.501 52.9895C625.501 53.1524 625.501 53.4689 625.345 53.6272C624.718 55.7032 624.247 57.6163 624.247 59.534C624.247 60.6512 624.403 62.2431 624.714 63.202C624.714 63.3602 624.874 63.5231 625.034 63.5231C625.345 63.5231 627.542 61.4518 629.107 58.7381C627.698 57.7792 626.91 56.1826 626.91 54.2695C626.91 50.9181 628.952 49.1633 630.837 49.1633C632.407 49.1633 633.661 50.2804 633.661 52.5147C633.661 53.9484 633.189 55.5403 632.407 56.9832H632.874C633.371 56.9997 633.867 56.9087 634.328 56.7161C634.788 56.5236 635.204 56.2339 635.546 55.8661C635.692 55.6257 635.906 55.4358 636.16 55.3215C637.693 53.3432 639.958 51.877 642.612 51.877C644.809 51.877 646.841 52.8312 647.001 54.5861C647.313 56.9832 645.271 57.4627 644.644 57.4627L644.635 57.4534C644.004 57.4534 642.91 57.2905 642.91 56.6528C642.91 56.0151 644.324 56.3362 644.164 54.9026C644.008 53.9437 643.066 53.6225 642.123 53.6225C638.983 53.6225 636.951 57.7699 637.418 61.1213C637.574 62.4014 638.201 63.835 639.455 63.835C640.397 63.835 641.812 62.4014 642.439 60.3253C642.75 59.0499 644.008 57.9328 645.107 57.9328C645.578 57.9328 645.885 58.0911 646.045 58.7288C646.045 59.0499 646.045 59.6876 645.418 61.7637C644.64 63.1973 644.635 63.9979 644.791 64.6356C644.946 65.911 645.573 66.8699 646.205 67.3493C646.361 67.5076 646.516 67.8241 646.516 67.8241C646.516 68.1453 646.361 68.4665 645.889 68.4665C645.734 68.4665 645.578 68.4665 645.418 68.3036C643.066 67.3493 642.123 65.7528 641.807 64.1562C640.869 65.2733 639.77 65.911 638.512 65.911C636.475 65.911 634.439 63.9979 634.118 61.6007C634.027 60.5805 634.144 59.5521 634.462 58.5798C633.533 59.1849 632.53 59.5247 631.611 59.5247H630.833C628.787 62.5596 626.59 64.6356 625.02 65.5898C624.487 65.8779 623.898 66.0432 623.295 66.0739C622.984 66.0739 622.512 65.911 622.357 65.5898C621.922 64.8823 621.643 63.7652 621.474 62.4851C619.272 64.9382 616.234 66.2322 614.824 66.2322C613.254 66.2322 612.316 65.2733 612.16 63.6721V61.9219C612.627 58.4123 613.886 56.3362 613.886 55.6985C613.881 55.6143 613.847 55.5347 613.789 55.4746C613.731 55.4145 613.653 55.3783 613.57 55.3727C612.472 55.3727 608.865 59.2082 608.234 61.7637L607.762 63.835C607.451 65.2733 606.037 66.2322 605.099 66.2322C604.628 66.2322 604.312 66.0693 604.156 65.4316V64.7939L604.367 63.7093C602.376 65.1523 600.385 66.0739 599.447 66.0739C598.037 66.0739 597.25 65.2733 597.095 64.1562C596.152 65.4316 595.058 66.0739 593.644 66.0739C592.033 66.0739 590.459 64.9568 589.699 63.3137C588.582 64.5937 587.305 65.8877 585.8 66.8699C583.603 68.3082 581.095 69.4253 578.111 69.4253C575.448 69.4253 573.091 67.987 571.837 66.7116C569.951 64.9568 568.858 62.2431 568.697 59.6876C567.759 51.8677 572.464 41.8135 579.681 37.3449C581.411 36.3907 583.136 35.7483 584.862 35.7483ZM629.574 51.0671C629.098 51.0671 628.787 51.8677 628.787 52.6637C628.787 53.939 629.414 55.3774 630.201 56.178C630.511 55.3081 630.669 54.3896 630.668 53.4643C630.668 51.8677 630.045 51.0671 629.574 51.0671Z" fill="black"/>
</svg>
