<svg width="808" height="997" viewBox="0 0 808 997" fill="none" xmlns="http://www.w3.org/2000/svg">
<g clip-path="url(#clip0_328_357)">
<path d="M637.591 511.195C626.461 639.924 876.216 715.34 855.801 795.584C840.092 857.267 670.351 899.477 578.282 836.331C507.939 788.096 510.993 697.611 465.399 694.17C418.739 690.66 408.173 784.826 323.871 827.944C252.209 864.6 146.603 854.494 89.7336 798.038C-17.1337 691.949 75.5642 449.578 169.108 428.729C249.974 410.693 314.89 561.927 407.062 536.847C454.916 523.827 491.91 468.251 497.59 419.089C506.488 342.105 434.66 314.866 439.477 237.312C443.353 175.005 494.771 111.063 552.044 98.4598C654.75 75.8382 779.528 217.592 767.914 321.941C757.579 414.837 644.921 426.218 637.573 511.19L637.591 511.195Z" stroke="url(#paint0_linear_328_357)" stroke-miterlimit="10"/>
<path d="M635.327 510.986C624.38 637.557 869.973 711.73 849.898 790.637C834.453 851.301 667.536 892.79 576.986 830.699C507.816 783.25 510.822 694.285 465.977 690.912C420.106 687.46 409.693 780.058 326.815 822.454C256.345 858.502 152.488 848.573 96.5691 793.055C-8.5215 688.737 82.6323 450.382 174.617 429.886C254.139 412.161 317.984 560.86 408.615 536.212C455.669 523.411 492.051 468.752 497.646 420.409C506.388 344.694 435.754 317.929 440.503 241.665C444.313 180.406 494.878 117.528 551.207 105.127C652.217 82.8819 774.914 222.269 763.495 324.872C753.327 416.222 642.542 427.419 635.309 510.982L635.327 510.986Z" stroke="url(#paint1_linear_328_357)" stroke-miterlimit="10"/>
<path d="M633.045 510.773C622.294 635.208 863.747 708.124 843.995 785.69C828.813 845.334 664.716 886.12 575.69 825.068C507.689 778.423 510.634 690.955 466.559 687.636C421.459 684.239 411.235 775.277 329.741 816.961C260.463 852.399 158.359 842.631 103.391 788.051C0.0768148 685.504 89.6999 451.185 180.129 431.025C258.311 413.594 321.06 559.789 410.172 535.56C456.445 522.981 492.209 469.256 497.702 421.729C506.302 347.305 436.868 320.978 441.532 246C445.282 185.772 494.993 123.958 550.355 111.773C649.652 89.8995 770.285 226.924 759.054 327.818C749.069 417.625 640.14 428.633 633.045 510.773Z" stroke="url(#paint2_linear_328_357)" stroke-miterlimit="10"/>
<path d="M630.763 510.561C620.191 632.854 857.499 704.531 838.087 780.76C823.173 839.368 661.892 879.468 574.407 819.459C507.575 773.617 510.476 687.65 467.151 684.4C422.821 681.058 412.768 770.531 332.694 811.511C264.608 846.34 164.275 836.737 110.217 783.103C8.68434 682.31 96.759 452.024 185.629 432.217C262.467 415.097 324.145 558.758 411.72 534.943C457.194 522.583 492.346 469.775 497.736 423.062C506.197 349.912 437.943 324.037 442.522 250.344C446.21 191.147 495.069 130.397 549.486 118.414C647.087 96.9171 765.652 231.596 754.617 330.745C744.799 419.006 637.743 429.83 630.763 510.561Z" stroke="url(#paint3_linear_328_357)" stroke-miterlimit="10"/>
<path d="M628.485 510.33C618.092 630.483 851.242 700.898 832.188 775.795C817.52 833.379 659.076 872.781 573.11 813.827C507.448 768.789 510.305 684.324 467.733 681.124C424.192 677.841 414.309 765.75 335.624 806.001C268.73 840.22 170.146 830.794 117.043 778.081C17.2868 679.059 103.818 452.788 191.15 433.32C266.63 416.49 327.247 557.656 413.285 534.256C457.96 522.114 492.5 470.222 497.804 424.33C506.106 352.466 439.049 327.046 443.56 254.645C447.183 196.495 495.188 136.81 548.643 125.025C644.523 103.935 761.002 236.265 750.179 333.673C740.528 420.387 635.35 431.01 628.502 510.335L628.485 510.33Z" stroke="url(#paint4_linear_328_357)" stroke-miterlimit="10"/>
<path d="M626.22 510.122C616.024 628.138 845.016 697.292 826.28 770.865C811.876 827.431 656.256 866.111 571.827 808.218C507.334 763.984 510.126 681.033 468.329 677.87C425.554 674.659 415.864 760.991 338.564 800.529C272.861 834.139 176.031 824.873 123.874 773.116C25.8988 675.847 110.877 453.627 196.654 434.494C270.794 417.958 330.314 556.62 414.833 533.639C458.709 521.715 492.636 470.74 497.838 425.663C506.002 355.073 440.142 330.109 444.568 258.993C448.129 201.874 495.264 143.249 547.788 131.688C641.958 110.952 756.374 240.919 745.725 336.596C736.24 421.764 632.953 432.206 626.203 510.118L626.22 510.122Z" stroke="url(#paint5_linear_328_357)" stroke-miterlimit="10"/>
<path d="M623.938 509.909C613.92 625.784 838.769 693.699 820.377 765.918C806.237 821.464 653.418 859.437 570.531 802.586C507.207 759.156 509.955 677.707 468.907 674.612C426.903 671.456 417.384 756.224 341.507 795.04C276.997 828.04 181.919 818.935 130.713 768.115C34.4969 672.613 117.966 454.417 202.166 435.633C274.963 419.408 333.412 555.536 416.394 532.969C459.475 521.246 492.781 471.223 497.898 426.965C505.902 357.662 441.243 333.136 445.579 263.324C449.08 207.236 495.361 149.675 546.918 138.329C639.393 117.97 751.723 245.588 741.27 339.519C731.965 423.163 630.539 433.399 623.921 509.905L623.938 509.909Z" stroke="url(#paint6_linear_328_357)" stroke-miterlimit="10"/>
<path d="M621.657 509.696C611.817 623.431 832.525 690.089 814.47 760.988C800.597 815.498 650.594 852.785 569.226 796.99C507.072 754.364 509.776 674.416 469.481 671.372C428.266 668.274 418.917 751.478 344.425 789.582C281.107 821.973 187.778 813.046 137.523 763.164C43.083 669.433 125.008 455.251 207.667 436.825C279.123 420.894 336.493 554.522 417.939 532.369C460.22 520.865 492.914 471.759 497.928 428.316C505.794 360.286 442.31 336.23 446.583 267.691C450.018 212.65 495.451 156.136 546.063 144.992C636.825 125.005 747.091 250.26 736.829 342.464C727.691 424.561 628.138 434.614 621.639 509.692L621.657 509.696Z" stroke="url(#paint7_linear_328_357)" stroke-miterlimit="10"/>
<path d="M619.375 509.483C609.732 621.081 826.264 686.474 808.566 756.041C794.958 809.531 647.774 846.115 567.947 791.363C506.962 749.54 509.605 671.09 470.077 668.118C429.632 665.075 420.455 746.714 347.369 784.093C285.242 815.874 193.667 807.107 144.362 758.163C51.7033 666.186 132.08 456.037 213.179 437.964C283.295 422.326 339.574 553.433 419.495 531.717C460.995 520.436 493.06 472.242 497.989 429.619C505.694 362.875 443.429 339.261 447.612 272.026C450.969 218.012 495.561 162.583 545.212 151.638C634.26 132.022 742.458 254.932 732.388 345.41C723.416 425.96 625.736 435.828 619.37 509.501L619.375 509.483Z" stroke="url(#paint8_linear_328_357)" stroke-miterlimit="10"/>
<path d="M617.114 509.257C607.65 618.714 820.042 682.85 802.68 751.098C789.318 803.565 644.971 839.45 566.668 785.736C506.852 744.717 509.452 667.768 470.676 664.846C431.003 661.858 422.013 741.938 350.33 778.608C289.395 809.78 199.587 801.195 151.215 753.185C60.3324 662.978 139.161 456.863 218.722 439.129C287.494 423.803 342.698 552.393 421.087 531.073C461.788 520.01 493.24 472.733 498.084 430.93C505.651 365.46 444.565 342.297 448.663 276.348C451.958 223.364 495.698 169 544.4 158.274C631.748 139.053 737.852 259.574 727.99 348.328C719.202 427.336 623.383 436.998 617.149 509.266L617.114 509.257Z" stroke="url(#paint9_linear_328_357)" stroke-miterlimit="10"/>
<path d="M614.832 509.045C605.547 616.361 813.795 679.258 796.759 746.147C783.665 797.576 642.138 832.758 565.368 780.122C506.721 739.907 509.259 664.455 471.25 661.606C432.347 658.673 423.529 737.188 353.248 773.15C293.505 803.712 205.45 795.288 158.028 748.215C68.9266 659.763 146.207 457.68 224.209 440.299C291.641 425.267 345.766 551.357 422.618 530.452C462.519 519.608 493.372 473.269 498.096 432.277C505.503 368.093 445.614 345.387 449.649 280.71C452.879 228.775 495.752 175.453 543.505 164.947C629.139 146.097 733.175 264.273 723.491 351.278C714.87 428.74 620.942 438.222 614.806 509.076L614.832 509.045Z" stroke="url(#paint10_linear_328_357)" stroke-miterlimit="10"/>
<path d="M612.55 508.832C603.462 614.011 807.552 675.647 790.852 741.217C778.021 791.628 639.314 826.106 564.067 774.508C506.594 735.079 509.084 661.146 471.829 658.348C433.714 655.473 425.067 732.424 356.192 767.66C297.64 797.614 211.339 789.35 164.863 743.233C77.5387 656.551 153.293 458.487 229.717 441.455C295.792 426.712 348.842 550.286 424.17 529.817C463.273 519.191 493.513 473.77 498.152 433.597C505.421 370.687 446.729 348.436 450.675 285.063C453.843 234.158 495.863 181.9 542.671 171.597C626.593 153.119 728.561 268.95 719.072 354.21C710.618 430.125 618.563 439.423 612.564 508.854L612.55 508.832Z" stroke="url(#paint11_linear_328_357)" stroke-miterlimit="10"/>
<path d="M610.286 508.623C601.376 611.662 801.326 672.041 784.966 736.274C772.399 785.665 636.512 819.441 562.806 768.885C506.502 730.26 508.949 657.828 472.446 655.08C435.103 652.261 426.626 727.647 359.153 762.175C301.789 791.537 217.241 783.433 171.72 738.236C86.1767 653.308 160.382 459.277 235.269 442.585C300 428.154 351.975 549.21 425.771 529.138C464.078 518.713 493.702 474.226 498.238 434.868C505.365 373.249 447.857 351.432 451.717 289.345C454.824 239.471 495.987 188.295 541.833 178.189C624.058 160.088 723.945 273.551 714.648 357.084C706.378 431.457 616.179 440.567 610.294 508.588L610.286 508.623Z" stroke="url(#paint12_linear_328_357)" stroke-miterlimit="10"/>
<path d="M608.004 508.411C599.272 609.308 795.06 668.444 779.058 731.344C766.742 779.695 633.687 812.789 561.505 763.271C506.371 725.45 508.752 654.533 473.02 651.84C436.443 649.093 428.159 722.902 362.075 756.7C305.903 785.452 223.108 777.509 178.533 733.267C94.7663 650.11 167.423 460.112 240.755 443.755C304.146 429.617 355.047 548.157 427.301 528.517C464.81 518.31 493.821 474.74 498.272 436.201C505.242 375.852 448.927 354.508 452.72 293.712C455.766 244.868 496.075 194.756 540.973 184.87C621.485 167.141 719.303 278.259 710.198 360.065C702.094 432.891 613.769 441.817 608.021 508.415L608.004 508.411Z" stroke="url(#paint13_linear_328_357)" stroke-miterlimit="10"/>
<path d="M605.726 508.18C597.191 606.941 788.821 664.816 773.16 726.379C761.107 773.71 630.876 806.083 560.209 757.64C506.226 720.618 508.581 651.207 473.603 648.564C437.814 645.876 429.683 718.116 365.019 751.211C310.039 779.353 229.011 771.592 185.355 728.262C103.347 646.872 174.478 460.894 246.251 444.889C308.297 431.063 358.105 547.082 428.841 527.86C465.568 517.876 493.945 475.236 498.311 437.517C505.143 378.441 450.025 357.553 453.732 298.043C456.713 250.247 496.156 201.177 540.104 191.511C618.921 174.158 714.653 282.927 705.743 362.988C697.806 434.268 611.359 442.992 605.722 508.198L605.726 508.18Z" stroke="url(#paint14_linear_328_357)" stroke-miterlimit="10"/>
<path d="M603.444 507.968C595.088 604.588 782.577 661.205 767.238 721.428C755.449 767.74 628.038 799.41 558.912 752.008C506.099 715.791 508.41 647.881 474.18 645.306C439.162 642.672 431.22 713.353 367.945 745.717C314.156 773.251 234.882 765.65 192.173 723.275C111.945 643.639 181.546 461.697 251.759 446.046C312.465 432.514 361.194 546.033 430.397 527.208C466.325 517.443 494.09 475.719 498.353 438.815C505.025 381.026 451.108 360.576 454.726 302.37C457.646 255.605 496.235 207.599 539.239 198.135C616.342 181.154 710.011 287.56 701.293 365.894C693.54 435.631 608.966 444.171 603.444 507.968Z" stroke="url(#paint15_linear_328_357)" stroke-miterlimit="10"/>
<path d="M601.18 507.759C593.002 602.238 776.348 657.617 761.349 716.503C749.823 761.795 625.214 792.757 557.629 746.399C505.985 710.985 508.235 644.572 474.776 642.052C440.529 639.473 432.775 708.594 370.902 740.25C318.306 767.174 240.785 759.733 199.026 718.297C120.575 640.431 188.627 462.522 257.285 447.206C316.652 433.968 364.306 544.971 431.95 526.574C467.078 517.027 494.231 476.219 498.409 440.135C504.943 383.619 452.219 363.643 455.756 306.705C458.596 260.966 496.346 214.047 538.388 204.781C613.778 188.172 705.379 292.233 696.856 368.822C689.27 437.012 606.569 445.368 601.166 507.737L601.18 507.759Z" stroke="url(#paint16_linear_328_357)" stroke-miterlimit="10"/>
<path d="M598.897 507.546C590.917 599.889 770.087 654.002 755.445 711.555C744.188 755.811 622.394 786.088 556.346 740.789C505.872 706.179 508.078 641.268 475.368 638.816C441.891 636.291 434.308 703.848 373.838 734.796C322.415 761.107 246.661 753.848 205.852 713.349C129.183 637.237 195.686 463.361 262.802 448.402C320.807 435.471 367.387 543.957 433.512 525.978C467.841 516.65 494.381 476.759 498.456 441.491C504.83 386.261 453.307 366.723 456.776 311.075C459.552 266.385 496.453 220.512 537.546 211.466C611.236 195.251 700.76 296.927 692.424 371.806C685.004 438.45 604.177 446.622 598.907 507.586L598.897 507.546Z" stroke="url(#paint17_linear_328_357)" stroke-miterlimit="10"/>
<path d="M596.62 507.316C588.818 597.517 763.847 650.374 749.542 706.608C738.53 749.84 619.574 779.418 555.05 735.158C505.745 701.352 507.889 637.937 475.95 635.54C443.262 633.074 435.85 699.067 376.768 729.285C326.537 754.986 252.536 747.888 212.678 708.327C137.785 633.986 202.745 464.125 268.301 449.519C324.966 436.882 370.471 542.85 435.059 525.287C468.594 516.159 494.53 477.225 498.503 442.771C504.739 388.815 454.395 369.729 457.775 315.385C460.489 271.725 496.537 226.916 536.663 218.085C608.64 202.242 696.096 301.573 687.956 374.708C680.72 439.809 601.749 447.793 596.615 507.334L596.62 507.316Z" stroke="url(#paint18_linear_328_357)" stroke-miterlimit="10"/>
<path d="M594.338 507.103C586.732 595.168 757.604 646.763 743.638 701.661C732.891 743.874 616.758 772.73 553.771 729.531C505.635 696.528 507.736 634.615 476.533 632.264C444.615 629.853 437.374 694.282 379.712 723.796C330.673 748.888 258.421 741.967 219.513 703.344C146.397 630.774 209.83 464.933 273.81 450.676C329.135 438.332 373.543 541.797 436.612 524.652C469.347 515.743 494.672 477.725 498.559 444.091C504.652 391.426 455.506 372.796 458.804 319.72C461.458 277.091 496.634 233.341 535.834 224.717C606.097 209.246 691.468 306.228 683.54 377.622C676.471 441.177 599.378 448.958 594.355 507.107L594.338 507.103Z" stroke="url(#paint19_linear_328_357)" stroke-miterlimit="10"/>
<path d="M592.073 506.895C584.646 592.819 751.374 643.175 737.731 696.731C727.251 737.907 613.934 766.078 552.466 723.935C505.499 691.736 507.557 631.325 477.102 629.041C445.951 626.703 438.902 689.554 382.629 718.338C334.782 742.82 264.301 736.064 226.326 698.375C154.991 627.558 216.871 465.767 279.318 451.832C333.299 439.8 376.632 540.748 438.164 524.017C470.118 515.331 494.812 478.226 498.597 445.407C504.534 394.011 456.585 375.836 459.812 324.069C462.4 282.488 496.723 239.803 534.961 231.376C603.528 216.281 686.817 310.896 679.064 380.559C672.161 442.567 596.959 450.169 592.055 506.89L592.073 506.895Z" stroke="url(#paint20_linear_328_357)" stroke-miterlimit="10"/>
<path d="M589.791 506.682C582.543 590.465 745.13 639.564 731.827 691.784C721.611 731.941 611.114 759.409 551.17 718.303C505.376 686.891 507.364 628.012 477.684 625.766C447.322 623.486 440.426 684.768 385.555 712.844C338.9 736.717 270.173 730.122 233.144 693.388C163.585 624.343 223.922 466.567 284.808 452.985C337.449 441.246 379.708 539.677 439.703 523.361C470.858 514.893 494.94 478.704 498.64 446.705C504.435 396.6 457.668 378.86 460.81 328.378C463.337 287.828 496.807 246.206 534.096 238C600.95 223.277 682.171 315.547 674.613 383.464C667.895 443.931 594.548 451.344 589.76 506.656L589.791 506.682Z" stroke="url(#paint21_linear_328_357)" stroke-miterlimit="10"/>
<path d="M587.509 506.469C580.458 588.116 738.869 635.95 725.92 686.854C715.95 725.988 608.29 752.757 549.887 712.694C505.263 682.085 507.207 624.707 478.276 622.529C448.685 620.305 441.977 680.027 388.513 707.377C343.049 730.641 276.071 724.223 239.997 688.409C172.219 621.118 231.007 467.374 290.352 454.15C341.649 442.723 382.816 538.633 441.291 522.735C471.647 514.485 495.112 479.231 498.709 448.047C504.348 399.211 458.792 381.948 461.849 332.753C464.314 293.233 496.932 252.676 533.254 244.685C598.412 230.338 677.548 320.259 670.181 386.449C663.629 445.369 592.156 452.598 587.505 506.487L587.509 506.469Z" stroke="url(#paint22_linear_328_357)" stroke-miterlimit="10"/>
<path d="M585.249 506.243C578.376 585.749 732.643 632.343 720.038 681.894C710.336 719.99 605.496 746.056 548.612 707.049C505.158 677.244 507.058 621.368 478.88 619.24C450.06 617.07 443.523 675.228 391.461 701.87C347.189 724.525 281.964 718.267 246.836 683.409C180.817 617.884 238.079 468.16 295.864 455.288C345.821 444.155 385.909 537.566 442.848 522.082C472.404 514.051 495.257 479.714 498.769 449.35C504.266 401.805 459.894 384.976 462.882 337.07C465.283 298.599 497.051 259.088 532.429 251.3C595.874 237.325 672.945 324.882 665.77 389.345C659.381 446.737 589.785 453.764 585.249 506.243Z" stroke="url(#paint23_linear_328_357)" stroke-miterlimit="10"/>
<path d="M582.967 506.03C576.273 583.395 726.4 628.733 714.13 676.964C704.692 714.042 602.671 739.404 547.325 701.457C505.039 672.456 506.878 618.077 479.471 616.004C451.439 613.893 445.074 670.487 394.413 696.421C351.334 718.466 287.858 712.386 253.684 678.448C189.447 614.677 245.173 469.008 301.386 456.467C349.985 445.623 389.016 536.521 444.418 521.452C473.179 513.622 495.416 480.219 498.843 450.674C504.183 404.398 461.008 388.025 463.912 341.406C466.251 303.965 497.144 265.532 531.577 257.945C593.305 244.36 668.313 329.555 661.333 392.273C655.11 448.118 587.41 454.947 582.984 506.035L582.967 506.03Z" stroke="url(#paint24_linear_328_357)" stroke-miterlimit="10"/>
<path d="M580.685 505.818C574.187 581.046 720.156 625.122 708.209 672.012C699.035 708.071 599.834 732.73 546.011 695.821C504.895 667.624 506.69 614.746 480.032 612.742C452.771 610.685 446.593 665.719 397.322 690.923C355.434 712.359 293.711 706.439 260.489 673.439C198.028 611.439 252.21 469.785 306.881 457.601C354.136 447.069 392.074 535.446 445.957 520.795C473.919 513.184 495.543 480.697 498.867 451.968C504.066 406.983 462.088 391.065 464.906 345.732C467.166 309.318 497.224 271.953 530.691 264.582C590.722 251.373 663.649 334.201 656.861 395.192C650.822 449.494 584.978 456.135 580.671 505.796L580.685 505.818Z" stroke="url(#paint25_linear_328_357)" stroke-miterlimit="10"/>
<path d="M578.403 505.605C572.084 578.692 713.909 621.53 702.302 667.083C693.391 702.122 596.992 726.073 544.71 690.207C504.763 662.814 506.497 611.434 480.61 609.483C454.12 607.481 448.113 660.951 400.244 685.447C359.548 706.273 299.596 700.519 267.284 668.465C206.6 608.236 259.238 470.598 312.349 458.767C358.265 448.529 395.129 534.388 447.47 520.17C474.651 512.781 495.658 481.229 498.88 453.315C503.922 409.599 463.141 394.137 465.892 350.094C468.091 314.711 497.295 278.41 529.813 271.259C588.131 258.422 658.99 338.905 652.397 398.151C646.525 450.906 582.555 457.363 578.381 505.618L578.403 505.605Z" stroke="url(#paint26_linear_328_357)" stroke-miterlimit="10"/>
<path d="M576.138 505.396C569.998 576.343 707.665 617.919 696.416 662.14C687.756 696.138 594.19 719.408 543.445 684.602C504.667 658.012 506.357 608.133 481.219 606.251C455.495 604.322 449.682 656.214 403.219 679.984C363.714 700.201 305.512 694.624 274.155 663.491C215.251 605.015 266.337 471.427 317.911 459.936C362.486 449.992 398.271 533.352 449.08 519.53C475.461 512.36 495.856 481.725 498.975 454.625C503.879 412.183 464.295 397.177 466.939 354.434C469.073 320.098 497.428 284.844 528.984 277.891C585.589 265.426 654.38 343.564 647.978 401.082C642.272 452.292 580.175 458.564 576.138 505.396Z" stroke="url(#paint27_linear_328_357)" stroke-miterlimit="10"/>
<path d="M573.861 505.166C567.917 573.976 701.426 614.291 690.513 657.192C682.117 690.171 591.374 712.72 542.148 678.971C504.54 653.185 506.187 604.807 481.802 602.976C456.866 601.105 451.206 651.429 406.145 674.491C367.832 694.098 311.383 688.682 280.972 658.504C223.846 601.8 273.405 472.231 323.406 461.071C366.637 451.438 401.33 532.277 450.619 518.874C476.201 511.922 495.984 482.203 499.018 455.924C503.78 414.772 465.375 400.218 467.955 358.747C470.028 325.442 497.508 291.266 528.137 284.519C583.046 272.43 649.756 348.201 643.545 403.992C638.024 453.659 577.783 459.744 573.861 505.166Z" stroke="url(#paint28_linear_328_357)" stroke-miterlimit="10"/>
<path d="M571.578 504.953C565.814 571.622 695.178 610.698 684.592 652.241C676.459 684.201 588.536 706.047 540.852 673.339C504.413 648.357 505.994 601.494 482.38 599.718C458.215 597.902 452.743 646.666 409.071 668.997C371.95 687.995 317.25 682.757 287.794 653.499C232.448 598.548 280.459 473.012 328.901 462.205C370.792 452.866 404.41 531.188 452.158 518.217C476.941 511.484 496.111 482.682 499.06 457.222C503.666 417.34 466.458 403.241 468.967 363.079C470.978 330.804 497.606 297.692 527.268 291.161C580.464 279.444 645.105 352.869 639.091 406.916C633.736 455.036 575.39 460.923 571.583 504.936L571.578 504.953Z" stroke="url(#paint29_linear_328_357)" stroke-miterlimit="10"/>
<path d="M569.297 504.74C563.711 569.268 688.935 607.088 678.685 647.311C670.82 678.234 585.712 699.394 539.551 667.725C504.282 643.547 505.819 598.186 482.958 596.459C459.564 594.698 454.263 641.898 412.011 663.526C376.082 681.915 323.135 676.836 294.625 648.534C241.056 595.354 287.523 473.833 334.422 463.384C374.97 454.356 407.513 530.161 453.728 517.587C477.717 511.054 496.266 483.204 499.112 458.559C503.576 419.968 467.569 406.308 469.974 367.427C471.921 336.201 497.699 304.135 526.412 297.824C577.913 286.483 640.451 357.555 634.649 409.861C629.461 456.435 572.989 462.137 569.297 504.74Z" stroke="url(#paint30_linear_328_357)" stroke-miterlimit="10"/>
<path d="M567.032 504.532C561.643 566.923 682.691 603.477 672.799 642.368C665.18 672.268 582.91 692.729 538.286 662.12C504.19 638.728 505.679 594.886 483.571 593.21C460.966 591.507 455.835 637.143 414.968 658.059C380.231 675.838 329.037 670.92 301.478 643.556C249.668 592.143 294.604 474.659 339.948 464.544C379.138 455.806 410.606 529.094 455.298 516.957C478.487 510.642 496.424 483.709 499.185 459.884C503.493 422.562 468.679 409.375 471.021 371.767C472.906 341.571 497.827 310.587 525.583 304.456C575.37 293.487 635.844 362.196 630.216 412.771C625.212 457.802 570.596 463.317 567.04 504.497L567.032 504.532Z" stroke="url(#paint31_linear_328_357)" stroke-miterlimit="10"/>
<path d="M564.754 504.302C559.544 564.552 676.452 599.849 666.895 637.421C659.54 666.301 580.094 686.042 536.99 656.489C504.063 633.9 505.491 591.555 484.15 589.952C462.315 588.304 457.355 632.375 417.912 652.57C384.366 669.739 334.94 665.004 308.313 638.573C258.284 588.913 301.689 475.467 345.474 465.705C383.324 457.261 413.713 528.05 456.851 516.322C479.259 510.231 496.566 484.21 499.224 461.2C503.389 425.168 469.759 412.416 472.029 376.115C473.853 346.95 497.921 317.03 524.727 311.119C572.797 300.54 631.208 366.886 625.771 415.734C620.933 459.219 568.191 464.549 564.75 504.319L564.754 504.302Z" stroke="url(#paint32_linear_328_357)" stroke-miterlimit="10"/>
<path d="M562.472 504.089C557.44 562.198 670.204 596.256 660.992 632.474C653.905 660.317 577.274 679.372 535.693 650.857C503.936 629.073 505.32 588.229 484.732 586.676C463.668 585.083 458.896 627.594 420.838 647.076C388.484 663.637 340.811 659.061 315.135 633.568C266.882 585.68 308.744 476.248 350.969 466.84C387.475 458.707 416.789 526.979 458.394 515.648C480.003 509.775 496.697 484.671 499.27 462.48C503.28 427.718 470.864 415.425 473.032 380.407C474.79 352.29 497.992 323.412 523.849 317.721C570.223 307.518 626.552 371.497 621.307 418.617C616.636 460.556 565.767 465.702 562.459 504.067L562.472 504.089Z" stroke="url(#paint33_linear_328_357)" stroke-miterlimit="10"/>
<path d="M560.208 503.88C555.373 559.853 663.979 592.65 655.085 627.544C648.261 654.368 574.45 672.72 534.406 645.265C503.818 624.285 505.141 584.938 485.319 583.457C465.04 581.941 460.443 622.871 423.773 641.622C392.611 657.573 346.687 653.176 321.961 628.621C275.49 582.486 315.803 477.087 356.469 468.032C391.635 460.192 419.857 525.943 459.939 515.049C480.748 509.394 496.843 485.228 499.296 463.849C503.163 430.378 471.927 418.537 474.027 384.809C475.706 357.718 498.072 329.909 522.981 324.437C567.641 314.606 621.903 376.24 616.853 421.615C612.366 462.012 563.375 466.956 560.164 503.907L560.208 503.88Z" stroke="url(#paint34_linear_328_357)" stroke-miterlimit="10"/>
<path d="M557.926 503.668C553.269 557.5 657.735 589.04 649.181 622.597C642.621 648.402 571.629 666.05 533.109 639.634C503.691 619.457 504.97 581.612 485.901 580.181C466.393 578.72 461.967 618.085 426.717 636.133C396.747 651.475 352.576 647.238 328.8 623.62C284.106 579.257 322.87 477.891 361.999 469.175C395.825 461.629 422.968 524.881 461.513 514.4C481.523 508.964 497.006 485.716 499.374 465.155C503.102 432.958 473.046 421.568 475.078 389.131C476.696 363.071 498.205 336.343 522.156 331.052C565.102 321.593 617.296 380.882 612.442 424.512C608.122 463.362 561.004 468.122 557.926 503.668Z" stroke="url(#paint35_linear_328_357)" stroke-miterlimit="10"/>
<path d="M555.643 503.455C551.166 555.146 651.47 585.443 643.273 617.667C636.96 642.449 568.787 659.394 531.826 634.024C503.577 614.651 504.812 578.308 486.497 576.928C467.759 575.52 463.522 613.326 429.66 630.644C400.882 645.376 358.465 641.299 335.635 618.638C292.721 576.027 329.938 478.694 367.511 470.313C399.993 463.079 426.066 523.796 463.074 513.73C482.289 508.495 497.155 486.181 499.438 466.44C503.007 435.529 474.169 424.582 476.094 393.444C477.647 368.432 498.306 342.751 521.308 337.68C562.559 328.597 612.672 385.519 608.005 427.44C603.851 464.743 558.606 469.319 555.665 503.441L555.643 503.455Z" stroke="url(#paint36_linear_328_357)" stroke-miterlimit="10"/>
<path d="M553.366 503.224C549.085 552.779 645.231 581.814 637.374 612.702C631.329 636.447 565.976 652.689 530.53 628.393C503.45 609.824 504.62 574.995 487.075 573.669C469.108 572.317 465.042 608.558 432.6 625.172C405.014 639.295 364.363 635.401 342.453 613.651C301.316 572.811 337.006 479.497 373.02 471.47C404.144 464.525 429.138 522.743 464.626 513.096C483.06 508.083 497.296 486.681 499.476 467.756C502.907 438.119 475.244 427.64 477.106 397.775C478.598 373.794 498.404 349.177 520.44 344.321C559.978 335.61 608.022 390.187 603.55 430.363C599.581 466.124 556.192 470.511 553.366 503.224Z" stroke="url(#paint37_linear_328_357)" stroke-miterlimit="10"/>
<path d="M551.101 503.016C546.999 550.43 639.005 578.208 631.484 607.777C625.703 630.503 563.17 646.041 529.247 622.783C503.336 605.018 504.462 571.69 487.671 570.415C470.492 569.122 466.597 603.799 435.54 619.701C409.145 633.215 370.248 629.48 349.284 608.685C309.924 569.617 344.065 480.336 378.524 472.644C408.308 465.993 432.223 521.712 466.175 512.479C483.809 507.685 497.429 487.217 499.524 469.111C502.794 440.761 476.333 430.721 478.127 402.146C479.557 379.195 498.493 355.638 519.598 351.006C557.44 342.672 603.398 394.899 599.123 433.33C595.319 467.544 553.804 471.748 551.115 503.038L551.101 503.016Z" stroke="url(#paint38_linear_328_357)" stroke-miterlimit="10"/>
<path d="M548.819 502.803C544.896 548.076 632.757 574.615 625.563 602.825C620.045 624.532 560.332 639.367 527.95 617.152C503.209 600.19 504.291 568.364 488.249 567.157C471.841 565.918 468.116 599.032 438.466 614.208C413.263 627.112 376.115 623.555 356.106 603.681C318.526 566.366 351.119 481.118 384.018 473.779C412.459 467.439 435.303 520.623 467.718 511.805C484.553 507.229 497.56 487.678 499.553 470.387C502.685 443.31 477.42 433.726 479.107 406.451C480.477 384.53 498.555 362.055 518.702 357.604C554.83 349.641 598.725 399.506 594.641 436.209C591.004 468.877 551.385 472.883 548.788 502.777L548.819 502.803Z" stroke="url(#paint39_linear_328_357)" stroke-miterlimit="10"/>
<path d="M546.537 502.591C542.81 545.727 626.514 571.005 619.656 597.896C614.388 618.561 557.508 632.715 526.65 611.538C503.078 595.38 504.099 565.051 488.827 563.899C473.19 562.715 469.654 594.268 441.406 608.736C417.394 621.031 382 617.635 362.937 598.716C327.116 563.168 358.183 481.939 389.54 474.957C416.641 468.911 438.389 519.592 469.284 511.192C485.32 506.835 497.715 488.201 499.622 471.729C502.599 445.921 478.527 436.811 480.15 410.808C481.454 389.936 498.684 368.507 517.882 364.275C552.293 356.703 594.124 404.204 590.235 439.163C586.765 470.284 549.019 474.106 546.559 502.577L546.537 502.591Z" stroke="url(#paint40_linear_328_357)" stroke-miterlimit="10"/>
<path d="M544.255 502.378C540.707 543.373 620.253 567.39 613.752 592.948C608.749 612.595 554.692 626.027 525.367 605.929C502.968 590.557 503.941 561.747 489.419 560.663C474.57 559.538 471.183 589.54 444.345 603.265C421.526 614.95 387.885 611.714 369.772 593.733C335.732 559.939 365.269 482.747 395.049 476.114C420.805 470.379 441.482 518.525 470.837 510.557C486.074 506.419 497.856 488.701 499.678 473.049C502.512 448.532 479.642 439.86 481.176 415.161C482.419 395.319 498.795 374.954 517.026 370.939C549.741 363.742 589.474 408.872 585.772 442.122C582.482 471.718 546.596 475.334 544.251 502.395L544.255 502.378Z" stroke="url(#paint41_linear_328_357)" stroke-miterlimit="10"/>
<path d="M541.995 502.152C538.643 541.01 614.027 563.784 607.867 588.005C603.126 606.632 551.89 619.362 524.088 600.301C502.859 585.733 503.77 558.421 490.019 557.391C475.937 556.338 472.742 584.763 447.289 597.775C425.661 608.851 393.769 605.793 376.607 588.75C344.344 556.727 372.332 483.568 400.574 477.274C424.991 471.834 444.589 517.48 472.411 509.909C486.853 505.972 498.032 489.21 499.734 474.369C502.412 451.121 480.739 442.905 482.187 419.492C483.351 400.677 498.874 381.376 516.175 377.584C547.177 370.759 584.841 413.545 581.335 445.049C578.211 473.099 544.198 476.531 541.987 502.187L541.995 502.152Z" stroke="url(#paint42_linear_328_357)" stroke-miterlimit="10"/>
<path d="M539.713 501.939C536.54 538.656 607.783 560.173 601.963 583.058C597.491 600.648 549.069 612.692 522.809 594.674C502.749 580.91 503.617 555.099 490.619 554.12C477.307 553.122 474.301 579.987 450.254 592.273C429.819 602.74 399.697 599.846 383.468 583.736C352.982 553.484 379.426 484.34 406.109 478.4C429.185 473.253 447.687 516.396 473.989 509.244C487.65 505.529 498.199 489.68 499.816 475.658C502.352 453.701 481.857 445.936 483.238 423.814C484.337 406.047 499.007 387.81 515.349 384.199C544.656 377.75 580.234 418.186 576.924 447.946C573.967 474.449 541.828 477.697 539.735 501.925L539.713 501.939Z" stroke="url(#paint43_linear_328_357)" stroke-miterlimit="10"/>
<path d="M537.431 501.726C534.437 536.303 601.54 556.563 596.042 578.107C591.816 594.673 546.232 606.018 521.491 589.056C502.6 576.096 503.425 551.786 491.175 550.875C478.634 549.932 475.799 575.232 453.154 586.811C433.911 596.668 405.539 593.952 390.26 578.78C361.554 550.282 386.45 485.171 411.577 479.565C433.292 474.726 450.741 515.338 475.502 508.618C488.364 505.122 498.301 490.189 499.815 476.983C502.212 456.3 482.915 448.991 484.211 428.154C485.249 411.418 499.065 394.245 514.459 390.854C542.052 384.777 575.566 422.85 572.447 450.882C569.674 475.844 539.413 478.889 537.431 501.726Z" stroke="url(#paint44_linear_328_357)" stroke-miterlimit="10"/>
<path d="M535.166 501.518C532.369 533.958 595.296 552.953 590.152 573.181C586.19 588.729 543.425 599.37 520.208 583.447C502.486 571.29 503.245 548.495 491.771 547.621C480.019 546.737 477.354 570.473 456.116 581.326C438.064 590.574 411.445 588.018 397.116 573.784C370.188 547.057 393.557 485.965 417.125 480.713C437.5 476.167 453.87 514.28 477.099 507.957C489.161 504.679 498.485 490.663 499.914 478.277C502.152 458.88 484.056 452.009 485.262 432.476C486.239 416.77 499.202 400.662 513.629 397.486C539.509 391.781 570.956 427.509 568.032 453.797C565.426 477.211 537.038 480.073 535.193 501.487L535.166 501.518Z" stroke="url(#paint45_linear_328_357)" stroke-miterlimit="10"/>
<path d="M532.889 501.287C530.27 531.586 589.053 549.342 584.253 568.216C580.555 582.745 540.596 592.661 518.933 577.802C502.381 566.449 503.096 545.155 492.353 544.345C481.372 543.516 478.878 565.688 459.042 575.832C442.164 584.467 417.316 582.076 403.934 568.797C378.786 543.823 400.603 486.782 422.616 481.865C441.651 477.613 456.924 513.222 478.634 507.318C489.897 504.258 498.605 491.177 499.949 479.61C502.048 461.487 485.127 455.085 486.27 436.825C487.181 422.167 499.296 407.105 512.774 404.149C536.958 398.821 566.319 432.199 563.587 456.759C561.147 478.628 534.632 481.305 532.902 501.309L532.889 501.287Z" stroke="url(#paint46_linear_328_357)" stroke-miterlimit="10"/>
<path d="M530.607 501.075C528.166 529.233 582.809 545.732 578.345 563.287C574.915 576.778 537.772 586.009 517.628 572.206C502.246 561.657 502.899 541.86 492.927 541.105C482.716 540.33 480.411 560.942 461.96 570.374C446.273 578.399 423.175 576.186 410.747 563.828C387.376 540.625 407.648 487.599 428.12 483.039C445.81 479.099 460.014 512.173 480.182 506.701C490.646 503.86 498.741 491.695 499.982 480.944C501.922 464.107 486.22 458.147 487.277 441.173C488.127 427.546 499.367 413.562 511.904 410.79C534.371 405.852 561.673 436.85 559.132 459.683C556.876 480.009 532.218 482.498 530.624 501.079L530.607 501.075Z" stroke="url(#paint47_linear_328_357)" stroke-miterlimit="10"/>
<path d="M528.325 500.862C526.081 526.883 576.566 542.121 572.442 558.339C569.275 570.812 534.952 579.339 516.349 566.578C502.136 556.833 502.746 538.538 493.523 537.851C484.101 537.135 481.948 556.179 464.921 564.889C450.427 572.305 429.082 570.252 417.583 558.845C395.975 537.392 414.716 488.402 433.628 484.195C449.979 480.549 463.103 511.124 481.739 506.048C491.408 503.408 498.886 492.178 500.043 482.246C501.844 466.683 487.321 461.175 488.289 445.504C489.078 432.908 499.464 419.988 511.053 417.436C531.806 412.869 557.04 441.522 554.695 462.61C552.606 481.39 529.821 483.694 528.342 500.866L528.325 500.862Z" stroke="url(#paint48_linear_328_357)" stroke-miterlimit="10"/>
<path d="M526.06 500.653C523.995 524.534 570.336 538.533 566.535 553.41C563.614 564.859 532.128 572.687 515.049 560.965C502.005 552.023 502.571 535.23 494.101 534.593C485.445 533.949 483.485 551.415 467.843 559.413C454.54 566.22 434.962 564.349 424.4 553.858C404.569 534.176 421.762 489.219 439.119 485.348C454.125 482.012 466.161 510.049 483.256 505.405C492.143 502.988 498.988 492.688 500.046 483.553C501.687 469.277 488.361 464.225 489.266 449.827C489.989 438.279 499.526 426.405 510.149 424.069C529.206 419.878 552.359 446.164 550.205 465.525C548.282 482.758 527.393 484.865 526.029 500.627L526.06 500.653Z" stroke="url(#paint49_linear_328_357)" stroke-miterlimit="10"/>
<path d="M523.778 500.441C521.892 522.18 564.075 534.918 560.631 548.462C557.978 558.875 529.312 566 513.752 555.333C501.878 547.196 502.383 531.899 494.683 531.317C486.799 530.728 485.009 546.63 470.791 553.907C458.68 560.103 440.855 558.393 431.239 548.857C413.185 530.946 428.852 490.009 444.649 486.491C458.298 483.445 469.273 508.987 484.83 504.757C492.919 502.558 499.168 493.179 500.119 484.878C501.622 471.874 489.493 467.278 490.308 454.184C490.971 443.667 499.655 432.857 509.329 430.74C526.673 426.922 547.757 450.863 545.799 468.479C544.06 484.169 525.027 486.088 523.778 500.441Z" stroke="url(#paint50_linear_328_357)" stroke-miterlimit="10"/>
<path d="M521.5 500.21C519.811 519.813 557.836 531.29 554.728 543.515C552.339 552.908 526.492 559.33 512.469 549.724C501.768 542.372 502.225 528.595 495.275 528.081C488.179 527.551 486.56 541.889 473.726 548.453C462.807 554.04 446.736 552.49 438.07 543.892C421.797 527.735 435.915 490.83 450.153 487.665C462.462 484.913 472.358 507.955 486.383 504.123C493.672 502.142 499.309 493.68 500.175 486.198C501.535 474.485 490.59 470.323 491.32 458.515C491.904 449.024 499.748 439.3 508.464 437.364C524.112 433.922 543.111 455.513 541.326 471.398C539.755 485.542 522.594 487.277 521.479 500.224L521.5 500.21Z" stroke="url(#paint51_linear_328_357)" stroke-miterlimit="10"/>
</g>
<defs>
<linearGradient id="paint0_linear_328_357" x1="597.09" y1="97.1957" x2="404.221" y2="899.304" gradientUnits="userSpaceOnUse">
<stop stop-color="#D82029"/>
<stop offset="1" stop-color="#0D0D0D"/>
</linearGradient>
<linearGradient id="paint1_linear_328_357" x1="999.694" y1="201.04" x2="810.025" y2="989.843" gradientUnits="userSpaceOnUse">
<stop stop-color="#D82029"/>
<stop offset="1" stop-color="#0D0D0D"/>
</linearGradient>
<linearGradient id="paint2_linear_328_357" x1="593.891" y1="110.5" x2="407.421" y2="885.999" gradientUnits="userSpaceOnUse">
<stop stop-color="#D82029"/>
<stop offset="1" stop-color="#0D0D0D"/>
</linearGradient>
<linearGradient id="paint3_linear_328_357" x1="996.495" y1="214.344" x2="813.224" y2="976.538" gradientUnits="userSpaceOnUse">
<stop stop-color="#D82029"/>
<stop offset="1" stop-color="#0D0D0D"/>
</linearGradient>
<linearGradient id="paint4_linear_328_357" x1="590.691" y1="123.805" x2="410.62" y2="872.695" gradientUnits="userSpaceOnUse">
<stop stop-color="#D82029"/>
<stop offset="1" stop-color="#0D0D0D"/>
</linearGradient>
<linearGradient id="paint5_linear_328_357" x1="993.296" y1="227.649" x2="816.423" y2="963.234" gradientUnits="userSpaceOnUse">
<stop stop-color="#D82029"/>
<stop offset="1" stop-color="#0D0D0D"/>
</linearGradient>
<linearGradient id="paint6_linear_328_357" x1="991.696" y1="234.301" x2="818.022" y2="956.581" gradientUnits="userSpaceOnUse">
<stop stop-color="#D82029"/>
<stop offset="1" stop-color="#0D0D0D"/>
</linearGradient>
<linearGradient id="paint7_linear_328_357" x1="990.097" y1="240.953" x2="819.622" y2="949.929" gradientUnits="userSpaceOnUse">
<stop stop-color="#D82029"/>
<stop offset="1" stop-color="#0D0D0D"/>
</linearGradient>
<linearGradient id="paint8_linear_328_357" x1="584.293" y1="150.414" x2="417.018" y2="846.085" gradientUnits="userSpaceOnUse">
<stop stop-color="#D82029"/>
<stop offset="1" stop-color="#0D0D0D"/>
</linearGradient>
<linearGradient id="paint9_linear_328_357" x1="986.897" y1="254.258" x2="822.821" y2="936.624" gradientUnits="userSpaceOnUse">
<stop stop-color="#D82029"/>
<stop offset="1" stop-color="#0D0D0D"/>
</linearGradient>
<linearGradient id="paint10_linear_328_357" x1="985.298" y1="260.911" x2="824.421" y2="929.972" gradientUnits="userSpaceOnUse">
<stop stop-color="#D82029"/>
<stop offset="1" stop-color="#0D0D0D"/>
</linearGradient>
<linearGradient id="paint11_linear_328_357" x1="983.698" y1="267.563" x2="826.021" y2="923.32" gradientUnits="userSpaceOnUse">
<stop stop-color="#D82029"/>
<stop offset="1" stop-color="#0D0D0D"/>
</linearGradient>
<linearGradient id="paint12_linear_328_357" x1="577.895" y1="177.024" x2="423.416" y2="819.476" gradientUnits="userSpaceOnUse">
<stop stop-color="#D82029"/>
<stop offset="1" stop-color="#0D0D0D"/>
</linearGradient>
<linearGradient id="paint13_linear_328_357" x1="980.499" y1="280.867" x2="829.219" y2="910.015" gradientUnits="userSpaceOnUse">
<stop stop-color="#D82029"/>
<stop offset="1" stop-color="#0D0D0D"/>
</linearGradient>
<linearGradient id="paint14_linear_328_357" x1="978.904" y1="287.502" x2="830.819" y2="903.363" gradientUnits="userSpaceOnUse">
<stop stop-color="#D82029"/>
<stop offset="1" stop-color="#0D0D0D"/>
</linearGradient>
<linearGradient id="paint15_linear_328_357" x1="977.304" y1="294.155" x2="832.419" y2="896.71" gradientUnits="userSpaceOnUse">
<stop stop-color="#D82029"/>
<stop offset="1" stop-color="#0D0D0D"/>
</linearGradient>
<linearGradient id="paint16_linear_328_357" x1="975.705" y1="300.807" x2="834.018" y2="890.058" gradientUnits="userSpaceOnUse">
<stop stop-color="#D82029"/>
<stop offset="1" stop-color="#0D0D0D"/>
</linearGradient>
<linearGradient id="paint17_linear_328_357" x1="974.105" y1="307.459" x2="835.618" y2="883.406" gradientUnits="userSpaceOnUse">
<stop stop-color="#D82029"/>
<stop offset="1" stop-color="#0D0D0D"/>
</linearGradient>
<linearGradient id="paint18_linear_328_357" x1="972.506" y1="314.111" x2="837.217" y2="876.753" gradientUnits="userSpaceOnUse">
<stop stop-color="#D82029"/>
<stop offset="1" stop-color="#0D0D0D"/>
</linearGradient>
<linearGradient id="paint19_linear_328_357" x1="970.906" y1="320.764" x2="838.817" y2="870.101" gradientUnits="userSpaceOnUse">
<stop stop-color="#D82029"/>
<stop offset="1" stop-color="#0D0D0D"/>
</linearGradient>
<linearGradient id="paint20_linear_328_357" x1="969.306" y1="327.416" x2="840.416" y2="863.449" gradientUnits="userSpaceOnUse">
<stop stop-color="#D82029"/>
<stop offset="1" stop-color="#0D0D0D"/>
</linearGradient>
<linearGradient id="paint21_linear_328_357" x1="967.707" y1="334.068" x2="842.012" y2="856.814" gradientUnits="userSpaceOnUse">
<stop stop-color="#D82029"/>
<stop offset="1" stop-color="#0D0D0D"/>
</linearGradient>
<linearGradient id="paint22_linear_328_357" x1="966.107" y1="340.721" x2="843.612" y2="850.162" gradientUnits="userSpaceOnUse">
<stop stop-color="#D82029"/>
<stop offset="1" stop-color="#0D0D0D"/>
</linearGradient>
<linearGradient id="paint23_linear_328_357" x1="964.508" y1="347.373" x2="845.211" y2="843.51" gradientUnits="userSpaceOnUse">
<stop stop-color="#D82029"/>
<stop offset="1" stop-color="#0D0D0D"/>
</linearGradient>
<linearGradient id="paint24_linear_328_357" x1="962.908" y1="354.025" x2="846.81" y2="836.857" gradientUnits="userSpaceOnUse">
<stop stop-color="#D82029"/>
<stop offset="1" stop-color="#0D0D0D"/>
</linearGradient>
<linearGradient id="paint25_linear_328_357" x1="961.308" y1="360.678" x2="848.41" y2="830.205" gradientUnits="userSpaceOnUse">
<stop stop-color="#D82029"/>
<stop offset="1" stop-color="#0D0D0D"/>
</linearGradient>
<linearGradient id="paint26_linear_328_357" x1="959.709" y1="367.33" x2="850.01" y2="823.553" gradientUnits="userSpaceOnUse">
<stop stop-color="#D82029"/>
<stop offset="1" stop-color="#0D0D0D"/>
</linearGradient>
<linearGradient id="paint27_linear_328_357" x1="958.109" y1="373.982" x2="851.609" y2="816.9" gradientUnits="userSpaceOnUse">
<stop stop-color="#D82029"/>
<stop offset="1" stop-color="#0D0D0D"/>
</linearGradient>
<linearGradient id="paint28_linear_328_357" x1="956.51" y1="380.635" x2="853.209" y2="810.248" gradientUnits="userSpaceOnUse">
<stop stop-color="#D82029"/>
<stop offset="1" stop-color="#0D0D0D"/>
</linearGradient>
<linearGradient id="paint29_linear_328_357" x1="954.91" y1="387.287" x2="854.808" y2="803.596" gradientUnits="userSpaceOnUse">
<stop stop-color="#D82029"/>
<stop offset="1" stop-color="#0D0D0D"/>
</linearGradient>
<linearGradient id="paint30_linear_328_357" x1="953.311" y1="393.939" x2="856.408" y2="796.943" gradientUnits="userSpaceOnUse">
<stop stop-color="#D82029"/>
<stop offset="1" stop-color="#0D0D0D"/>
</linearGradient>
<linearGradient id="paint31_linear_328_357" x1="951.711" y1="400.592" x2="858.007" y2="790.291" gradientUnits="userSpaceOnUse">
<stop stop-color="#D82029"/>
<stop offset="1" stop-color="#0D0D0D"/>
</linearGradient>
<linearGradient id="paint32_linear_328_357" x1="950.112" y1="407.244" x2="859.607" y2="783.639" gradientUnits="userSpaceOnUse">
<stop stop-color="#D82029"/>
<stop offset="1" stop-color="#0D0D0D"/>
</linearGradient>
<linearGradient id="paint33_linear_328_357" x1="948.512" y1="413.896" x2="861.207" y2="776.986" gradientUnits="userSpaceOnUse">
<stop stop-color="#D82029"/>
<stop offset="1" stop-color="#0D0D0D"/>
</linearGradient>
<linearGradient id="paint34_linear_328_357" x1="946.913" y1="420.549" x2="862.806" y2="770.334" gradientUnits="userSpaceOnUse">
<stop stop-color="#D82029"/>
<stop offset="1" stop-color="#0D0D0D"/>
</linearGradient>
<linearGradient id="paint35_linear_328_357" x1="945.313" y1="427.201" x2="864.406" y2="763.682" gradientUnits="userSpaceOnUse">
<stop stop-color="#D82029"/>
<stop offset="1" stop-color="#0D0D0D"/>
</linearGradient>
<linearGradient id="paint36_linear_328_357" x1="943.713" y1="433.853" x2="866.005" y2="757.029" gradientUnits="userSpaceOnUse">
<stop stop-color="#D82029"/>
<stop offset="1" stop-color="#0D0D0D"/>
</linearGradient>
<linearGradient id="paint37_linear_328_357" x1="942.114" y1="440.506" x2="867.605" y2="750.377" gradientUnits="userSpaceOnUse">
<stop stop-color="#D82029"/>
<stop offset="1" stop-color="#0D0D0D"/>
</linearGradient>
<linearGradient id="paint38_linear_328_357" x1="940.514" y1="447.158" x2="869.204" y2="743.725" gradientUnits="userSpaceOnUse">
<stop stop-color="#D82029"/>
<stop offset="1" stop-color="#0D0D0D"/>
</linearGradient>
<linearGradient id="paint39_linear_328_357" x1="938.915" y1="453.81" x2="870.804" y2="737.072" gradientUnits="userSpaceOnUse">
<stop stop-color="#D82029"/>
<stop offset="1" stop-color="#0D0D0D"/>
</linearGradient>
<linearGradient id="paint40_linear_328_357" x1="937.315" y1="460.463" x2="872.404" y2="730.42" gradientUnits="userSpaceOnUse">
<stop stop-color="#D82029"/>
<stop offset="1" stop-color="#0D0D0D"/>
</linearGradient>
<linearGradient id="paint41_linear_328_357" x1="935.72" y1="467.097" x2="874.003" y2="723.768" gradientUnits="userSpaceOnUse">
<stop stop-color="#D82029"/>
<stop offset="1" stop-color="#0D0D0D"/>
</linearGradient>
<linearGradient id="paint42_linear_328_357" x1="934.12" y1="473.75" x2="875.603" y2="717.115" gradientUnits="userSpaceOnUse">
<stop stop-color="#D82029"/>
<stop offset="1" stop-color="#0D0D0D"/>
</linearGradient>
<linearGradient id="paint43_linear_328_357" x1="932.521" y1="480.402" x2="877.202" y2="710.463" gradientUnits="userSpaceOnUse">
<stop stop-color="#D82029"/>
<stop offset="1" stop-color="#0D0D0D"/>
</linearGradient>
<linearGradient id="paint44_linear_328_357" x1="930.921" y1="487.054" x2="878.802" y2="703.811" gradientUnits="userSpaceOnUse">
<stop stop-color="#D82029"/>
<stop offset="1" stop-color="#0D0D0D"/>
</linearGradient>
<linearGradient id="paint45_linear_328_357" x1="525.118" y1="396.515" x2="476.197" y2="599.967" gradientUnits="userSpaceOnUse">
<stop stop-color="#D82029"/>
<stop offset="1" stop-color="#0D0D0D"/>
</linearGradient>
<linearGradient id="paint46_linear_328_357" x1="927.722" y1="500.359" x2="882.001" y2="690.506" gradientUnits="userSpaceOnUse">
<stop stop-color="#D82029"/>
<stop offset="1" stop-color="#0D0D0D"/>
</linearGradient>
<linearGradient id="paint47_linear_328_357" x1="926.122" y1="507.011" x2="883.6" y2="683.854" gradientUnits="userSpaceOnUse">
<stop stop-color="#D82029"/>
<stop offset="1" stop-color="#0D0D0D"/>
</linearGradient>
<linearGradient id="paint48_linear_328_357" x1="924.523" y1="513.664" x2="885.196" y2="677.219" gradientUnits="userSpaceOnUse">
<stop stop-color="#D82029"/>
<stop offset="1" stop-color="#0D0D0D"/>
</linearGradient>
<linearGradient id="paint49_linear_328_357" x1="922.923" y1="520.316" x2="886.795" y2="670.567" gradientUnits="userSpaceOnUse">
<stop stop-color="#D82029"/>
<stop offset="1" stop-color="#0D0D0D"/>
</linearGradient>
<linearGradient id="paint50_linear_328_357" x1="921.324" y1="526.968" x2="888.395" y2="663.914" gradientUnits="userSpaceOnUse">
<stop stop-color="#D82029"/>
<stop offset="1" stop-color="#0D0D0D"/>
</linearGradient>
<linearGradient id="paint51_linear_328_357" x1="919.724" y1="533.621" x2="889.995" y2="657.262" gradientUnits="userSpaceOnUse">
<stop stop-color="#D82029"/>
<stop offset="1" stop-color="#0D0D0D"/>
</linearGradient>
<clipPath id="clip0_328_357">
<rect width="824.97" height="831.467" fill="white" transform="translate(1001.29 194.387) rotate(103.52)"/>
</clipPath>
</defs>
</svg>
