<svg width="848" height="925" viewBox="0 0 848 925" fill="none" xmlns="http://www.w3.org/2000/svg">
<g clip-path="url(#clip0_328_358)">
<path d="M159.368 425.433C143.538 367.792 142.632 274.702 195.844 236.074C243.062 201.782 324.397 216.534 362.766 261.253C407.914 313.866 377.112 388.85 423.901 422.297C446.996 438.836 478.434 433.663 500.664 430.849C536.585 426.315 556.032 412.355 582.559 399.605C612.972 384.992 697.243 344.474 759.223 374.753C800.503 394.907 834.775 447.88 828.833 495.73C819.999 566.881 723.572 616.513 648.337 614.447C580.843 612.599 541.717 569.438 505.379 594.366C486.28 607.465 480.543 630.723 472.706 662.438C454.76 735.042 480.432 761.13 465.07 804.435C445.276 860.197 370.665 907.479 320.895 885.748C263.682 860.769 265.203 755.903 265.446 746.75C266.802 694.198 299.802 647.137 301.332 607.163C304.776 516.96 190.588 538.993 159.406 425.442L159.368 425.433Z" stroke="url(#paint0_linear_328_358)" stroke-miterlimit="10"/>
<path d="M159.368 425.433C143.538 367.792 142.632 274.702 195.844 236.074C243.062 201.782 324.397 216.534 362.766 261.253C407.914 313.866 377.112 388.85 423.901 422.297C446.996 438.836 478.434 433.663 500.664 430.849C536.585 426.315 556.032 412.355 582.559 399.605C612.972 384.992 697.243 344.474 759.223 374.753C800.503 394.907 834.775 447.88 828.833 495.73C819.999 566.881 723.572 616.513 648.337 614.447C580.843 612.599 541.717 569.438 505.379 594.366C486.28 607.465 480.543 630.723 472.706 662.438C454.76 735.042 480.432 761.13 465.07 804.435C445.276 860.197 370.665 907.479 320.895 885.748C263.682 860.769 265.203 755.903 265.446 746.75C266.802 694.198 299.802 647.137 301.332 607.163C304.776 516.96 190.588 538.993 159.406 425.442L159.368 425.433Z" stroke="url(#paint1_linear_328_358)" stroke-miterlimit="10"/>
<path d="M159.368 425.433C143.538 367.792 142.632 274.702 195.844 236.074C243.062 201.782 324.397 216.534 362.766 261.253C407.914 313.866 377.112 388.85 423.901 422.297C446.996 438.836 478.434 433.663 500.664 430.849C536.585 426.315 556.032 412.355 582.559 399.605C612.972 384.992 697.243 344.474 759.223 374.753C800.503 394.907 834.775 447.88 828.833 495.73C819.999 566.881 723.572 616.513 648.337 614.447C580.843 612.599 541.717 569.438 505.379 594.366C486.28 607.465 480.543 630.723 472.706 662.438C454.76 735.042 480.432 761.13 465.07 804.435C445.276 860.197 370.665 907.479 320.895 885.748C263.682 860.769 265.203 755.903 265.446 746.75C266.802 694.198 299.802 647.137 301.332 607.163C304.776 516.96 190.588 538.993 159.406 425.442L159.368 425.433Z" stroke="url(#paint2_linear_328_358)" stroke-miterlimit="10"/>
<path d="M159.368 425.433C143.538 367.792 142.632 274.702 195.844 236.074C243.062 201.782 324.397 216.534 362.766 261.253C407.914 313.866 377.112 388.85 423.901 422.297C446.996 438.836 478.434 433.663 500.664 430.849C536.585 426.315 556.032 412.355 582.559 399.605C612.972 384.992 697.243 344.474 759.223 374.753C800.503 394.907 834.775 447.88 828.833 495.73C819.999 566.881 723.572 616.513 648.337 614.447C580.843 612.599 541.717 569.438 505.379 594.366C486.28 607.465 480.543 630.723 472.706 662.438C454.76 735.042 480.432 761.13 465.07 804.435C445.276 860.197 370.665 907.479 320.895 885.748C263.682 860.769 265.203 755.903 265.446 746.75C266.802 694.198 299.802 647.137 301.332 607.163C304.776 516.96 190.588 538.993 159.406 425.442L159.368 425.433Z" stroke="url(#paint3_linear_328_358)" stroke-miterlimit="10"/>
<path d="M163.87 425.992C148.269 369.257 147.397 277.633 199.757 239.608C246.242 205.844 326.314 220.373 364.083 264.386C408.534 316.183 378.218 389.984 424.273 422.943C447.025 439.224 477.958 434.131 499.831 431.372C535.185 426.923 554.323 413.157 580.44 400.596C610.372 386.217 693.343 346.312 754.379 376.134C795.025 395.975 828.763 448.132 822.902 495.221C814.211 565.268 719.283 614.129 645.234 612.096C578.788 610.267 540.273 567.772 504.492 592.317C485.702 605.222 480.051 628.122 472.337 659.319C454.681 730.794 479.925 756.475 464.801 799.122C445.315 854.014 371.847 900.579 322.849 879.176C266.537 854.579 268.016 751.33 268.244 742.322C269.587 690.59 302.068 644.26 303.579 604.874C306.991 516.078 194.57 537.747 163.855 425.967L163.87 425.992Z" stroke="url(#paint4_linear_328_358)" stroke-miterlimit="10"/>
<path d="M168.348 426.566C153 370.721 152.11 280.53 203.68 243.102C249.431 209.866 328.241 224.172 365.409 267.479C409.165 318.461 379.309 391.092 424.64 423.525C447.011 439.538 477.477 434.535 499.017 431.815C533.813 427.411 552.646 413.904 578.354 401.532C607.805 387.387 689.49 348.12 749.53 377.45C789.519 396.993 822.732 448.295 816.981 494.673C808.431 563.615 715.004 611.704 642.103 609.695C576.72 607.911 538.814 566.082 503.591 590.244C485.096 602.929 479.53 625.471 471.931 656.191C454.541 726.551 479.417 751.819 464.517 793.785C445.34 847.807 373.024 893.614 324.813 872.564C269.377 848.365 270.853 746.742 271.067 737.878C272.381 686.942 304.357 641.369 305.84 602.609C309.182 515.211 198.542 536.54 168.334 426.541L168.348 426.566Z" stroke="url(#paint5_linear_328_358)" stroke-miterlimit="10"/>
<path d="M172.826 427.14C157.732 372.185 156.875 283.462 207.579 246.612C252.61 213.928 330.144 227.986 366.701 270.626C409.761 320.794 380.391 392.241 424.974 424.162C447.001 439.916 476.962 434.993 498.145 432.328C532.375 428.009 550.922 414.681 576.211 402.539C605.204 388.613 685.542 349.988 744.638 378.86C783.993 398.091 816.673 448.578 811.002 494.194C802.58 562.007 710.653 609.324 638.953 607.374C574.617 605.609 537.298 564.461 502.656 588.225C484.47 600.716 478.976 622.875 471.514 653.102C454.4 722.308 478.886 747.179 464.223 788.488C445.356 841.639 374.206 886.714 326.767 865.992C272.232 842.175 273.68 742.194 273.903 733.459C275.204 683.344 306.647 638.477 308.116 600.369C311.411 514.354 202.543 535.384 172.788 427.13L172.826 427.14Z" stroke="url(#paint6_linear_328_358)" stroke-miterlimit="10"/>
<path d="M177.319 427.739C162.453 373.69 161.617 286.409 211.506 250.171C255.781 218.03 332.052 231.865 368.032 273.784C410.382 323.111 381.487 393.414 425.361 424.833C447.021 440.344 476.501 435.485 497.35 432.861C531.037 428.612 549.265 415.518 574.144 403.565C602.657 389.873 681.694 351.86 739.833 380.251C778.554 399.168 810.685 448.815 805.109 493.695C796.83 560.404 706.379 606.964 635.85 605.023C572.563 603.277 535.854 562.796 501.783 586.201C483.893 598.473 478.498 620.298 471.136 650.023C454.312 718.1 478.369 742.563 463.967 783.201C445.409 835.481 375.427 879.824 328.735 859.445C275.077 836.025 276.521 737.671 276.731 729.08C277.993 679.801 308.942 635.65 310.382 598.169C313.621 513.577 206.544 534.227 177.271 427.769L177.319 427.739Z" stroke="url(#paint7_linear_328_358)" stroke-miterlimit="10"/>
<path d="M181.797 428.313C167.185 375.154 166.368 289.316 215.429 253.665C258.97 222.052 333.978 235.664 369.359 276.877C410.988 325.404 382.593 394.547 425.728 425.415C447.045 440.667 476.02 435.888 496.512 433.319C529.632 429.155 547.551 416.255 572.02 404.491C600.037 391.008 677.789 353.634 734.96 381.582C773.033 400.162 804.645 449.018 799.163 493.162C791.027 558.766 702.076 604.554 632.71 602.663C570.485 600.961 534.386 561.145 500.858 584.142C483.253 596.235 477.954 617.662 470.73 646.895C454.171 713.857 477.861 737.907 463.683 777.864C445.449 829.298 376.619 872.885 330.713 852.858C277.956 829.821 279.334 733.098 279.567 724.661C280.816 676.202 311.246 632.784 312.682 595.915C315.85 512.72 210.554 533.031 181.773 428.328L181.797 428.313Z" stroke="url(#paint8_linear_328_358)" stroke-miterlimit="10"/>
<path d="M186.299 428.873C171.94 376.603 171.119 292.223 219.366 257.184C262.174 226.099 335.919 239.488 370.713 280.02C411.647 327.731 383.737 395.691 426.147 426.031C447.083 441.015 475.568 436.341 495.75 433.797C528.313 429.678 545.95 417.022 569.986 405.462C597.546 392.199 673.988 355.476 730.164 382.933C767.579 401.215 798.681 449.24 793.28 492.623C785.285 557.123 697.835 602.139 629.64 600.257C568.464 598.574 532.975 559.425 500.018 582.063C482.709 593.938 477.509 615.031 470.399 643.786C454.131 709.619 477.392 733.262 463.475 772.546C445.55 823.11 377.863 865.98 332.753 846.266C280.872 823.626 282.247 728.529 282.466 720.237C283.687 672.574 313.612 629.912 315.02 593.67C318.155 511.883 214.617 531.869 186.328 428.922L186.299 428.873Z" stroke="url(#paint9_linear_328_358)" stroke-miterlimit="10"/>
<path d="M190.777 429.447C176.671 378.068 175.87 295.129 223.264 260.694C265.339 230.136 337.822 243.302 372.015 283.128C412.253 330.024 384.805 396.814 426.505 426.653C447.097 441.378 475.077 436.784 494.902 434.295C526.898 430.261 544.24 417.824 567.867 406.454C594.946 393.424 670.064 357.329 725.32 384.314C762.101 402.283 792.655 449.468 787.349 492.115C779.472 555.525 693.546 599.754 626.514 597.921C566.385 596.258 531.497 557.815 499.107 580.03C482.107 591.71 476.979 612.42 470.007 640.683C454.028 705.386 476.898 728.631 463.205 767.234C445.589 816.927 379.069 859.065 334.707 839.694C283.727 817.436 285.074 723.981 285.302 715.819C286.509 668.976 315.915 627.046 317.281 591.405C320.346 511.016 218.589 530.663 190.792 429.472L190.777 429.447Z" stroke="url(#paint10_linear_328_358)" stroke-miterlimit="10"/>
<path d="M195.255 430.021C181.378 379.547 180.598 298.051 227.177 264.228C268.519 234.198 339.739 247.141 373.332 286.261C412.874 332.342 385.887 397.962 426.862 427.274C447.088 441.756 474.587 437.227 494.078 434.778C525.531 430.814 542.54 418.586 565.771 407.43C592.393 394.62 666.187 359.152 720.461 385.67C756.609 403.326 786.605 449.711 781.417 491.606C773.684 553.912 689.257 597.37 623.397 595.546C564.292 593.916 530.038 556.124 498.219 577.981C481.515 589.442 476.487 609.819 469.614 637.579C453.888 701.144 476.367 723.991 462.936 761.922C445.628 810.744 380.275 852.15 336.685 833.107C286.605 811.232 287.924 719.418 288.139 711.4C289.332 665.378 318.219 624.179 319.557 589.165C322.589 510.184 222.599 529.467 195.284 430.071L195.255 430.021Z" stroke="url(#paint11_linear_328_358)" stroke-miterlimit="10"/>
<path d="M199.734 430.595C186.124 381.036 185.325 300.973 231.09 267.762C271.699 238.26 341.657 250.979 374.625 289.409C413.456 334.649 386.983 399.136 427.196 427.911C447.079 442.134 474.072 437.685 493.193 435.266C524.079 431.387 540.816 419.363 563.6 408.386C589.741 395.81 662.234 360.956 715.527 387.006C751.041 404.349 780.488 449.894 775.396 491.053C767.79 552.23 684.878 594.94 620.166 593.14C562.124 591.555 528.48 554.429 497.228 575.862C480.809 587.144 475.875 607.123 469.141 634.391C453.704 696.826 475.778 719.251 462.571 756.5C445.549 804.467 381.385 845.126 338.582 826.435C289.379 804.958 290.68 714.746 290.895 706.897C292.074 661.696 320.443 621.228 321.752 586.841C324.713 509.258 226.505 528.201 199.681 430.56L199.734 430.595Z" stroke="url(#paint12_linear_328_358)" stroke-miterlimit="10"/>
<path d="M204.212 431.169C190.855 382.501 190.076 303.88 235.013 271.256C274.902 242.307 343.569 254.753 375.965 292.527C414.101 336.952 388.089 400.269 427.592 428.542C447.093 442.497 473.62 438.138 492.407 435.759C522.736 431.925 539.154 420.135 561.566 409.357C587.226 397.015 658.41 362.813 710.769 388.367C745.626 405.412 774.562 450.126 769.55 490.524C762.087 550.597 680.66 592.51 617.125 590.784C560.131 589.218 527.097 552.759 496.402 573.809C480.279 584.871 475.445 604.517 468.81 631.282C453.664 692.588 475.323 714.63 462.339 751.198C445.626 798.294 382.591 838.211 340.574 819.873C292.272 798.778 293.545 710.208 293.731 702.478C294.859 658.088 322.747 618.362 324.051 584.586C326.98 508.41 230.53 527.03 204.183 431.12L204.212 431.169Z" stroke="url(#paint13_linear_328_358)" stroke-miterlimit="10"/>
<path d="M208.714 431.729C195.586 383.965 194.827 306.787 238.95 274.775C278.082 246.368 345.51 258.577 377.306 295.645C414.745 339.254 389.195 401.402 427.973 429.149C447.132 442.845 473.153 438.566 491.607 436.227C521.369 432.478 537.492 420.908 559.494 410.319C584.697 398.196 654.557 364.621 705.934 389.708C740.143 406.415 768.56 450.339 763.643 490.001C756.322 548.969 676.395 590.11 614.032 588.394C558.086 586.847 525.638 551.068 495.539 571.745C479.725 582.613 474.962 601.876 468.442 628.164C453.561 688.355 474.839 709.96 462.093 745.871C445.689 792.096 383.821 831.281 342.576 813.271C295.15 792.573 296.42 705.63 296.592 698.044C297.705 654.475 325.06 615.455 326.351 582.332C329.209 507.554 234.564 525.818 208.7 431.704L208.714 431.729Z" stroke="url(#paint14_linear_328_358)" stroke-miterlimit="10"/>
<path d="M213.207 432.328C200.332 385.455 199.593 309.719 242.863 278.31C281.262 250.43 347.427 262.416 378.622 298.778C415.342 341.587 390.301 402.536 428.345 429.795C447.137 443.248 472.677 439.034 490.773 436.75C519.992 433.07 535.806 421.695 557.389 411.335C582.111 399.446 650.671 366.484 701.105 391.114C734.679 407.508 762.548 450.591 757.726 489.517C750.547 547.381 672.097 587.765 610.92 586.083C556.036 584.58 524.199 549.468 494.642 569.736C479.123 580.385 474.437 599.33 468.064 625.085C453.473 684.147 474.336 705.369 461.837 740.584C445.743 785.938 385.041 824.391 344.544 806.724C298.019 786.409 299.261 701.106 299.443 693.65C300.542 650.901 327.378 612.614 328.627 580.092C331.452 506.721 238.55 524.637 213.178 432.278L213.207 432.328Z" stroke="url(#paint15_linear_328_358)" stroke-miterlimit="10"/>
<path d="M217.685 432.902C205.063 386.919 204.334 312.665 246.776 281.844C284.441 254.492 349.345 266.255 379.953 301.935C415.977 343.929 391.411 403.734 428.741 430.427C447.189 443.621 472.225 439.487 489.988 437.243C518.625 433.623 534.158 422.491 555.332 412.321C579.573 400.666 646.833 368.317 696.285 392.48C729.226 408.561 756.561 450.829 751.819 488.993C744.782 545.753 667.832 585.365 607.827 583.692C553.991 582.209 522.764 547.762 493.779 567.672C478.569 578.127 473.954 596.689 467.709 621.991C453.394 679.899 473.867 700.723 461.606 735.281C445.82 779.765 386.286 817.486 346.56 800.147C300.912 780.229 302.112 696.543 302.318 689.241C303.403 647.313 329.72 609.757 330.941 577.862C333.696 505.889 242.575 523.465 217.709 432.887L217.685 432.902Z" stroke="url(#paint16_linear_328_358)" stroke-miterlimit="10"/>
<path d="M222.163 433.476C209.77 388.398 209.062 315.587 250.698 285.338C287.631 258.514 351.271 270.054 381.279 305.028C416.593 346.182 392.503 404.842 429.108 431.008C447.175 443.935 471.744 439.89 489.15 437.701C517.244 434.151 532.444 423.229 553.208 413.247C576.992 401.812 642.918 370.13 691.412 393.811C723.696 409.594 750.506 451.007 745.873 488.46C738.979 544.115 663.529 582.956 604.686 581.331C551.899 579.867 521.272 546.127 492.853 565.614C477.915 575.865 473.41 594.053 467.303 618.863C453.254 675.656 473.359 696.068 461.321 729.944C445.845 773.557 387.453 810.562 348.538 793.56C303.791 774.024 304.963 691.98 305.154 684.822C306.226 643.715 332.024 606.89 333.24 575.607C335.939 505.057 246.624 522.279 222.211 433.446L222.163 433.476Z" stroke="url(#paint17_linear_328_358)" stroke-miterlimit="10"/>
<path d="M226.665 434.035C214.526 389.848 213.837 318.479 254.635 288.857C290.834 262.561 353.189 273.893 382.62 308.146C417.237 348.485 393.633 405.961 429.504 431.64C447.228 444.308 471.306 440.368 488.364 438.194C515.915 434.714 530.82 424.011 551.151 414.234C574.453 403.032 639.079 371.963 686.616 395.162C718.265 410.632 744.542 451.229 739.99 487.921C733.238 542.472 659.288 580.541 601.593 578.941C549.868 577.521 519.837 544.422 491.99 563.55C477.347 573.582 472.941 591.437 466.934 615.744C453.175 671.409 472.851 691.412 461.075 724.617C445.908 767.359 388.683 803.632 350.516 786.973C306.645 767.835 307.814 687.417 307.991 680.403C309.035 640.092 334.328 604.024 335.516 573.367C338.168 504.2 250.61 521.098 226.703 434.045L226.665 434.035Z" stroke="url(#paint18_linear_328_358)" stroke-miterlimit="10"/>
<path d="M231.143 434.609C219.257 391.312 218.564 321.401 258.534 292.367C294 266.598 355.092 277.707 383.913 311.294C417.834 350.817 394.691 407.124 429.838 432.276C447.195 444.701 470.792 440.826 487.493 438.706C514.477 435.312 529.072 424.803 549.008 415.24C571.853 404.257 635.155 373.816 681.724 396.573C712.726 411.705 738.483 451.512 734.011 487.443C727.363 540.879 654.937 578.161 598.443 576.62C547.742 575.234 518.36 542.811 491.055 561.531C476.722 571.369 472.387 588.841 466.518 612.656C453.049 667.191 472.32 686.772 460.782 719.32C445.924 761.191 389.866 796.732 352.47 780.401C309.5 761.645 310.641 682.869 310.827 675.985C311.834 636.509 336.632 601.157 337.792 571.128C340.387 503.383 254.597 519.916 231.182 434.619L231.143 434.609Z" stroke="url(#paint19_linear_328_358)" stroke-miterlimit="10"/>
<path d="M235.622 435.184C223.964 392.791 223.315 324.308 262.447 295.901C297.194 270.685 357.009 281.546 385.229 314.427C418.455 353.135 395.773 408.273 430.196 432.898C447.209 445.064 470.302 441.269 486.669 439.189C513.096 435.84 527.386 425.589 546.912 416.216C569.276 405.468 631.293 375.663 676.866 397.929C707.234 412.748 732.442 451.714 728.08 486.934C721.574 539.266 650.649 575.776 595.303 574.259C545.649 572.892 516.877 541.135 490.144 559.497C476.106 569.116 471.871 586.254 466.102 609.567C452.899 662.987 471.779 682.171 460.488 714.022C445.939 755.023 391.033 789.807 354.424 773.828C312.355 755.455 313.454 678.296 313.64 671.581C314.633 632.926 338.913 598.306 340.044 568.903C342.592 502.541 258.583 518.735 235.65 435.233L235.622 435.184Z" stroke="url(#paint20_linear_328_358)" stroke-miterlimit="10"/>
<path d="M240.1 435.758C228.696 394.256 228.042 327.23 266.346 299.41C300.359 274.722 358.912 285.36 386.531 317.535C419.061 355.428 396.879 409.406 430.553 433.519C447.186 445.417 469.811 441.712 485.821 439.687C511.682 436.423 525.686 426.352 544.778 417.182C566.662 406.668 627.354 377.491 672.008 399.285C701.718 413.806 726.416 451.942 722.134 486.401C715.771 537.628 646.346 573.366 592.186 571.883C543.595 570.561 515.395 539.46 489.242 557.423C475.49 566.863 471.351 583.603 465.719 606.423C452.791 658.69 471.281 677.476 460.204 708.685C445.979 748.841 392.201 782.883 356.364 767.231C315.171 749.256 316.266 673.723 316.425 667.127C317.403 629.293 341.164 595.404 342.253 566.603C344.731 501.639 262.518 517.519 240.062 435.748L240.1 435.758Z" stroke="url(#paint21_linear_328_358)" stroke-miterlimit="10"/>
<path d="M244.578 436.332C233.427 395.72 232.794 330.137 270.283 302.929C303.539 278.784 360.853 289.184 387.886 320.678C419.682 357.745 397.999 410.564 430.949 434.151C447.214 445.805 469.359 442.165 485.035 440.18C510.353 436.986 524.038 427.149 542.721 418.169C564.147 407.874 623.516 379.324 667.188 400.651C696.264 414.859 720.414 452.155 716.227 485.877C710.006 536.001 642.057 570.982 589.069 569.508C541.526 568.204 513.95 537.795 488.355 555.375C474.898 564.595 470.858 581.002 465.326 603.32C452.689 654.457 470.764 672.86 459.934 703.373C445.994 742.673 393.407 775.968 358.356 760.669C318.064 743.076 319.131 669.185 319.275 662.733C320.226 625.695 343.483 592.563 344.567 564.374C347.012 500.817 266.542 516.347 244.554 436.347L244.578 436.332Z" stroke="url(#paint22_linear_328_358)" stroke-miterlimit="10"/>
<path d="M249.094 436.916C238.172 397.21 237.559 333.068 274.22 306.449C306.742 282.831 362.794 293.008 389.226 323.796C420.326 360.048 399.105 411.698 431.33 434.757C447.253 446.153 468.892 442.593 484.211 440.663C508.962 437.554 522.352 427.936 540.625 419.145C561.571 409.084 619.639 381.147 662.344 402.032C690.786 415.927 714.402 452.407 710.31 485.393C704.231 534.412 637.782 568.621 585.957 567.196C539.462 565.912 512.496 536.169 487.458 553.366C474.311 562.392 470.342 578.416 464.962 600.266C452.591 650.289 470.284 668.254 459.693 698.111C446.062 736.539 394.642 769.103 360.363 754.132C320.947 736.936 322.011 664.671 322.164 658.349C323.101 622.132 345.825 589.706 346.895 562.168C349.269 500.01 270.605 515.186 249.099 436.981L249.094 436.916Z" stroke="url(#paint23_linear_328_358)" stroke-miterlimit="10"/>
<path d="M253.573 437.49C242.904 398.674 242.286 335.99 278.133 309.983C309.922 286.893 364.697 296.822 390.543 326.929C420.947 362.365 400.211 412.831 431.726 435.389C447.267 446.516 468.44 443.046 483.426 441.156C507.619 438.092 520.714 428.693 538.568 420.131C559.032 410.304 615.815 383.005 657.547 403.383C685.356 416.965 708.438 452.63 704.427 484.855C698.49 532.77 633.541 566.207 582.888 564.791C537.441 563.526 511.1 534.474 486.605 551.262C473.752 560.069 469.884 575.76 464.603 597.108C452.522 646.001 469.786 663.559 459.456 692.744C446.135 730.302 395.881 762.133 362.35 747.505C323.821 730.667 324.833 660.059 325.011 653.89C325.934 618.494 348.138 586.8 349.18 559.889C351.499 499.153 274.615 513.989 253.587 437.515L253.573 437.49Z" stroke="url(#paint24_linear_328_358)" stroke-miterlimit="10"/>
<path d="M258.051 438.065C247.635 400.138 247.037 338.897 282.032 313.492C313.088 290.93 366.6 300.635 391.845 330.037C421.553 364.658 401.293 413.979 432.07 435.986C447.267 446.855 467.935 443.464 482.564 441.629C506.19 438.65 518.99 429.47 536.42 421.072C556.427 411.465 611.862 384.808 652.651 404.729C679.788 417.988 702.36 452.823 698.443 484.311C692.635 531.097 629.186 563.762 579.709 562.42C535.324 561.2 509.555 532.803 485.655 549.218C473.113 557.831 469.315 573.139 464.173 593.994C452.382 641.758 469.255 658.918 459.149 687.422C446.136 724.109 397.049 755.208 364.29 740.908C326.638 724.468 327.646 655.486 327.809 649.462C328.695 614.901 350.404 583.923 351.418 557.639C353.689 498.286 278.564 512.798 258.042 438.104L258.051 438.065Z" stroke="url(#paint25_linear_328_358)" stroke-miterlimit="10"/>
<path d="M262.529 438.639C252.342 401.618 251.779 341.844 285.945 317.026C316.267 294.992 368.517 304.474 393.153 333.209C422.164 367.015 402.365 415.168 432.418 436.647C447.249 447.272 467.435 443.947 481.73 442.152C504.814 439.243 517.28 430.272 534.339 422.073C553.865 412.7 608 386.656 647.807 406.11C674.311 419.056 696.324 453.09 692.526 483.828C686.86 529.509 624.911 561.402 576.606 560.069C533.27 558.868 508.125 531.163 484.768 547.169C472.497 555.578 468.809 570.513 463.78 590.89C452.255 637.54 468.747 654.263 458.879 682.109C446.175 717.926 398.231 748.308 366.268 734.321C329.516 718.263 330.497 650.922 330.646 645.043C331.503 611.278 352.708 581.057 353.703 555.36C355.918 497.429 282.584 511.562 262.529 438.639Z" stroke="url(#paint26_linear_328_358)" stroke-miterlimit="10"/>
<path d="M267.008 439.213C257.074 403.082 256.53 344.751 289.867 320.521C319.471 299.039 370.444 308.273 394.479 336.302C422.78 369.268 403.481 416.261 432.799 437.254C447.287 447.621 466.969 444.375 480.907 442.635C503.409 439.786 515.618 431.044 532.244 423.05C551.313 413.895 604.123 388.479 642.987 407.476C668.857 420.109 690.322 453.303 686.619 483.304C681.071 527.896 620.647 559.002 573.504 557.719C531.192 556.551 506.681 529.498 483.895 545.146C471.934 553.36 468.331 567.937 463.426 587.797C452.177 633.292 468.268 649.657 458.647 676.807C446.253 711.753 399.476 741.404 368.275 727.784C332.399 712.123 333.376 646.409 333.511 640.674C334.354 607.73 355.041 578.24 356.008 553.17C358.176 496.622 286.599 510.43 267.051 439.288L267.008 439.213Z" stroke="url(#paint27_linear_328_358)" stroke-miterlimit="10"/>
<path d="M271.51 439.772C261.828 404.532 261.281 347.657 293.804 324.04C322.675 303.085 372.385 312.097 395.819 339.42C423.424 371.571 404.586 417.395 433.181 437.86C447.287 447.959 466.502 444.803 480.092 443.078C502.051 440.299 513.927 431.766 530.158 423.986C548.745 415.066 600.246 390.302 638.138 408.792C663.374 421.112 684.306 453.491 680.683 482.731C675.277 526.218 616.353 556.553 570.358 555.293C529.108 554.17 505.208 527.782 482.989 543.007C471.322 551.003 467.805 565.221 463.015 584.604C452.055 628.97 467.742 644.912 458.344 671.38C446.259 705.456 400.634 734.35 370.219 721.083C335.244 705.804 336.179 641.707 336.338 636.126C337.168 604.002 357.335 575.244 358.274 550.8C360.386 495.676 290.59 509.145 271.519 439.732L271.51 439.772Z" stroke="url(#paint28_linear_328_358)" stroke-miterlimit="10"/>
<path d="M275.988 440.346C266.56 405.996 266.009 350.579 297.703 327.549C325.84 307.122 374.288 315.911 397.136 342.553C424.045 373.888 405.668 418.543 433.538 438.482C447.302 448.322 466.012 445.246 479.245 443.576C500.637 440.882 512.218 432.568 528.024 424.952C546.117 416.241 596.332 392.115 633.256 410.163C657.835 422.185 678.256 453.733 674.728 482.237C669.465 524.62 612.04 554.183 567.232 552.957C527.03 551.853 503.716 526.147 482.092 540.998C470.735 548.8 467.304 562.66 462.637 581.525C451.943 624.777 467.239 640.321 458.088 666.093C446.312 699.298 401.854 727.46 372.211 714.521C338.137 699.624 339.045 637.169 339.175 631.707C339.991 600.404 359.639 572.377 360.55 548.561C362.615 494.819 294.601 507.948 276.012 440.332L275.988 440.346Z" stroke="url(#paint29_linear_328_358)" stroke-miterlimit="10"/>
<path d="M280.466 440.921C271.281 407.5 270.76 353.486 301.616 331.083C328.996 311.199 376.181 319.765 398.452 345.686C424.642 376.221 406.788 419.701 433.91 439.128C447.306 448.725 465.536 445.714 478.435 444.084C499.284 441.46 510.532 433.355 525.943 425.954C543.578 417.462 592.469 393.963 628.436 411.529C652.381 423.238 672.253 453.946 668.821 481.714C663.699 522.992 607.752 551.798 564.115 550.582C524.961 549.497 502.257 524.456 481.19 538.925C470.105 546.522 466.783 560.009 462.23 578.396C451.826 620.519 466.717 635.641 457.78 660.771C446.313 693.105 402.998 720.55 374.127 707.939C340.93 693.44 341.833 632.611 341.949 627.293C342.737 596.786 361.881 569.516 362.763 546.326C364.772 494.007 298.525 506.772 280.428 440.911L280.466 440.921Z" stroke="url(#paint30_linear_328_358)" stroke-miterlimit="10"/>
<path d="M284.959 441.52C276.027 408.989 275.501 356.433 305.529 334.617C332.176 315.261 378.098 323.604 399.769 348.819C425.262 378.538 407.871 420.85 434.292 439.735C447.345 449.073 465.069 446.142 477.611 444.567C497.879 442.003 508.87 434.127 523.847 426.93C541.002 418.672 588.607 395.811 623.592 412.91C646.889 424.281 666.242 454.198 662.889 481.205C657.911 521.379 603.449 549.388 561.012 548.231C522.921 547.19 500.827 522.816 480.318 536.901C469.542 544.304 466.305 557.433 461.89 575.327C451.776 616.321 466.238 631.035 457.563 655.493C446.381 686.972 404.257 713.67 376.158 701.386C343.861 687.27 344.699 628.072 344.839 622.909C345.588 593.238 364.223 566.659 365.101 544.081C367.039 493.159 302.574 505.585 284.968 441.48L284.959 441.52Z" stroke="url(#paint31_linear_328_358)" stroke-miterlimit="10"/>
<path d="M289.437 442.094C280.758 410.454 280.252 359.34 309.466 338.137C335.379 319.308 380.039 327.428 401.1 351.977C425.883 380.856 408.967 422.023 434.664 440.381C447.336 449.451 464.593 446.61 476.802 445.075C496.527 442.581 507.184 434.914 521.766 427.931C538.439 419.907 584.721 397.673 618.748 414.291C641.411 425.349 660.216 454.426 656.958 480.696C652.107 519.741 599.16 547.003 557.872 545.87C520.828 544.849 499.345 521.141 479.392 534.842C468.911 542.026 465.76 554.797 461.459 572.214C451.597 612.068 465.706 626.395 457.255 650.171C446.383 680.779 405.425 706.745 378.112 694.814C346.692 681.095 347.526 623.524 347.675 618.49C348.411 589.64 366.527 563.793 367.377 541.841C369.282 492.327 306.575 504.429 289.461 442.079L289.437 442.094Z" stroke="url(#paint32_linear_328_358)" stroke-miterlimit="10"/>
<path d="M293.939 442.653C285.49 411.918 285.004 362.247 313.389 341.631C338.569 323.33 381.966 331.227 402.426 355.07C426.513 383.134 410.082 423.116 435.045 440.988C447.374 449.799 464.126 447.038 476.002 445.543C495.16 443.134 505.522 435.686 519.68 428.867C535.896 421.063 580.854 399.457 613.938 415.617C635.967 426.362 654.238 454.624 651.075 480.158C646.366 518.099 594.919 544.588 554.793 543.504C518.798 542.502 497.915 519.5 478.529 532.778C468.358 539.768 465.292 552.181 461.091 569.095C451.519 607.82 465.199 621.739 457.009 644.844C446.446 674.581 406.654 699.815 380.09 688.227C349.57 674.891 350.377 618.961 350.512 614.071C351.234 586.042 368.831 560.926 369.653 539.601C371.488 491.485 310.585 503.233 293.939 442.653Z" stroke="url(#paint33_linear_328_358)" stroke-miterlimit="10"/>
<path d="M298.417 443.227C290.221 413.383 289.731 365.168 317.301 345.165C341.763 327.417 383.883 335.066 403.742 358.203C427.134 385.451 411.179 424.29 435.403 441.609C447.365 450.177 463.636 447.481 475.154 446.041C493.769 443.702 503.821 436.448 517.561 429.858C533.296 422.288 576.953 401.294 609.056 416.988C630.427 427.435 648.188 454.866 645.106 479.639C640.539 516.476 590.592 542.194 551.638 541.119C516.705 540.161 496.418 517.8 477.604 530.719C467.727 537.49 464.747 549.545 460.684 565.967C451.378 603.577 464.691 617.084 456.725 639.507C446.485 668.398 407.822 692.89 382.053 681.615C352.411 668.676 353.213 614.373 353.334 609.628C354.043 582.419 371.121 558.035 371.914 537.337C373.702 490.603 314.557 502.026 298.417 443.227Z" stroke="url(#paint34_linear_328_358)" stroke-miterlimit="10"/>
<path d="M302.896 443.802C294.952 414.847 294.482 368.075 321.2 348.674C344.928 331.454 385.772 338.855 405.045 361.311C427.74 387.744 412.246 425.413 435.76 442.231C447.379 450.54 463.146 447.924 474.33 446.524C492.364 444.245 502.135 437.235 515.466 430.835C530.743 423.483 573.091 403.142 604.236 418.354C624.973 428.488 642.186 455.079 639.198 479.116C634.774 514.848 586.327 539.794 548.521 538.743C514.612 537.819 494.973 516.134 476.702 528.646C467.112 535.238 464.241 546.919 460.277 562.839C451.261 599.32 464.145 612.418 456.441 634.17C446.51 662.191 409 685.926 383.993 675.019C355.251 662.462 356.012 609.775 356.133 605.199C356.813 578.786 373.387 555.158 374.176 535.072C375.907 489.762 318.53 500.82 302.881 443.777L302.896 443.802Z" stroke="url(#paint35_linear_328_358)" stroke-miterlimit="10"/>
<path d="M307.374 444.376C299.659 416.326 299.224 371.022 325.137 352.194C348.132 335.501 387.713 342.679 406.399 364.454C428.399 390.072 413.39 426.556 436.156 442.862C447.393 450.903 462.708 448.402 473.52 447.032C491.012 444.823 500.464 438.047 513.384 431.836C528.181 424.719 569.205 405.005 599.391 419.735C619.495 429.556 636.174 455.331 633.281 478.632C628.976 513.275 582.052 537.434 545.433 536.417C512.572 535.513 493.519 514.509 475.843 526.647C466.548 533.02 463.763 544.342 459.937 559.77C451.211 595.121 463.69 607.798 456.223 628.893C446.602 656.043 410.258 679.046 386.024 668.466C358.158 656.307 358.915 605.247 359.022 600.815C359.688 575.223 375.743 552.326 376.504 532.867C378.189 488.939 322.607 499.684 307.426 444.411L307.374 444.376Z" stroke="url(#paint36_linear_328_358)" stroke-miterlimit="10"/>
<path d="M311.876 444.935C304.414 417.776 303.998 373.914 329.06 355.688C351.321 339.523 389.64 346.478 407.725 367.547C428.991 392.339 414.482 427.665 436.523 443.444C447.417 451.227 462.227 448.805 472.706 447.475C489.63 445.351 498.797 438.754 511.284 432.747C525.6 425.864 565.323 406.763 594.543 421.051C613.998 430.534 630.157 455.519 627.345 478.059C623.182 511.597 577.745 534.959 542.287 533.992C510.489 533.131 492.032 512.769 474.913 524.523C465.927 530.702 463.214 541.642 459.502 556.591C451.028 590.804 463.154 603.092 455.91 623.506C446.598 649.785 411.421 672.057 387.973 661.829C361.008 650.053 361.737 600.634 361.839 596.307C362.468 571.55 378.028 549.37 378.746 530.513C380.375 488.008 326.56 498.388 311.847 444.885L311.876 444.935Z" stroke="url(#paint37_linear_328_358)" stroke-miterlimit="10"/>
<path d="M316.354 445.509C309.146 419.24 308.726 376.836 332.973 359.222C354.477 343.6 391.557 350.316 409.042 370.68C429.611 394.657 415.564 428.813 436.919 444.076C447.446 451.615 461.774 449.258 471.897 447.983C488.264 445.904 497.125 439.566 509.203 433.749C523.061 427.085 561.461 408.611 589.723 422.417C608.521 431.602 624.155 455.732 621.438 477.535C617.417 509.969 573.456 532.574 539.185 531.641C508.435 530.8 490.602 511.128 474.04 522.499C465.35 528.459 462.736 539.065 459.162 553.523C450.978 586.606 462.675 598.487 455.669 618.243C446.666 643.652 412.656 665.191 389.956 655.307C363.891 643.913 364.593 596.136 364.681 591.952C365.296 568.016 380.337 546.568 381.027 528.338C382.585 487.23 330.551 497.271 316.345 445.549L316.354 445.509Z" stroke="url(#paint38_linear_328_358)" stroke-miterlimit="10"/>
<path d="M320.847 446.108C313.867 420.744 313.491 379.768 336.886 362.756C357.657 347.662 393.474 354.155 410.349 373.852C430.222 397.014 416.674 430.011 437.267 444.737C447.451 452.018 461.274 449.741 471.063 448.506C486.863 446.511 495.415 440.368 507.098 434.765C520.475 428.335 557.589 410.499 584.855 423.813C603.019 432.685 618.119 455.999 615.497 477.066C611.604 508.371 569.158 530.229 536.058 529.305C506.356 528.483 489.134 509.478 473.129 520.466C464.724 526.246 462.206 536.454 458.746 550.434C450.851 582.388 462.158 593.871 455.375 612.946C446.681 637.484 413.814 658.307 391.91 648.735C366.722 637.738 367.382 591.578 367.494 587.549C368.08 564.409 382.603 543.692 383.302 526.098C384.828 486.398 334.562 496.075 320.823 446.123L320.847 446.108Z" stroke="url(#paint39_linear_328_358)" stroke-miterlimit="10"/>
<path d="M325.325 446.682C318.599 422.209 318.219 382.69 340.799 366.291C360.836 351.724 395.391 357.994 411.666 376.985C430.843 399.332 417.756 431.16 437.625 445.358C447.428 452.371 460.784 450.184 470.215 449.004C485.473 447.079 493.729 441.155 505.002 435.741C517.899 429.545 553.688 412.337 580.011 425.193C597.542 433.753 612.093 456.227 609.566 476.558C605.815 506.758 564.869 527.844 532.932 526.969C504.278 526.166 487.656 507.867 472.232 518.457C464.123 524.018 461.68 533.908 458.367 547.355C450.739 578.195 461.64 589.255 455.12 607.659C446.711 631.341 415.034 651.417 393.902 642.173C369.615 631.558 370.247 587.039 370.344 583.155C370.918 560.835 384.921 540.85 385.592 523.883C387.047 485.581 338.577 494.943 325.315 446.722L325.325 446.682Z" stroke="url(#paint40_linear_328_358)" stroke-miterlimit="10"/>
<path d="M329.803 447.257C323.33 423.673 322.946 385.611 344.721 369.785C364.04 355.77 397.318 361.793 412.992 380.078C431.473 401.61 418.872 432.253 438.006 445.965C447.466 452.719 460.317 450.612 469.415 449.472C484.106 447.632 492.053 441.902 502.916 436.677C515.356 430.701 549.821 414.12 575.186 426.495C592.083 434.741 606.101 456.4 603.654 475.97C600.045 505.066 560.599 525.38 529.834 524.514C502.242 523.755 486.216 506.097 471.35 516.303C463.55 521.67 461.178 531.177 457.98 544.147C450.642 573.857 461.152 584.52 454.855 602.242C446.755 625.054 416.245 644.397 395.861 635.496C372.45 625.279 373.078 582.387 373.186 578.631C373.745 557.133 387.23 537.879 387.873 521.539C389.295 484.645 342.568 493.657 329.813 447.217L329.803 447.257Z" stroke="url(#paint41_linear_328_358)" stroke-miterlimit="10"/>
<path d="M334.305 447.816C328.061 425.138 327.721 388.503 348.658 373.304C367.244 359.818 399.235 365.632 414.347 383.221C432.118 403.912 419.992 433.412 438.402 446.597C447.495 453.107 459.865 451.065 468.606 449.98C482.739 448.185 490.382 442.714 500.835 437.679C512.794 431.936 545.974 415.993 570.356 427.9C586.596 435.849 600.08 456.692 597.752 475.511C594.285 503.502 556.339 523.045 526.737 522.228C500.193 521.488 484.791 504.521 470.482 514.344C462.977 519.492 460.705 528.666 457.63 541.118C450.568 569.674 460.663 579.954 454.628 597.004C446.838 618.945 417.48 637.532 397.896 629.009C375.386 619.174 375.987 577.923 376.08 574.312C376.625 553.634 389.591 535.112 390.192 519.374C391.543 483.877 346.621 492.536 334.334 447.866L334.305 447.816Z" stroke="url(#paint42_linear_328_358)" stroke-miterlimit="10"/>
<path d="M338.783 448.39C332.792 426.602 332.448 391.425 352.571 376.838C370.423 363.879 401.153 369.471 415.663 386.354C432.738 406.23 421.088 434.585 438.759 447.218C447.509 453.47 459.375 451.508 467.768 450.438C481.334 448.728 488.691 443.436 498.725 438.63C510.227 433.106 542.082 417.791 565.484 429.232C581.075 436.842 594.025 456.87 591.792 474.952C588.468 501.84 552.007 520.585 523.567 519.817C498.048 519.112 483.28 502.796 469.528 512.236C462.333 517.189 460.132 525.98 457.171 537.955C450.375 565.396 460.089 575.239 454.291 591.633C446.81 612.703 418.595 630.573 399.807 622.362C378.174 612.925 378.756 573.276 378.85 569.833C379.343 549.966 391.828 532.186 392.401 517.074C393.72 482.985 350.556 491.319 338.76 448.405L338.783 448.39Z" stroke="url(#paint43_linear_328_358)" stroke-miterlimit="10"/>
<path d="M343.262 448.964C337.524 428.067 337.199 394.332 356.47 380.348C373.589 367.916 403.056 373.285 416.965 389.462C433.321 408.538 422.18 435.693 439.117 447.84C447.486 453.823 458.884 451.951 466.92 450.936C479.943 449.296 486.981 444.238 496.606 439.621C507.626 434.332 538.158 419.644 560.64 430.613C575.597 437.91 588.013 457.122 585.861 474.444C582.655 500.242 547.719 518.2 520.465 517.466C496.007 516.805 481.812 501.146 468.664 510.172C461.741 514.922 459.664 523.364 456.826 534.821C450.32 561.134 459.619 570.594 454.055 586.266C446.883 606.465 419.835 623.603 401.795 615.735C381.062 606.681 381.617 568.673 381.696 565.375C382.176 546.329 394.142 529.28 394.71 514.78C395.958 482.089 354.575 490.083 343.271 448.924L343.262 448.964Z" stroke="url(#paint44_linear_328_358)" stroke-miterlimit="10"/>
<path d="M347.74 449.538C342.231 429.546 341.927 397.254 360.383 383.882C376.768 371.978 404.973 377.124 418.258 392.61C433.918 410.87 423.238 436.857 439.451 448.476C447.453 454.216 458.37 452.409 466.072 451.434C478.529 449.879 485.257 445.015 494.472 440.587C505.012 435.532 534.243 421.457 555.744 431.959C570.067 438.943 581.935 457.315 579.891 473.925C576.814 498.594 543.392 515.806 517.286 515.096C493.877 514.454 480.306 499.485 467.715 508.128C461.101 512.684 459.095 520.743 456.386 531.748C450.17 556.931 459.064 565.968 453.738 580.983C446.875 600.312 420.993 616.718 403.725 609.178C383.893 600.506 384.42 564.14 384.509 560.971C384.975 542.745 396.422 526.428 396.962 512.555C398.178 481.272 358.562 488.902 347.74 449.538Z" stroke="url(#paint45_linear_328_358)" stroke-miterlimit="10"/>
<path d="M352.218 450.113C346.962 431.01 346.668 400.201 364.306 387.376C379.934 376.015 406.885 380.898 419.599 395.728C434.562 413.173 424.344 437.99 439.856 449.068C447.515 454.549 457.927 452.822 465.272 451.902C477.171 450.392 483.619 445.772 492.401 441.549C502.483 436.712 530.405 423.29 550.923 433.324C564.59 440.011 575.947 457.553 573.984 473.402C571.049 496.966 539.103 513.421 514.207 512.73C491.846 512.107 478.885 497.805 466.852 506.064C460.533 510.401 458.613 518.102 456.042 528.614C450.091 552.683 458.595 561.322 453.515 575.641C446.961 594.099 422.247 609.773 405.75 602.561C386.795 594.286 387.319 559.547 387.379 556.497C387.831 539.093 398.759 523.507 399.271 510.26C400.416 480.375 362.582 487.666 352.252 450.058L352.218 450.113Z" stroke="url(#paint46_linear_328_358)" stroke-miterlimit="10"/>
<path d="M356.735 450.697C351.732 432.485 351.457 403.117 368.257 390.92C383.152 380.087 408.841 384.747 420.953 398.871C435.206 415.475 425.488 439.133 440.266 449.724C447.558 454.962 457.465 453.315 464.501 452.42C475.833 450.995 481.971 446.569 490.358 442.56C499.959 437.958 526.557 425.162 546.141 434.7C559.174 441.074 569.997 457.8 568.115 472.888C565.322 495.348 534.876 511.031 511.128 510.364C489.829 509.786 477.479 496.149 466.003 504.026C459.979 508.143 458.159 515.511 455.687 525.52C450.012 548.435 458.125 556.677 453.26 570.354C447.029 587.966 423.443 602.898 407.733 596.039C389.679 588.146 390.136 555.038 390.22 552.143C390.658 535.559 401.068 520.705 401.537 508.06C402.612 479.573 366.573 486.549 356.735 450.697Z" stroke="url(#paint47_linear_328_358)" stroke-miterlimit="10"/>
<path d="M361.213 451.271C356.477 433.974 356.185 406.039 372.156 394.429C386.331 384.149 410.743 388.561 422.256 401.979C435.813 417.768 426.57 440.282 440.61 450.321C447.544 455.276 456.961 453.733 463.639 452.893C474.428 451.538 480.247 447.346 488.224 443.526C497.344 439.158 522.642 426.975 541.259 436.071C553.658 442.132 563.933 458.018 562.16 472.394C559.509 493.75 530.564 508.661 507.978 508.043C487.727 507.484 475.963 494.529 465.068 502.007C459.33 505.945 457.604 512.915 455.271 522.432C449.886 544.217 457.594 552.036 452.966 565.057C447.045 581.798 424.625 595.999 409.687 589.467C392.51 581.972 392.963 550.49 393.033 547.739C393.443 531.951 403.334 517.828 403.813 505.82C404.855 478.741 370.584 485.353 361.213 451.271Z" stroke="url(#paint48_linear_328_358)" stroke-miterlimit="10"/>
<path d="M365.691 451.845C361.185 435.453 360.936 408.946 376.069 397.964C389.511 388.211 412.661 392.4 423.587 405.136C436.448 420.11 427.666 441.455 440.982 450.967C447.549 455.679 456.485 454.201 462.83 453.401C473.038 452.106 478.599 448.143 486.129 444.502C494.777 440.329 518.766 428.798 536.401 437.427C548.152 443.15 557.907 458.246 556.214 471.861C553.706 492.112 526.261 506.251 504.847 505.643C485.644 505.103 474.504 492.838 464.166 499.933C458.724 503.652 457.098 510.289 454.864 519.303C449.746 539.974 457.062 547.396 452.682 559.72C447.046 575.606 425.817 589.059 411.651 582.855C395.374 575.742 395.8 545.902 395.855 543.296C396.252 528.328 405.624 514.937 406.075 503.556C407.046 477.874 374.556 484.147 365.677 451.82L365.691 451.845Z" stroke="url(#paint49_linear_328_358)" stroke-miterlimit="10"/>
<path d="M370.169 452.419C365.916 436.918 365.663 411.868 379.992 401.458C392.701 392.233 414.588 396.198 424.913 408.229C437.078 422.388 428.782 442.549 441.363 451.574C447.587 456.027 456.018 454.629 462.006 453.884C471.671 452.659 476.899 448.905 484.033 445.479C492.201 441.539 514.903 430.646 531.581 438.793C542.674 444.218 551.905 458.458 550.307 471.337C547.941 490.484 521.981 503.826 501.745 503.292C483.604 502.796 473.06 491.173 463.279 497.884C458.146 501.409 456.592 507.663 454.496 516.185C449.667 535.726 456.579 542.725 452.436 554.392C447.109 569.408 427.033 582.104 413.629 576.268C398.229 569.553 398.651 541.339 398.716 538.862C399.075 524.73 407.952 512.055 408.374 501.301C409.313 477.027 378.566 482.95 370.193 452.404L370.169 452.419Z" stroke="url(#paint50_linear_328_358)" stroke-miterlimit="10"/>
<path d="M374.648 452.994C370.647 438.382 370.414 414.775 383.905 404.992C395.88 396.295 416.505 400.037 426.229 411.362C437.66 424.696 429.864 443.697 441.721 452.195C447.563 456.38 455.528 455.072 461.182 454.367C470.28 453.227 475.213 449.692 481.938 446.455C489.648 442.734 511.003 432.484 526.723 440.149C537.182 445.261 545.879 458.686 544.376 470.829C542.152 488.871 517.693 501.441 498.628 500.916C481.511 500.454 471.616 489.508 462.392 495.835C457.554 499.141 456.1 505.062 454.103 513.081C449.565 531.493 456.061 538.11 452.166 549.08C447.149 563.225 428.215 575.204 415.607 569.681C401.107 563.348 401.487 536.751 401.553 534.443C401.897 521.132 410.256 509.189 410.65 499.061C411.518 476.185 382.591 481.779 374.671 452.979L374.648 452.994Z" stroke="url(#paint51_linear_328_358)" stroke-miterlimit="10"/>
<path d="M379.15 453.553C375.378 439.846 375.165 417.682 387.827 408.487C399.069 400.317 418.431 403.836 427.546 414.495C438.281 427.013 430.96 444.87 442.078 452.817C447.578 456.743 455.037 455.515 460.358 454.85C468.913 453.78 473.537 450.439 479.842 447.431C487.071 443.945 507.126 434.307 521.879 441.53C531.704 446.329 539.867 458.938 538.445 470.32C536.349 487.234 513.404 499.057 495.501 498.58C479.433 498.138 470.123 487.872 461.481 493.802C456.928 496.928 455.569 502.45 453.701 510.017C449.414 527.29 455.544 533.494 451.887 543.808C447.178 557.082 429.411 568.329 417.589 563.159C403.966 557.223 404.343 532.253 404.394 530.089C404.71 517.574 412.564 506.387 412.93 496.886C413.766 475.417 386.582 480.662 379.169 453.642L379.15 453.553Z" stroke="url(#paint52_linear_328_358)" stroke-miterlimit="10"/>
<path d="M383.628 454.127C380.11 441.311 379.893 420.604 391.74 412.021C402.226 404.394 420.325 407.69 428.863 417.628C438.902 429.331 432.066 446.004 442.474 453.448C447.607 457.131 454.599 455.992 459.548 455.358C467.522 454.348 471.865 451.251 477.747 448.407C484.495 445.155 503.264 436.155 517.044 442.871C526.236 447.357 533.851 459.126 532.523 469.772C530.546 485.596 509.101 496.647 492.37 496.18C477.364 495.781 468.651 486.157 460.565 491.703C456.308 494.611 455.048 499.799 453.304 506.849C449.307 522.993 455.022 528.814 451.612 538.431C447.213 550.834 430.613 561.35 419.539 556.522C406.816 550.969 407.165 527.64 407.202 525.62C407.505 513.926 414.84 503.471 415.187 494.557C415.952 474.486 390.55 479.391 383.604 454.142L383.628 454.127Z" stroke="url(#paint53_linear_328_358)" stroke-miterlimit="10"/>
<path d="M388.106 454.701C384.841 442.775 384.644 423.51 395.639 415.53C405.391 408.431 422.228 411.504 430.165 420.736C439.508 431.624 433.133 447.127 442.817 454.045C447.607 457.469 454.094 456.411 458.71 455.816C466.141 454.876 470.15 451.988 475.661 449.344C481.952 446.311 499.397 437.938 512.21 444.212C520.744 448.4 527.848 459.339 526.616 469.248C524.78 483.968 504.836 494.247 489.291 493.814C475.333 493.435 467.244 484.501 459.716 489.664C455.768 492.378 454.58 497.183 452.95 503.755C449.243 518.77 454.553 524.168 451.38 533.129C447.29 544.661 431.857 554.445 421.555 549.945C409.733 544.774 410.016 523.077 410.086 521.172C410.375 510.298 417.191 500.574 417.51 492.287C418.219 473.639 394.584 478.18 388.144 454.711L388.106 454.701Z" stroke="url(#paint54_linear_328_358)" stroke-miterlimit="10"/>
</g>
<defs>
<linearGradient id="paint0_linear_328_358" x1="163.298" y1="640.806" x2="745.017" y2="306.082" gradientUnits="userSpaceOnUse">
<stop stop-color="#D82029"/>
<stop offset="1" stop-color="#0D0D0D"/>
</linearGradient>
<linearGradient id="paint1_linear_328_358" x1="163.298" y1="640.806" x2="745.017" y2="306.082" gradientUnits="userSpaceOnUse">
<stop stop-color="#D82029"/>
<stop offset="1" stop-color="#0D0D0D"/>
</linearGradient>
<linearGradient id="paint2_linear_328_358" x1="163.298" y1="640.806" x2="745.017" y2="306.082" gradientUnits="userSpaceOnUse">
<stop stop-color="#D82029"/>
<stop offset="1" stop-color="#0D0D0D"/>
</linearGradient>
<linearGradient id="paint3_linear_328_358" x1="163.298" y1="640.806" x2="745.017" y2="306.082" gradientUnits="userSpaceOnUse">
<stop stop-color="#D82029"/>
<stop offset="1" stop-color="#0D0D0D"/>
</linearGradient>
<linearGradient id="paint4_linear_328_358" x1="167.703" y1="638.042" x2="740.415" y2="308.501" gradientUnits="userSpaceOnUse">
<stop stop-color="#D82029"/>
<stop offset="1" stop-color="#0D0D0D"/>
</linearGradient>
<linearGradient id="paint5_linear_328_358" x1="172.108" y1="635.279" x2="735.812" y2="310.921" gradientUnits="userSpaceOnUse">
<stop stop-color="#D82029"/>
<stop offset="1" stop-color="#0D0D0D"/>
</linearGradient>
<linearGradient id="paint6_linear_328_358" x1="176.512" y1="632.515" x2="731.209" y2="313.341" gradientUnits="userSpaceOnUse">
<stop stop-color="#D82029"/>
<stop offset="1" stop-color="#0D0D0D"/>
</linearGradient>
<linearGradient id="paint7_linear_328_358" x1="180.917" y1="629.752" x2="726.607" y2="315.76" gradientUnits="userSpaceOnUse">
<stop stop-color="#D82029"/>
<stop offset="1" stop-color="#0D0D0D"/>
</linearGradient>
<linearGradient id="paint8_linear_328_358" x1="185.322" y1="626.988" x2="722.004" y2="318.18" gradientUnits="userSpaceOnUse">
<stop stop-color="#D82029"/>
<stop offset="1" stop-color="#0D0D0D"/>
</linearGradient>
<linearGradient id="paint9_linear_328_358" x1="189.727" y1="624.225" x2="717.401" y2="320.599" gradientUnits="userSpaceOnUse">
<stop stop-color="#D82029"/>
<stop offset="1" stop-color="#0D0D0D"/>
</linearGradient>
<linearGradient id="paint10_linear_328_358" x1="194.132" y1="621.462" x2="712.798" y2="323.019" gradientUnits="userSpaceOnUse">
<stop stop-color="#D82029"/>
<stop offset="1" stop-color="#0D0D0D"/>
</linearGradient>
<linearGradient id="paint11_linear_328_358" x1="198.537" y1="618.698" x2="708.196" y2="325.438" gradientUnits="userSpaceOnUse">
<stop stop-color="#D82029"/>
<stop offset="1" stop-color="#0D0D0D"/>
</linearGradient>
<linearGradient id="paint12_linear_328_358" x1="202.942" y1="615.935" x2="703.593" y2="327.858" gradientUnits="userSpaceOnUse">
<stop stop-color="#D82029"/>
<stop offset="1" stop-color="#0D0D0D"/>
</linearGradient>
<linearGradient id="paint13_linear_328_358" x1="207.347" y1="613.171" x2="698.99" y2="330.278" gradientUnits="userSpaceOnUse">
<stop stop-color="#D82029"/>
<stop offset="1" stop-color="#0D0D0D"/>
</linearGradient>
<linearGradient id="paint14_linear_328_358" x1="211.751" y1="610.408" x2="694.388" y2="332.697" gradientUnits="userSpaceOnUse">
<stop stop-color="#D82029"/>
<stop offset="1" stop-color="#0D0D0D"/>
</linearGradient>
<linearGradient id="paint15_linear_328_358" x1="216.156" y1="607.645" x2="689.785" y2="335.117" gradientUnits="userSpaceOnUse">
<stop stop-color="#D82029"/>
<stop offset="1" stop-color="#0D0D0D"/>
</linearGradient>
<linearGradient id="paint16_linear_328_358" x1="220.561" y1="604.881" x2="685.182" y2="337.536" gradientUnits="userSpaceOnUse">
<stop stop-color="#D82029"/>
<stop offset="1" stop-color="#0D0D0D"/>
</linearGradient>
<linearGradient id="paint17_linear_328_358" x1="224.966" y1="602.118" x2="680.579" y2="339.956" gradientUnits="userSpaceOnUse">
<stop stop-color="#D82029"/>
<stop offset="1" stop-color="#0D0D0D"/>
</linearGradient>
<linearGradient id="paint18_linear_328_358" x1="229.371" y1="599.354" x2="675.977" y2="342.375" gradientUnits="userSpaceOnUse">
<stop stop-color="#D82029"/>
<stop offset="1" stop-color="#0D0D0D"/>
</linearGradient>
<linearGradient id="paint19_linear_328_358" x1="233.776" y1="596.591" x2="671.374" y2="344.795" gradientUnits="userSpaceOnUse">
<stop stop-color="#D82029"/>
<stop offset="1" stop-color="#0D0D0D"/>
</linearGradient>
<linearGradient id="paint20_linear_328_358" x1="238.181" y1="593.827" x2="666.771" y2="347.215" gradientUnits="userSpaceOnUse">
<stop stop-color="#D82029"/>
<stop offset="1" stop-color="#0D0D0D"/>
</linearGradient>
<linearGradient id="paint21_linear_328_358" x1="242.586" y1="591.064" x2="662.169" y2="349.634" gradientUnits="userSpaceOnUse">
<stop stop-color="#D82029"/>
<stop offset="1" stop-color="#0D0D0D"/>
</linearGradient>
<linearGradient id="paint22_linear_328_358" x1="246.99" y1="588.301" x2="657.566" y2="352.054" gradientUnits="userSpaceOnUse">
<stop stop-color="#D82029"/>
<stop offset="1" stop-color="#0D0D0D"/>
</linearGradient>
<linearGradient id="paint23_linear_328_358" x1="251.419" y1="585.522" x2="652.963" y2="354.472" gradientUnits="userSpaceOnUse">
<stop stop-color="#D82029"/>
<stop offset="1" stop-color="#0D0D0D"/>
</linearGradient>
<linearGradient id="paint24_linear_328_358" x1="255.824" y1="582.759" x2="648.36" y2="356.892" gradientUnits="userSpaceOnUse">
<stop stop-color="#D82029"/>
<stop offset="1" stop-color="#0D0D0D"/>
</linearGradient>
<linearGradient id="paint25_linear_328_358" x1="260.229" y1="579.995" x2="643.733" y2="359.326" gradientUnits="userSpaceOnUse">
<stop stop-color="#D82029"/>
<stop offset="1" stop-color="#0D0D0D"/>
</linearGradient>
<linearGradient id="paint26_linear_328_358" x1="264.634" y1="577.232" x2="639.13" y2="361.745" gradientUnits="userSpaceOnUse">
<stop stop-color="#D82029"/>
<stop offset="1" stop-color="#0D0D0D"/>
</linearGradient>
<linearGradient id="paint27_linear_328_358" x1="269.039" y1="574.469" x2="634.528" y2="364.165" gradientUnits="userSpaceOnUse">
<stop stop-color="#D82029"/>
<stop offset="1" stop-color="#0D0D0D"/>
</linearGradient>
<linearGradient id="paint28_linear_328_358" x1="273.443" y1="571.705" x2="629.925" y2="366.584" gradientUnits="userSpaceOnUse">
<stop stop-color="#D82029"/>
<stop offset="1" stop-color="#0D0D0D"/>
</linearGradient>
<linearGradient id="paint29_linear_328_358" x1="114.551" y1="285.145" x2="462.024" y2="85.2072" gradientUnits="userSpaceOnUse">
<stop stop-color="#D82029"/>
<stop offset="1" stop-color="#0D0D0D"/>
</linearGradient>
<linearGradient id="paint30_linear_328_358" x1="282.253" y1="566.178" x2="620.719" y2="371.424" gradientUnits="userSpaceOnUse">
<stop stop-color="#D82029"/>
<stop offset="1" stop-color="#0D0D0D"/>
</linearGradient>
<linearGradient id="paint31_linear_328_358" x1="286.658" y1="563.415" x2="616.117" y2="373.843" gradientUnits="userSpaceOnUse">
<stop stop-color="#D82029"/>
<stop offset="1" stop-color="#0D0D0D"/>
</linearGradient>
<linearGradient id="paint32_linear_328_358" x1="291.063" y1="560.652" x2="611.514" y2="376.263" gradientUnits="userSpaceOnUse">
<stop stop-color="#D82029"/>
<stop offset="1" stop-color="#0D0D0D"/>
</linearGradient>
<linearGradient id="paint33_linear_328_358" x1="295.468" y1="557.888" x2="606.911" y2="378.682" gradientUnits="userSpaceOnUse">
<stop stop-color="#D82029"/>
<stop offset="1" stop-color="#0D0D0D"/>
</linearGradient>
<linearGradient id="paint34_linear_328_358" x1="299.873" y1="555.125" x2="602.309" y2="381.102" gradientUnits="userSpaceOnUse">
<stop stop-color="#D82029"/>
<stop offset="1" stop-color="#0D0D0D"/>
</linearGradient>
<linearGradient id="paint35_linear_328_358" x1="304.278" y1="552.361" x2="597.706" y2="383.522" gradientUnits="userSpaceOnUse">
<stop stop-color="#D82029"/>
<stop offset="1" stop-color="#0D0D0D"/>
</linearGradient>
<linearGradient id="paint36_linear_328_358" x1="145.385" y1="265.801" x2="429.805" y2="102.144" gradientUnits="userSpaceOnUse">
<stop stop-color="#D82029"/>
<stop offset="1" stop-color="#0D0D0D"/>
</linearGradient>
<linearGradient id="paint37_linear_328_358" x1="313.087" y1="546.834" x2="588.5" y2="388.361" gradientUnits="userSpaceOnUse">
<stop stop-color="#D82029"/>
<stop offset="1" stop-color="#0D0D0D"/>
</linearGradient>
<linearGradient id="paint38_linear_328_358" x1="317.492" y1="544.071" x2="583.898" y2="390.78" gradientUnits="userSpaceOnUse">
<stop stop-color="#D82029"/>
<stop offset="1" stop-color="#0D0D0D"/>
</linearGradient>
<linearGradient id="paint39_linear_328_358" x1="321.897" y1="541.308" x2="579.295" y2="393.2" gradientUnits="userSpaceOnUse">
<stop stop-color="#D82029"/>
<stop offset="1" stop-color="#0D0D0D"/>
</linearGradient>
<linearGradient id="paint40_linear_328_358" x1="326.302" y1="538.544" x2="574.692" y2="395.619" gradientUnits="userSpaceOnUse">
<stop stop-color="#D82029"/>
<stop offset="1" stop-color="#0D0D0D"/>
</linearGradient>
<linearGradient id="paint41_linear_328_358" x1="330.707" y1="535.781" x2="570.089" y2="398.039" gradientUnits="userSpaceOnUse">
<stop stop-color="#D82029"/>
<stop offset="1" stop-color="#0D0D0D"/>
</linearGradient>
<linearGradient id="paint42_linear_328_358" x1="335.112" y1="533.017" x2="565.487" y2="400.459" gradientUnits="userSpaceOnUse">
<stop stop-color="#D82029"/>
<stop offset="1" stop-color="#0D0D0D"/>
</linearGradient>
<linearGradient id="paint43_linear_328_358" x1="339.517" y1="530.254" x2="560.884" y2="402.878" gradientUnits="userSpaceOnUse">
<stop stop-color="#D82029"/>
<stop offset="1" stop-color="#0D0D0D"/>
</linearGradient>
<linearGradient id="paint44_linear_328_358" x1="343.921" y1="527.491" x2="556.281" y2="405.298" gradientUnits="userSpaceOnUse">
<stop stop-color="#D82029"/>
<stop offset="1" stop-color="#0D0D0D"/>
</linearGradient>
<linearGradient id="paint45_linear_328_358" x1="348.326" y1="524.727" x2="551.679" y2="407.717" gradientUnits="userSpaceOnUse">
<stop stop-color="#D82029"/>
<stop offset="1" stop-color="#0D0D0D"/>
</linearGradient>
<linearGradient id="paint46_linear_328_358" x1="352.731" y1="521.964" x2="547.076" y2="410.137" gradientUnits="userSpaceOnUse">
<stop stop-color="#D82029"/>
<stop offset="1" stop-color="#0D0D0D"/>
</linearGradient>
<linearGradient id="paint47_linear_328_358" x1="357.136" y1="519.2" x2="542.473" y2="412.557" gradientUnits="userSpaceOnUse">
<stop stop-color="#D82029"/>
<stop offset="1" stop-color="#0D0D0D"/>
</linearGradient>
<linearGradient id="paint48_linear_328_358" x1="361.541" y1="516.437" x2="537.87" y2="414.976" gradientUnits="userSpaceOnUse">
<stop stop-color="#D82029"/>
<stop offset="1" stop-color="#0D0D0D"/>
</linearGradient>
<linearGradient id="paint49_linear_328_358" x1="365.946" y1="513.674" x2="533.268" y2="417.396" gradientUnits="userSpaceOnUse">
<stop stop-color="#D82029"/>
<stop offset="1" stop-color="#0D0D0D"/>
</linearGradient>
<linearGradient id="paint50_linear_328_358" x1="370.351" y1="510.91" x2="528.665" y2="419.815" gradientUnits="userSpaceOnUse">
<stop stop-color="#D82029"/>
<stop offset="1" stop-color="#0D0D0D"/>
</linearGradient>
<linearGradient id="paint51_linear_328_358" x1="374.756" y1="508.147" x2="524.062" y2="422.235" gradientUnits="userSpaceOnUse">
<stop stop-color="#D82029"/>
<stop offset="1" stop-color="#0D0D0D"/>
</linearGradient>
<linearGradient id="paint52_linear_328_358" x1="379.16" y1="505.383" x2="519.46" y2="424.655" gradientUnits="userSpaceOnUse">
<stop stop-color="#D82029"/>
<stop offset="1" stop-color="#0D0D0D"/>
</linearGradient>
<linearGradient id="paint53_linear_328_358" x1="383.565" y1="502.62" x2="514.857" y2="427.074" gradientUnits="userSpaceOnUse">
<stop stop-color="#D82029"/>
<stop offset="1" stop-color="#0D0D0D"/>
</linearGradient>
<linearGradient id="paint54_linear_328_358" x1="387.97" y1="499.856" x2="510.254" y2="429.494" gradientUnits="userSpaceOnUse">
<stop stop-color="#D82029"/>
<stop offset="1" stop-color="#0D0D0D"/>
</linearGradient>
<clipPath id="clip0_328_358">
<rect width="671.635" height="654.849" fill="white" transform="matrix(0.847101 -0.531432 0.498734 0.866755 0 357.009)"/>
</clipPath>
</defs>
</svg>
