<svg width="653" height="17" viewBox="0 0 653 17" fill="none" xmlns="http://www.w3.org/2000/svg">
<path d="M126.291 16V2.00803H121.203V0.160034H133.563V2.00803H128.475V16H126.291Z" fill="black"/>
<path d="M114.071 0.160034C118.031 0.160034 120.287 2.08003 120.287 5.51203C120.287 8.94403 118.127 10.888 114.335 10.888H111.263V16H109.079V0.160034H114.071ZM113.999 9.04003C116.615 9.04003 118.079 7.76803 118.079 5.51203C118.079 3.28003 116.591 2.00803 113.927 2.00803H111.263V9.04003H113.999Z" fill="black"/>
<path d="M102.821 16V0.160034H105.005V16H102.821Z" fill="black"/>
<path d="M100.286 14.344L100.454 16.024C100.454 16.024 99.8541 16.144 99.1581 16.144C94.7181 16.144 96.0381 9.90403 91.9101 9.90403H90.6381V16H88.4541V0.160034H93.2301C96.9261 0.160034 99.0381 1.64803 99.0381 5.08003C99.0381 7.28803 97.5741 8.82403 95.4861 9.52003C97.5261 10.672 97.5501 14.392 99.8061 14.392C100.094 14.392 100.286 14.344 100.286 14.344ZM90.6381 8.20003H92.9181C95.1501 8.20003 96.8301 7.09603 96.8301 5.08003C96.8301 3.04003 95.5341 2.00803 93.1341 2.00803H90.6381V8.20003Z" fill="black"/>
<path d="M79.4608 0.0159912C83.9008 0.0159912 85.4368 3.30399 85.4608 5.36799L83.3968 5.70399C83.3968 4.19199 82.3408 1.93599 79.4848 1.93599C76.7488 1.93599 74.5168 4.16799 74.5168 8.07999C74.5168 12.448 77.0848 14.224 79.8688 14.224C81.9328 14.224 83.4448 12.976 84.2848 11.824L85.6048 13.168C85.1248 13.84 83.3248 16.144 79.8208 16.144C75.3568 16.144 72.3088 13.168 72.3088 8.07999C72.3088 3.20799 75.2848 0.0159912 79.4608 0.0159912Z" fill="black"/>
<path d="M67.9009 4.38399C67.7569 3.54399 66.8929 1.93599 64.4209 1.93599C62.5729 1.93599 61.3729 2.82399 61.3729 4.33599C61.3729 7.69599 70.0369 5.99199 70.0369 11.92C70.0369 14.464 67.8049 16.144 64.3969 16.144C61.5649 16.144 59.5249 15.088 58.5649 14.272L59.9329 12.568C60.5809 13.144 61.9969 14.224 64.3969 14.224C66.5809 14.224 67.8769 13.336 67.8769 11.92C67.8769 7.69599 59.1649 9.75999 59.1649 4.35999C59.1649 1.76799 61.3249 0.0159912 64.4209 0.0159912C68.7169 0.0159912 69.6529 2.75199 69.9409 3.87999L67.9009 4.38399Z" fill="black"/>
<path d="M50.3479 16L48.8839 12.064H42.2359L40.7719 16H38.5159L44.4679 0.160034H46.6519L52.6039 16H50.3479ZM42.9079 10.264H48.2119L46.0759 4.52803C45.9079 4.07203 45.7399 3.49603 45.5719 2.87203H45.5239C45.3559 3.49603 45.1879 4.07203 45.0199 4.52803L42.9079 10.264Z" fill="black"/>
<path d="M27.3208 0.160034L31.4008 11.632C31.5688 12.088 31.7368 12.664 31.9048 13.288H31.9528C32.1208 12.664 32.2888 12.16 32.4808 11.632L36.6088 0.160034H38.8648L32.9608 16H30.8248L25.0168 0.160034H27.3208Z" fill="black"/>
<path d="M23.0666 16L21.6026 12.064H14.9546L13.4906 16H11.2346L17.1866 0.160034H19.3706L25.3226 16H23.0666ZM15.6266 10.264H20.9306L18.7946 4.52803C18.6266 4.07203 18.4586 3.49603 18.2906 2.87203H18.2426C18.0746 3.49603 17.9066 4.07203 17.7386 4.52803L15.6266 10.264Z" fill="black"/>
<path d="M1.46412 12.88C2.06412 13.48 3.00012 14.224 4.27212 14.224C6.04812 14.224 7.03212 13.456 7.03212 11.464V0.160034H9.21612V11.344C9.21612 14.584 7.22412 16.144 4.27212 16.144C2.28012 16.144 0.888117 15.184 0.120117 14.488L1.46412 12.88Z" fill="black"/>
<path d="M375.333 14.152H383.229V16H373.149V0.160034H375.333V14.152Z" fill="black"/>
<path d="M369.073 0.160034V16H366.889L366.937 6.25603C366.937 5.58403 367.009 4.31203 367.033 4.19203L366.937 4.16803C366.865 4.43203 366.529 5.56003 366.337 5.96803L361.753 16.048H360.409L355.657 5.80003C355.297 5.03203 355.153 4.28803 355.129 4.16803L355.033 4.19203C355.057 4.31203 355.129 5.58403 355.129 6.25603L355.177 16H352.993V0.160034H355.369L360.169 10.672C360.457 11.32 360.913 12.472 361.057 12.88H361.105C361.225 12.472 361.729 11.32 362.017 10.672L366.817 0.160034H369.073Z" fill="black"/>
<path d="M343.369 16V2.00803H338.281V0.160034H350.641V2.00803H345.553V16H343.369Z" fill="black"/>
<path d="M333.744 0.160034H335.928V16H333.744V8.70403H325.224V16H323.04V0.160034H325.224V6.85603H333.744V0.160034Z" fill="black"/>
<path d="M650.721 4.38399C650.577 3.54399 649.713 1.93599 647.241 1.93599C645.393 1.93599 644.193 2.82399 644.193 4.33599C644.193 7.69599 652.858 5.99199 652.858 11.92C652.858 14.464 650.625 16.144 647.217 16.144C644.385 16.144 642.345 15.088 641.385 14.272L642.753 12.568C643.401 13.144 644.817 14.224 647.217 14.224C649.401 14.224 650.698 13.336 650.698 11.92C650.698 7.69599 641.985 9.75999 641.985 4.35999C641.985 1.76799 644.145 0.0159912 647.241 0.0159912C651.537 0.0159912 652.473 2.75199 652.761 3.87999L650.721 4.38399Z" fill="black"/>
<path d="M637.386 4.38399C637.242 3.54399 636.378 1.93599 633.906 1.93599C632.058 1.93599 630.858 2.82399 630.858 4.33599C630.858 7.69599 639.522 5.99199 639.522 11.92C639.522 14.464 637.29 16.144 633.882 16.144C631.05 16.144 629.01 15.088 628.05 14.272L629.418 12.568C630.066 13.144 631.482 14.224 633.882 14.224C636.066 14.224 637.362 13.336 637.362 11.92C637.362 7.69599 628.65 9.75999 628.65 4.35999C628.65 1.76799 630.81 0.0159912 633.906 0.0159912C638.202 0.0159912 639.138 2.75199 639.426 3.87999L637.386 4.38399Z" fill="black"/>
<path d="M620.328 0.0159912C624.768 0.0159912 626.304 3.30399 626.328 5.36799L624.264 5.70399C624.264 4.19199 623.208 1.93599 620.352 1.93599C617.616 1.93599 615.384 4.16799 615.384 8.07999C615.384 12.448 617.952 14.224 620.736 14.224C622.8 14.224 624.312 12.976 625.152 11.824L626.472 13.168C625.992 13.84 624.192 16.144 620.688 16.144C616.224 16.144 613.176 13.168 613.176 8.07999C613.176 3.20799 616.152 0.0159912 620.328 0.0159912Z" fill="black"/>
</svg>
