<svg width="280" height="65" viewBox="0 0 280 65" fill="none" xmlns="http://www.w3.org/2000/svg">
<path d="M271.322 17.536C270.746 14.176 267.29 7.74396 257.402 7.74396C250.01 7.74396 245.21 11.296 245.21 17.344C245.21 30.784 279.866 23.968 279.866 47.68C279.866 57.856 270.938 64.576 257.306 64.576C245.978 64.576 237.818 60.352 233.978 57.088L239.45 50.272C242.042 52.576 247.706 56.896 257.306 56.896C266.042 56.896 271.226 53.344 271.226 47.68C271.226 30.784 236.378 39.04 236.378 17.44C236.378 7.07196 245.018 0.0639648 257.402 0.0639648C274.586 0.0639648 278.33 11.008 279.482 15.52L271.322 17.536Z" fill="black"/>
<path d="M198.115 56.608H229.699V64H189.379V0.640015H198.115V56.608Z" fill="black"/>
<path d="M148.427 56.608H180.011V64H139.691V0.640015H148.427V56.608Z" fill="black"/>
<path d="M114.66 64V0.640015H123.396V64H114.66Z" fill="black"/>
<path d="M96.2319 63.904L74.3439 36.736H67.2399V64H58.5039V0.640015H67.2399V29.344H74.3439L96.2319 0.640015H105.544L80.5839 33.088L105.832 63.904H96.2319Z" fill="black"/>
<path d="M37.416 17.536C36.84 14.176 33.384 7.74396 23.496 7.74396C16.104 7.74396 11.304 11.296 11.304 17.344C11.304 30.784 45.96 23.968 45.96 47.68C45.96 57.856 37.032 64.576 23.4 64.576C12.072 64.576 3.91202 60.352 0.0720215 57.088L5.54402 50.272C8.13602 52.576 13.8 56.896 23.4 56.896C32.136 56.896 37.32 53.344 37.32 47.68C37.32 30.784 2.47202 39.04 2.47202 17.44C2.47202 7.07196 11.112 0.0639648 23.496 0.0639648C40.68 0.0639648 44.424 11.008 45.576 15.52L37.416 17.536Z" fill="black"/>
</svg>
