<svg width="87" height="43" viewBox="0 0 87 43" fill="none" xmlns="http://www.w3.org/2000/svg">
<path d="M20.9018 42.3648L9.44426e-07 21.6059L20.9017 0.84703C21.0905 0.602106 21.3303 0.400114 21.605 0.254729C21.8796 0.109345 22.1827 0.0239619 22.4937 0.00435985C22.8046 -0.0152422 23.1162 0.0313956 23.4073 0.141114C23.6984 0.250833 23.9623 0.421072 24.1811 0.640306C24.3998 0.85954 24.5683 1.12265 24.6752 1.41183C24.7821 1.701 24.8248 2.00949 24.8005 2.31641C24.7763 2.62332 24.6855 2.9215 24.5345 3.19076C24.3834 3.46002 24.1756 3.69406 23.925 3.87706L8.28675 19.457L84.825 19.457C85.4018 19.457 85.9551 19.6834 86.363 20.0864C86.7708 20.4894 87 21.036 87 21.6059C87 22.1759 86.7708 22.7225 86.363 23.1255C85.9551 23.5285 85.4018 23.7549 84.825 23.7549L8.28675 23.7549L23.925 39.3348C24.3317 39.7395 24.559 40.2872 24.557 40.8574C24.5549 41.4277 24.3237 41.9738 23.9141 42.3756C23.5046 42.7774 22.9502 43.002 22.3731 43C21.7959 42.998 21.2432 42.7695 20.8365 42.3648L20.9018 42.3648Z" fill="white"/>
</svg>
